<svg xmlns="http://www.w3.org/2000/svg" xmlns:xlink="http://www.w3.org/1999/xlink" width="40.007" height="40.089" viewBox="0 0 40.007 40.089">
  <defs>
    <linearGradient id="linear-gradient" x1="0.5" x2="0.5" y2="1" gradientUnits="objectBoundingBox">
      <stop offset="0" stop-color="#43b8f1"/>
      <stop offset="1" stop-color="#0c73cb"/>
    </linearGradient>
    <radialGradient id="radial-gradient" cx="0.5" cy="0" r="1" gradientTransform="matrix(-0.002, 1, -1.294, -0.002, 0.501, -0.5)" gradientUnits="objectBoundingBox">
      <stop offset="0" stop-color="#fff" stop-opacity="0.302"/>
      <stop offset="1" stop-color="#fff"/>
    </radialGradient>
    <filter id="Path_726" x="14.848" y="17.771" width="19.582" height="22.318" filterUnits="userSpaceOnUse">
      <feOffset dy="2" input="SourceAlpha"/>
      <feGaussianBlur stdDeviation="1.5" result="blur"/>
      <feFlood flood-color="#00325c" flood-opacity="0.4"/>
      <feComposite operator="in" in2="blur"/>
      <feComposite in="SourceGraphic"/>
    </filter>
    <radialGradient id="radial-gradient-2" cx="0.5" cy="0.174" r="0.827" gradientTransform="translate(0.773 -0.326) rotate(90) scale(1 1.569)" xlink:href="#radial-gradient"/>
    <filter id="Path_727" x="4.887" y="17.771" width="18.141" height="22.045" filterUnits="userSpaceOnUse">
      <feOffset dy="2" input="SourceAlpha"/>
      <feGaussianBlur stdDeviation="1.5" result="blur-2"/>
      <feFlood flood-color="#00325c" flood-opacity="0.4"/>
      <feComposite operator="in" in2="blur-2"/>
      <feComposite in="SourceGraphic"/>
    </filter>
    <radialGradient id="radial-gradient-3" cx="0.5" cy="0" r="1.147" gradientTransform="matrix(0, 1, -0.954, 0, 0.5, -0.5)" gradientUnits="objectBoundingBox">
      <stop offset="0" stop-color="#fff" stop-opacity="0"/>
      <stop offset="0.483" stop-color="#fff" stop-opacity="0.533"/>
      <stop offset="1" stop-color="#fff"/>
    </radialGradient>
    <filter id="Subtraction_12" x="1.57" y="1.636" width="36.866" height="15.093" filterUnits="userSpaceOnUse">
      <feOffset dy="1" input="SourceAlpha"/>
      <feGaussianBlur stdDeviation="1" result="blur-3"/>
      <feFlood flood-color="#00325c" flood-opacity="0.2"/>
      <feComposite operator="in" in2="blur-3"/>
      <feComposite in="SourceGraphic"/>
    </filter>
  </defs>
  <g id="иконка_1" data-name="иконка 1" transform="translate(-357.949 -1188)">
    <g id="archive" transform="translate(357.949 1188)">
      <g id="Group_10" data-name="Group 10">
        <path id="Path_725" data-name="Path 725" d="M39.874,13.194l.012-.007L32.875.916A1.818,1.818,0,0,0,31.3,0H8.711A1.818,1.818,0,0,0,7.132.916L.12,13.187l.012.007A.885.885,0,0,0,0,13.639V36.37a3.641,3.641,0,0,0,3.637,3.637H36.37a3.641,3.641,0,0,0,3.637-3.637V13.639A.886.886,0,0,0,39.874,13.194Z" fill="url(#linear-gradient)"/>
      </g>
    </g>
    <g transform="matrix(1, 0, 0, 1, 357.95, 1188)" filter="url(#Path_726)">
      <path id="Path_726-2" data-name="Path 726" d="M-9.584-21.378a4.618,4.618,0,0,1-3.886,1.806,4.634,4.634,0,0,1-3.9-1.815,7.743,7.743,0,0,1-1.4-4.844,7.743,7.743,0,0,1,1.4-4.844,4.634,4.634,0,0,1,3.9-1.815,4.634,4.634,0,0,1,3.9,1.815,7.743,7.743,0,0,1,1.4,4.844A7.747,7.747,0,0,1-9.584-21.378Zm-5.911-4.853q0,3.485,2.025,3.485t2.025-3.485q0-3.485-2.025-3.485T-15.495-26.231Z" transform="translate(38.11 53.16)" fill="url(#radial-gradient)"/>
    </g>
    <g transform="matrix(1, 0, 0, 1, 357.95, 1188)" filter="url(#Path_727)">
      <path id="Path_727-2" data-name="Path 727" d="M-26.042-19.845v-2.372l4.233-4.47a10.626,10.626,0,0,0,.93-1.122,1.5,1.5,0,0,0,.292-.848,1.019,1.019,0,0,0-.3-.766,1.142,1.142,0,0,0-.83-.292,1.862,1.862,0,0,0-1.715,1.332l-2.81-1.569a4.659,4.659,0,0,1,1.824-2.189,4.948,4.948,0,0,1,2.664-.748A4.733,4.733,0,0,1-18.626-31.8a3.652,3.652,0,0,1,1.3,2.965,4.169,4.169,0,0,1-.52,2.052,9.676,9.676,0,0,1-1.523,1.979L-21.1-23h4v3.156Z" transform="translate(35.63 53.16)" fill="url(#radial-gradient-2)"/>
    </g>
    <g transform="matrix(1, 0, 0, 1, 357.95, 1188)" filter="url(#Subtraction_12)">
      <path id="Subtraction_12-2" data-name="Subtraction 12" d="M30.866,9.092H0L5.2,0H25.67l5.2,9.091Z" transform="translate(4.57 3.64)" fill="url(#radial-gradient-3)"/>
    </g>
  </g>
</svg>
