<svg xmlns="http://www.w3.org/2000/svg" width="146.6" height="105" viewBox="0 0 146.6 105">
  <g id="Conformite패_Europe패enne__logo_" data-name="Conformite패_Europe패enne_(logo)" transform="translate(0.5 0.5)">
    <path id="Path_761" data-name="Path 761" d="M57.2,103.739A52,52,0,1,1,57.2.261v15.6A36.4,36.4,0,0,0,52,15.6a36.4,36.4,0,1,0,0,72.8,36.4,36.4,0,0,0,5.2-.261Z" transform="translate(0 0)" fill="none" stroke="#d3d3d3" stroke-width="1" fill-rule="evenodd"/>
    <path id="Path_762" data-name="Path 762" d="M227.2,103.739A52,52,0,1,1,227.2.261v15.6A37.326,37.326,0,0,0,186.442,44.2l30.358,0V59.8H186.443A37.326,37.326,0,0,0,227.2,88.139Z" transform="translate(-81.6 0)" fill="none" stroke="#d3d3d3" stroke-width="1" fill-rule="evenodd"/>
  </g>
</svg>
