<svg xmlns="http://www.w3.org/2000/svg" xmlns:xlink="http://www.w3.org/1999/xlink" width="39.47" height="49" viewBox="0 0 39.47 49">
  <defs>
    <radialGradient id="radial-gradient" cx="0.5" cy="0.248" r="0.984" gradientTransform="matrix(0.054, -0.999, 1.661, 0.09, -0.059, 0.791)" gradientUnits="objectBoundingBox">
      <stop offset="0" stop-color="#fff" stop-opacity="0.302"/>
      <stop offset="1" stop-color="#fff"/>
    </radialGradient>
    <filter id="Path_4051" x="8.205" y="0" width="23.063" height="27.7" filterUnits="userSpaceOnUse">
      <feOffset dy="2" input="SourceAlpha"/>
      <feGaussianBlur stdDeviation="1.5" result="blur"/>
      <feFlood flood-opacity="0.4"/>
      <feComposite operator="in" in2="blur"/>
      <feComposite in="SourceGraphic"/>
    </filter>
    <radialGradient id="radial-gradient-2" cx="0.473" cy="1" r="0.975" gradientTransform="matrix(0, 1, -0.769, 0, 1.242, 0.527)" gradientUnits="objectBoundingBox">
      <stop offset="0" stop-color="#fff"/>
      <stop offset="1" stop-color="#fff" stop-opacity="0.302"/>
    </radialGradient>
    <filter id="Subtraction_13" x="0" y="16.562" width="39.47" height="32.438" filterUnits="userSpaceOnUse">
      <feOffset dy="2" input="SourceAlpha"/>
      <feGaussianBlur stdDeviation="1.5" result="blur-2"/>
      <feFlood flood-opacity="0.4"/>
      <feComposite operator="in" in2="blur-2"/>
      <feComposite in="SourceGraphic"/>
    </filter>
  </defs>
  <g id="Filter_1_" transform="translate(-56.498 2.5)">
    <g id="Group_48" data-name="Group 48" transform="translate(69.203 0)">
      <g transform="matrix(1, 0, 0, 1, -12.71, -2.5)" filter="url(#Path_4051)">
        <path id="Path_4051-2" data-name="Path 4051" d="M173.031,18.7A7.039,7.039,0,0,1,166,11.669c0-2.724,3.66-8.337,6.136-11.272a1.208,1.208,0,0,1,1.79,0c2.476,2.935,6.136,8.549,6.136,11.272A7.039,7.039,0,0,1,173.031,18.7Z" transform="translate(-153.29 2.5)" fill="url(#radial-gradient)"/>
      </g>
    </g>
    <g transform="matrix(1, 0, 0, 1, 56.5, -2.5)" filter="url(#Subtraction_13)">
      <path id="Subtraction_13-2" data-name="Subtraction 13" d="M13062.721-539.133a1.176,1.176,0,0,1-.687-.221,1.178,1.178,0,0,1-.485-.952v-8.848l-10.154-9.025a1.176,1.176,0,0,1-.395-.877V-561.4a1.174,1.174,0,0,1,1.173-1.172h5.677a9.842,9.842,0,0,0,3.5,3.453,9.742,9.742,0,0,0,4.888,1.314,9.733,9.733,0,0,0,4.886-1.314,9.84,9.84,0,0,0,3.5-3.453h5.68a1.173,1.173,0,0,1,1.172,1.172v2.344a1.18,1.18,0,0,1-.394.877l-10.154,9.025v6.5a1.173,1.173,0,0,1-.8,1.113l-7.029,2.344A1.167,1.167,0,0,1,13062.721-539.133Z" transform="translate(-13046.5 581.63)" fill="url(#radial-gradient-2)"/>
    </g>
  </g>
</svg>
