<svg xmlns="http://www.w3.org/2000/svg" xmlns:xlink="http://www.w3.org/1999/xlink" width="39.469" height="49.031" viewBox="0 0 39.469 49.031">
  <defs>
    <radialGradient id="radial-gradient" cx="0.203" cy="1.048" r="1.482" gradientTransform="matrix(0.997, -0.076, 0.067, 0.881, -0.07, 0.14)" gradientUnits="objectBoundingBox">
      <stop offset="0" stop-color="#fff" stop-opacity="0.604"/>
      <stop offset="1" stop-color="#fff" stop-opacity="0.133"/>
    </radialGradient>
    <filter id="Path_4044" x="2.344" y="8.968" width="34.781" height="35.706" filterUnits="userSpaceOnUse">
      <feOffset dy="2" input="SourceAlpha"/>
      <feGaussianBlur stdDeviation="1.5" result="blur"/>
      <feFlood flood-opacity="0.4"/>
      <feComposite operator="in" in2="blur"/>
      <feComposite in="SourceGraphic"/>
    </filter>
    <radialGradient id="radial-gradient-2" cx="0.516" cy="0.318" r="0.676" gradientTransform="matrix(-0.017, 1, -1.574, -0.027, 1.025, -0.189)" gradientUnits="objectBoundingBox">
      <stop offset="0" stop-color="#fff" stop-opacity="0.302"/>
      <stop offset="1" stop-color="#fff"/>
    </radialGradient>
    <radialGradient id="radial-gradient-3" cx="0.5" cy="0.5" r="1.011" gradientTransform="translate(0 -0.362) scale(1 1.724)" gradientUnits="objectBoundingBox">
      <stop offset="0" stop-color="#fff"/>
      <stop offset="1" stop-color="#fff" stop-opacity="0.302"/>
    </radialGradient>
    <filter id="Path_4050" x="0" y="4.688" width="39.469" height="11.344" filterUnits="userSpaceOnUse">
      <feOffset dy="2" input="SourceAlpha"/>
      <feGaussianBlur stdDeviation="1.5" result="blur-2"/>
      <feFlood flood-opacity="0.4"/>
      <feComposite operator="in" in2="blur-2"/>
      <feComposite in="SourceGraphic"/>
    </filter>
    <filter id="Path_4050-2" x="0" y="37.688" width="39.469" height="11.344" filterUnits="userSpaceOnUse">
      <feOffset dy="2" input="SourceAlpha"/>
      <feGaussianBlur stdDeviation="1.5" result="blur-3"/>
      <feFlood flood-opacity="0.4"/>
      <feComposite operator="in" in2="blur-3"/>
      <feComposite in="SourceGraphic"/>
    </filter>
    <linearGradient id="linear-gradient" x1="0.5" y1="1" x2="0.5" y2="0" gradientTransform="matrix(1, 0, 0, 1, 0, 0)" xlink:href="#radial-gradient-2"/>
    <filter id="Path_4043" x="16.854" y="0" width="17.928" height="13.688" filterUnits="userSpaceOnUse">
      <feOffset dy="2" input="SourceAlpha"/>
      <feGaussianBlur stdDeviation="1.5" result="blur-4"/>
      <feFlood flood-opacity="0.4"/>
      <feComposite operator="in" in2="blur-4"/>
      <feComposite in="SourceGraphic"/>
    </filter>
  </defs>
  <g id="oil-barrel" transform="translate(-56.5 2.5)">
    <g id="Group_40" data-name="Group 40" transform="translate(63.344)">
      <g transform="matrix(1, 0, 0, 1, -6.84, -2.5)" filter="url(#Path_4044)">
        <path id="Path_4044-2" data-name="Path 4044" d="M91,105.056h25.781v26.706H91Z" transform="translate(-84.16 -93.59)" fill="url(#radial-gradient)"/>
      </g>
    </g>
    <g id="Barrel_2_" transform="translate(61 12.433)">
      <path id="Path_4045" data-name="Path 4045" d="M180.063,155.22c0-3.161-4.7-8.979-6.136-10.686a1.208,1.208,0,0,0-1.79,0C170.7,146.241,166,152.059,166,155.22a7.027,7.027,0,0,0,5.859,6.913,5.16,5.16,0,0,0,2.344,0A7.027,7.027,0,0,0,180.063,155.22Z" transform="translate(-157.797 -144.137)" fill="url(#radial-gradient-2)"/>
    </g>
    <g transform="matrix(1, 0, 0, 1, 56.5, -2.5)" filter="url(#Path_4050)">
      <path id="Path_4050-3" data-name="Path 4050" d="M90.3,62.344H62.172a1.172,1.172,0,0,1,0-2.344H90.3a1.172,1.172,0,0,1,0,2.344Z" transform="translate(-56.5 -52.81)" fill="url(#radial-gradient-3)"/>
    </g>
    <g id="Group_47" data-name="Group 47" transform="translate(61 37.688)">
      <g transform="matrix(1, 0, 0, 1, -4.5, -40.19)" filter="url(#Path_4050-2)">
        <path id="Path_4050-4" data-name="Path 4050" d="M90.3,62.344H62.172a1.172,1.172,0,0,1,0-2.344H90.3a1.172,1.172,0,0,1,0,2.344Z" transform="translate(-56.5 -19.81)" fill="url(#radial-gradient-3)"/>
      </g>
      <g transform="matrix(1, 0, 0, 1, -4.5, -40.19)" filter="url(#Path_4043)">
        <path id="Path_4043-2" data-name="Path 4043" d="M285.656,1.172A1.171,1.171,0,0,0,284.484,0H279.8a1.172,1.172,0,0,0-1.048.648l-2.02,4.04h8.927Z" transform="translate(-255.37 2.5)" fill="url(#linear-gradient)"/>
      </g>
    </g>
  </g>
</svg>
