<svg xmlns="http://www.w3.org/2000/svg" xmlns:xlink="http://www.w3.org/1999/xlink" width="49" height="46.5" viewBox="0 0 49 46.5">
  <defs>
    <radialGradient id="radial-gradient" cx="0.5" cy="0.152" r="0.707" gradientTransform="translate(0 -0.069) scale(1 1.453)" gradientUnits="objectBoundingBox">
      <stop offset="0" stop-color="#4c8e2d" stop-opacity="0.302"/>
      <stop offset="1" stop-color="#4c8e2d"/>
    </radialGradient>
    <filter id="Ellipse_20" x="0" y="26.5" width="49" height="20" filterUnits="userSpaceOnUse">
      <feOffset dy="2" input="SourceAlpha"/>
      <feGaussianBlur stdDeviation="1.5" result="blur"/>
      <feFlood flood-color="#005c12" flood-opacity="0.4"/>
      <feComposite operator="in" in2="blur"/>
      <feComposite in="SourceGraphic"/>
    </filter>
    <radialGradient id="radial-gradient-2" cy="0.023" r="0.802" gradientTransform="matrix(0, 1, 1.338, 0, 0.47, -0.477)" xlink:href="#radial-gradient"/>
  </defs>
  <g id="_323" data-name="323" transform="translate(4.5 0)">
    <g transform="matrix(1, 0, 0, 1, -4.5, 0)" filter="url(#Ellipse_20)">
      <ellipse id="Ellipse_20-2" data-name="Ellipse 20" cx="20" cy="5.5" rx="20" ry="5.5" transform="translate(4.5 29)" fill="url(#radial-gradient)"/>
    </g>
    <path id="Path_4082" data-name="Path 4082" d="M32.046,3.672h0a12.537,12.537,0,0,0-17.728,0h0C9.907,8.083,9.411,16.389,13.154,21.38L23.182,35.863,33.21,21.38C36.954,16.389,36.457,8.083,32.046,3.672ZM23.3,16.552a4.138,4.138,0,1,1,4.138-4.138A4.138,4.138,0,0,1,23.3,16.552Z" transform="translate(-3.304)" fill="url(#radial-gradient-2)"/>
  </g>
</svg>
