<svg xmlns="http://www.w3.org/2000/svg" width="20.567" height="15.104" viewBox="0 0 20.567 15.104">
  <g id="email_6_" data-name="email (6)" transform="translate(0 -68)">
    <g id="Group_2" data-name="Group 2" transform="translate(0 68)">
      <g id="Group_1" data-name="Group 1" transform="translate(0 0)">
        <path id="Path_713" data-name="Path 713" d="M18.156,68H2.41A2.413,2.413,0,0,0,0,70.41V80.693A2.413,2.413,0,0,0,2.41,83.1H18.156a2.413,2.413,0,0,0,2.41-2.41V70.41A2.413,2.413,0,0,0,18.156,68Zm.8,12.693a.8.8,0,0,1-.8.8H2.41a.8.8,0,0,1-.8-.8V70.41a.8.8,0,0,1,.8-.8H18.156a.8.8,0,0,1,.8.8Z" transform="translate(0 -68)" fill="#a0a0a0"/>
      </g>
    </g>
    <g id="Group_4" data-name="Group 4" transform="translate(0.784 69.001)" opacity="0.5">
      <g id="Group_3" data-name="Group 3" transform="translate(0 0)">
        <path id="Path_714" data-name="Path 714" d="M37.562,92.937l-8.541,6.347-8.541-6.347-.959,1.288,9.5,7.06,9.5-7.06Z" transform="translate(-19.522 -92.937)" fill="#a0a0a0"/>
      </g>
    </g>
  </g>
</svg>
