<svg xmlns="http://www.w3.org/2000/svg" width="13.903" height="17.352" viewBox="0 0 13.903 17.352">
  <g id="location" transform="translate(-50.885)">
    <path id="Path_4029" data-name="Path 4029" d="M164.168,110.062a3.221,3.221,0,1,0,3.221,3.221A3.225,3.225,0,0,0,164.168,110.062Zm0,5.086a1.865,1.865,0,1,1,1.865-1.865A1.867,1.867,0,0,1,164.168,115.148Z" transform="translate(-106.332 -106.332)" fill="#a0a0a0"/>
    <path id="Path_4030" data-name="Path 4030" d="M57.836,0a6.959,6.959,0,0,0-6.951,6.951v.192c0,1.938,1.111,4.2,3.3,6.714a28.575,28.575,0,0,0,3.222,3.15l.426.344.426-.344a28.567,28.567,0,0,0,3.222-3.15c2.192-2.517,3.3-4.776,3.3-6.714V6.951A6.959,6.959,0,0,0,57.836,0Zm5.595,7.143c0,3.276-4.221,7.242-5.595,8.445-1.374-1.2-5.595-5.17-5.595-8.445V6.951a5.595,5.595,0,1,1,11.19,0Z" fill="#a0a0a0"/>
  </g>
</svg>
