<svg xmlns="http://www.w3.org/2000/svg" xmlns:xlink="http://www.w3.org/1999/xlink" width="23.724" height="29.002" viewBox="0 0 23.724 29.002">
  <defs>
    <radialGradient id="radial-gradient" cx="0.255" cy="0.086" r="1.318" gradientTransform="matrix(1, 0, 0, 0.741, 0, 0.022)" gradientUnits="objectBoundingBox">
      <stop offset="0" stop-color="#fff" stop-opacity="0.184"/>
      <stop offset="1" stop-color="#fff"/>
    </radialGradient>
    <filter id="германия" x="0" y="0" width="23.724" height="29.002" filterUnits="userSpaceOnUse">
      <feOffset dy="2" input="SourceAlpha"/>
      <feGaussianBlur stdDeviation="1.5" result="blur"/>
      <feFlood flood-color="#00325c" flood-opacity="0.4"/>
      <feComposite operator="in" in2="blur"/>
      <feComposite in="SourceGraphic"/>
    </filter>
  </defs>
  <g transform="matrix(1, 0, 0, 1, 0, 0)" filter="url(#германия)">
    <path id="германия-2" data-name="германия" d="M9704.784,1221.514c.01-.058-.017-.088-.078-.08-.044.007-.088.017-.141.029a.551.551,0,0,1,0-.09.183.183,0,0,0-.117-.2.1.1,0,0,1-.039-.034c-.022-.027-.039-.056-.057-.08l-.192-.02c-.007-.017-.012-.034-.02-.051-.021-.063-.07-.076-.122-.034a.344.344,0,0,0-.026.032.188.188,0,0,1-.254.073.5.5,0,0,1-.1-.049c-.083-.051-.171-.1-.252-.158a.834.834,0,0,0-.509-.134.55.55,0,0,0-.1.027.43.43,0,0,1-.124.017.109.109,0,0,1-.059-.046c-.061-.112-.093-.122-.2-.063-.024-.039-.024-.039-.02-.112-.026,0-.044-.022-.061-.044s-.049-.061-.1-.027c-.022-.015-.047-.044-.073-.046s-.046.027-.068.041c-.007,0-.01.012-.017.012-.11,0-.142.107-.2.171a.09.09,0,0,0,.02.144.128.128,0,0,0,.153.022.426.426,0,0,1,.112-.027c-.01.044-.015.076-.02.11-.088-.063-.1-.063-.183,0a.183.183,0,0,1-.225,0,.181.181,0,0,0-.227-.029.8.8,0,0,0-.114.076.327.327,0,0,1-.256.041c-.018,0-.029-.022-.044-.036a.137.137,0,0,0-.192.007.269.269,0,0,1-.22.063c0-.042,0-.068.007-.107-.082.017-.111-.036-.144-.093a.242.242,0,0,0-.041-.066.111.111,0,0,1-.018-.129.363.363,0,0,0,.013-.1.336.336,0,0,1,0-.1.751.751,0,0,0,.051-.19.338.338,0,0,1,.066-.173.111.111,0,0,0,0-.139.375.375,0,0,1,.039-.427.636.636,0,0,0,.109-.241.123.123,0,0,1,.034-.058.117.117,0,0,0,.042-.132.418.418,0,0,1,.07-.319.161.161,0,0,0,.022-.11.274.274,0,0,1,.106-.28.568.568,0,0,0,.156-.176.885.885,0,0,1,.146-.139.27.27,0,0,0,.068-.071c.051-.112.095-.229.148-.356l-.078-.032a2.285,2.285,0,0,1-.229-.093.772.772,0,0,0-.234-.068,2.129,2.129,0,0,0-.329-.01.025.025,0,0,0-.01,0c-.088-.078-.241-.071-.271-.219a.1.1,0,0,0-.034-.056.273.273,0,0,0-.109-.039.129.129,0,0,0-.088.032c-.057.049-.1.11-.19.1a.365.365,0,0,1-.207-.051s-.018,0-.044-.012l-.029.063c-.021-.015-.031-.019-.036-.027a.055.055,0,0,1-.013-.027c-.01-.034,0-.083-.026-.1a.8.8,0,0,0-.151-.071h-.02c-.127-.017-.124-.017-.127.1,0,0-.007.012-.015.027a.571.571,0,0,1-.109-.015.077.077,0,0,1-.049-.051.18.18,0,0,0-.044-.1c-.063-.083-.119-.173-.186-.268.032-.046.013-.093-.036-.134a.075.075,0,0,1-.022-.032c-.046-.134-.163-.158-.29-.183a.461.461,0,0,1,.071-.327.1.1,0,0,0,.017-.024.254.254,0,0,1,.125-.195c.014-.007.017-.042.021-.063s0-.073,0-.11c0-.1,0-.11-.1-.124a.591.591,0,0,1-.231-.117.333.333,0,0,1-.156-.195.08.08,0,0,0-.018-.024.406.406,0,0,1-.095-.429c.012-.046,0-.1.054-.132a.058.058,0,0,0,.012-.054.1.1,0,0,1,.073-.122c.057-.022.1-.044.112-.112,0-.015.039-.029.061-.032.1-.015.11-.039.068-.129a.189.189,0,0,1-.021-.093.245.245,0,0,0-.02-.18.428.428,0,0,1-.018-.076.7.7,0,0,0-.144-.024.08.08,0,0,1-.085-.063.083.083,0,0,1,.021-.107c.039-.032.088-.061.086-.124a.368.368,0,0,1-.127-.051c-.032-.027-.044-.078-.068-.117-.034-.061-.073-.122-.166-.1-.017-.042-.031-.08-.044-.122a.21.21,0,0,1,.054-.18.125.125,0,0,0,0-.212c-.051-.036-.041-.085-.056-.141l-.178-.024a.188.188,0,0,1-.037-.144.279.279,0,0,1,.049.022.06.06,0,0,0,.1-.024.531.531,0,0,1,.227-.2.143.143,0,0,0,.073-.173l-.112.032c-.007-.02-.024-.042-.02-.058a.382.382,0,0,1,.042-.117c.051-.08.109-.156.163-.236a.158.158,0,0,0,.024-.073c0-.1,0-.2,0-.3a.2.2,0,0,0-.059-.134c-.029-.034-.056-.073-.085-.11a.141.141,0,0,1-.034-.129.065.065,0,0,0-.044-.085c-.049-.022-.083-.049-.075-.112s-.057-.073-.105-.1a.151.151,0,0,0-.021-.178,1.069,1.069,0,0,1,.166-.073.946.946,0,0,1,.178-.015l-.059-.1s.007-.007.01,0c.1.044.2.085.3.134s.086.046.149-.036a.159.159,0,0,0,.17-.037.467.467,0,0,1,.264-.08c.129,0,.166-.1.222-.185.01-.015,0-.054-.017-.071a.639.639,0,0,0-.1-.08.649.649,0,0,0-.095-.051c.063-.076.1-.161.207-.176.027,0,.054-.034.076-.054s.026-.054.046-.063c.09-.034.129-.124.2-.176a.087.087,0,0,0,.032-.088.269.269,0,0,1,0-.134.291.291,0,0,0-.037-.324.567.567,0,0,1-.054-.08.226.226,0,0,1-.246.01c-.015,0-.026-.007-.039-.01-.158-.034-.158-.034-.168-.2l.078-.066a.448.448,0,0,1-.037-.066.084.084,0,0,1,.071-.129,1.08,1.08,0,0,1,.178,0,1.668,1.668,0,0,1,.188.019c.052.007.073-.019.083-.063s.015-.1.02-.146,0-.093,0-.139a.586.586,0,0,1,.1-.346.683.683,0,0,0,.109-.6.249.249,0,0,1,.008-.146.251.251,0,0,0,.015-.085.274.274,0,0,1,.044-.18c.015-.015.012-.042.017-.066.017-.071.044-.085.112-.066l.07.022a.064.064,0,0,0-.054-.083.507.507,0,0,0-.124-.022c-.075,0-.151,0-.227,0s-.107-.027-.112-.1a.584.584,0,0,1,.056-.349c.047-.015.11,0,.127-.068s-.049-.078-.08-.129a1.038,1.038,0,0,0,.1-.107.545.545,0,0,1,.437-.175.042.042,0,0,1,.029,0c.068.049.139.022.21.01.163-.027.326-.054.487-.076a.287.287,0,0,1,.209.024.385.385,0,0,0,.13.285.454.454,0,0,1,.083.117.066.066,0,0,1-.01.058.167.167,0,0,1-.068.034c-.039.012-.078.022-.068.078s.039.122.083.117a.132.132,0,0,1,.114.063c.068.078.127.076.181-.01a.5.5,0,0,0,.046-.1c.039-.124.015-.171-.117-.2a.932.932,0,0,1,.027-.134c.02-.061.1-.085.132-.034a.35.35,0,0,0,.268.144c.01,0,.015.012.034.024-.114.11-.093.251-.09.39a.487.487,0,0,0,.021.08h.024a.206.206,0,0,0,.018-.066,1.325,1.325,0,0,0-.008-.139.192.192,0,0,1,.063-.178.132.132,0,0,0,.022-.156c-.032-.08-.062-.161-.091-.241a.3.3,0,0,1,.008-.2c.029-.083.051-.168.08-.254a.528.528,0,0,1,.065-.132.086.086,0,0,1,.145-.01.422.422,0,0,0,.422.11l.168-.046a.709.709,0,0,1,.312-.017.132.132,0,0,1,.076.054c.036.051.061.11.095.163.049.071.1.136.153.207.015.022.029.049.044.076a.57.57,0,0,0,.554.368c.021-.036.01-.061-.015-.073a.368.368,0,0,0-.11-.039.546.546,0,0,1-.194-.068.234.234,0,0,1-.127-.21.141.141,0,0,0-.093-.149.23.23,0,0,1-.124-.19.145.145,0,0,0-.078-.117.362.362,0,0,1-.07-.056.347.347,0,0,0-.237-.085c-.061,0-.121-.017-.183-.024a.1.1,0,0,0-.059,0c-.056.032-.088,0-.119-.039a1.236,1.236,0,0,1-.153-.285c.041-.042.075-.027.114-.01.1.049.124.032.158-.076s-.041-.168-.078-.244c-.007-.015-.048-.017-.072-.015s-.068.022-.107.034a.16.16,0,0,1-.039-.188.256.256,0,0,0,.024-.066c0-.049.026-.068.07-.08a.156.156,0,0,0,.1-.156.874.874,0,0,0-.153.027c-.09.039-.2.007-.285.066-.036.027-.095-.012-.119-.073s-.01-.078.044-.1a.35.35,0,0,1,.046-.017c.013,0,.024-.007.034-.012,0-.061-.054-.051-.08-.088a.471.471,0,0,1,.178-.042.546.546,0,0,1,.109,0,.241.241,0,0,0,.166-.058.644.644,0,0,1,.061-.049c.112-.073.127-.151.042-.251-.059-.073-.124-.144-.186-.214a.089.089,0,0,1-.024-.042.427.427,0,0,0-.194-.275.109.109,0,0,1-.062-.1.335.335,0,0,0-.041-.11.259.259,0,0,1-.01-.214,1.508,1.508,0,0,1,.2-.046.476.476,0,0,1,.166.01c.134.034.266.076.4.112.051.012.093.029.1.09.007.044.044.061.09.063a.819.819,0,0,0,.134-.015.534.534,0,0,1,.166-.012c.034,0,.076-.037.112-.056s.051-.037.075-.056c.013.071.068.083.12.09a.339.339,0,0,1,.268.144.082.082,0,0,0,.068.02.579.579,0,0,0,.117-.066c.085.032.063.127.1.19-.034.034-.09.039-.095.107.029,0,.059.007.085.01a.072.072,0,0,1,.073.066.558.558,0,0,1-.036.283.243.243,0,0,1-.163.134l-.105.034a.093.093,0,0,0,.12.066l.231-.054a.582.582,0,0,1,.087-.02.1.1,0,0,1,.112.1c0,.073.018.141-.049.2-.036.034-.01.093,0,.151.029-.017.049-.022.059-.036a.2.2,0,0,0,.044-.088c.007-.112.1-.139.173-.178a.147.147,0,0,1,.112.017c.093.046.185.1.275.151a.871.871,0,0,1,.142.1.194.194,0,0,0,.3.007c.029-.024.054-.051.083-.073a.171.171,0,0,1,.192-.039c.062.029.107-.012.178-.041-.024.032-.031.051-.044.058-.031.02-.029.046-.026.078,0,.093.01.185.017.275a.167.167,0,0,1-.08.161c-.065.051-.129.112-.2.161a.344.344,0,0,1-.117.046.233.233,0,0,0-.142.149.181.181,0,0,0,.1.149.191.191,0,0,1,.126.083c.022.039.071.017.105-.01a.517.517,0,0,1,.251-.11.17.17,0,0,1,.207.139c.01.049.036.071.085.051a.183.183,0,0,1,.223.073.354.354,0,0,0,.058.032c.027-.09.047-.166.071-.241a.167.167,0,0,1,.046-.08.486.486,0,0,0,.115-.119.3.3,0,0,0,.061-.132.145.145,0,0,1,.178-.117.723.723,0,0,0,.205-.007c.1-.015.207-.041.324-.066a.619.619,0,0,0,0,.1.15.15,0,0,0,.036.093c.008-.012.022-.027.02-.039a.1.1,0,0,1,.039-.112.05.05,0,0,0,.015-.037c-.012-.107.062-.156.137-.2s.129-.08.2-.127a.573.573,0,0,0,.044.1.083.083,0,0,0,.114.024c-.041-.08-.034-.076.018-.144a1.868,1.868,0,0,1,.161-.163s.007-.015.012-.015a.911.911,0,0,1,.324-.024.15.15,0,0,1,.041.029.1.1,0,0,0,.161-.032.258.258,0,0,1,.158-.141l.112.154c.02.073.039.151.063.229a.144.144,0,0,0,.052.056.434.434,0,0,0,.114.054.274.274,0,0,1,.2.232h.075c.042.058.078.122.125.178.017.022.051.029.093.049,0-.044,0-.071,0-.1l.287-.1.181.139c-.027.063-.052.122-.078.18a1.136,1.136,0,0,0,.236.288c-.024.024-.046.054-.068.078a.684.684,0,0,0-.068.071.049.049,0,0,0,.008.078,1.456,1.456,0,0,0,.329.246.657.657,0,0,0,.185.063.729.729,0,0,0,.186-.024c.022.049-.056.054-.056.1a.146.146,0,0,1,.065.146.21.21,0,0,0,.024.076.415.415,0,0,1,.026.183.3.3,0,0,0,.037.183.592.592,0,0,1,.073.224c.012.107.036.214.056.322a.056.056,0,0,0,0,.017c.068.078.037.141-.02.207a.169.169,0,0,0-.02.1.407.407,0,0,1-.219.436c-.037.022-.073.046-.11.071a.08.08,0,0,0-.039.1.562.562,0,0,1,.013.068.135.135,0,0,1-.018.122c-.041.063-.029.1.032.124a1.275,1.275,0,0,1,.346.241,1.48,1.48,0,0,1,.154.193.391.391,0,0,0,.07.054,1.752,1.752,0,0,1,.158.144.1.1,0,0,1,0,.08.192.192,0,0,0,0,.134.123.123,0,0,1-.059.136c-.086.061-.078.137-.054.222.02.063.036.124.054.19a.149.149,0,0,0,.095.093c.1.046.093.044.09.149,0,.066-.01.129-.017.195,0,.027.02.058.036.085a.277.277,0,0,0,.059.056c-.017.051-.036.1-.051.151a.629.629,0,0,0-.034.163.3.3,0,0,1-.088.212c-.017.017-.034.034-.049.051a.128.128,0,0,0,0,.188s0,0,0,.007a1.06,1.06,0,0,0,.186.317.163.163,0,0,1,0,.19.18.18,0,0,0-.021.044.113.113,0,0,0,.068.161l.227.1a.115.115,0,0,1,.085.127.629.629,0,0,0,0,.129.283.283,0,0,0,.059.176.212.212,0,0,1,.034.2c-.029.134-.051.271-.093.4a1.35,1.35,0,0,1-.187.424.309.309,0,0,0-.046.117c-.029.1-.073.122-.166.068a.384.384,0,0,0-.059-.036c-.054-.02-.059-.051-.041-.1.034-.1.024-.1-.088-.1a.346.346,0,0,1,.01-.054.133.133,0,0,0-.073-.158,1.024,1.024,0,0,1-.086-.068c-.033,0-.07.017-.109.02a.1.1,0,0,1-.065-.01c-.127-.068-.183-.046-.222.093a.154.154,0,0,0,0,.036c.059.046.119.093.178.141a.059.059,0,0,1,.022.042c-.01.017-.034.049-.044.046-.119-.032-.192.051-.28.1a.7.7,0,0,1-.295.107.172.172,0,0,0-.173.129c-.013.056-.063.058-.112.063-.117.012-.234.022-.354.039a.113.113,0,0,0-.117.107.355.355,0,0,1-.075.146c-.022.032-.054.032-.088,0-.062-.049-.073-.046-.127,0a.122.122,0,0,0-.034.037.055.055,0,0,1-.073.032c-.046-.015-.065.012-.08.049a.36.36,0,0,0-.024.066.116.116,0,0,1-.127.09.944.944,0,0,1-.117.007c-.051,0-.07.015-.078.063a.311.311,0,0,1-.039.119c-.029.049-.058.051-.109.024-.02-.01-.039-.022-.059-.034a.19.19,0,0,0-.256.037.119.119,0,0,1-.1.036.852.852,0,0,0-.176.012.107.107,0,0,0-.07.034,1.382,1.382,0,0,0-.3.407,1.361,1.361,0,0,0-.02.149l-.065-.195c-.008-.015-.01-.042-.02-.044-.068-.015-.083-.071-.114-.119a.109.109,0,0,0-.142-.02c.017.056.041.112,0,.168-.007.007,0,.037.013.051a.125.125,0,0,0,.044.039.175.175,0,0,1,.093.183.142.142,0,0,0,.063.146.065.065,0,0,1,.029.036c.008.073.063.1.117.124s.1.061.156.085.1.044.095.117c0,.015.018.034.032.046.054.056.061.076.026.139s-.09.112-.09.193c0,.015-.032.029-.049.044-.054.044-.063.073-.027.127a.847.847,0,0,0,.1.1c.02.017.056.034.056.051,0,.115.112.18.115.29a.45.45,0,0,1,.111.249.132.132,0,0,0,.066.071.266.266,0,0,1,.112.119c.051.107.114.129.233.1a.094.094,0,0,1,.073,0,.684.684,0,0,1,.1.1c.029.034.054.073.081.11.056.08.117.161.17.244a.16.16,0,0,0,.122.09c.14.01.188.112.234.222a.411.411,0,0,0,.065.117c.076.078.1.076.181,0a.2.2,0,0,1,.142.122.156.156,0,0,0,.112.1.147.147,0,0,1,.1.088c.02.042.042.083.062.124.01.017.024.042.017.054-.039.1,0,.188,0,.28a.194.194,0,0,1-.093.2.339.339,0,0,0-.061.068.963.963,0,0,0-.117-.078.408.408,0,0,0-.132-.042.352.352,0,0,0-.124.007.073.073,0,0,0-.056.093.641.641,0,0,1-.039.339.39.39,0,0,1-.278.232c-.041.012-.085.015-.127.024a.636.636,0,0,0-.282.134.86.86,0,0,1-.153.085.317.317,0,0,0-.062.034c-.054.051-.1.107-.16.158a.092.092,0,0,0-.022.124.63.63,0,0,0,.044.066.424.424,0,0,1,.124.188.108.108,0,0,0,.044.054.39.39,0,0,1,.137.188.129.129,0,0,1-.01.146c-.029.054-.056.112-.08.168s-.008.083.046.095a.288.288,0,0,0,.078,0c.083,0,.124.027.134.107a.211.211,0,0,1-.017.115.475.475,0,0,0-.044.222c0,.078-.015.093-.093.076a.324.324,0,0,1-.114-.051c-.049-.034-.093-.076-.14-.11a.065.065,0,0,1-.024-.078c.013-.024.024-.049.037-.071-.032-.044-.063-.088-.1-.139a.274.274,0,0,0-.3.046c-.066.056-.135.036-.181-.044s-.044-.068-.122-.056a.646.646,0,0,1-.1,0h-.1c0-.029-.01-.056-.013-.085-.1.017-.121.044-.087.132s0,.144-.1.144-.192,0-.287,0a.29.29,0,0,0-.2.054.089.089,0,0,1-.054.017c-.073,0-.146-.01-.217-.017a.121.121,0,0,0-.146.088c-.039.1-.061.112-.161.1s-.155.029-.173.124l-.207.132c-.056-.08-.073-.088-.153-.029a.344.344,0,0,1-.241.042.642.642,0,0,0-.073-.124.6.6,0,0,0-.1-.085c0-.032.013-.063,0-.083a.076.076,0,0,0-.1-.024.166.166,0,0,1-.168-.015.817.817,0,0,0-.148-.058.111.111,0,0,0-.112.015c-.093.071-.122.058-.156-.046-.085-.015-.09-.01-.08.066,0,.022,0,.044,0,.066a.475.475,0,0,0,.02.1.192.192,0,0,1-.059.232.491.491,0,0,0-.08.1.273.273,0,0,1-.241.141A1.606,1.606,0,0,0,9704.784,1221.514Zm-5.577-15.888-.1.076C9699.081,1205.646,9699.093,1205.636,9699.207,1205.626Zm.846-.295-.165.022A.167.167,0,0,1,9700.053,1205.332Zm.332-.08.034-.024.007.012-.031.024Zm.368-.066v-.012h.065v.012Zm9.877-.244c.034-.02.051-.032.07-.042.1-.051.119-.1.073-.207a.181.181,0,0,1-.018-.046.145.145,0,0,1,.022-.046c.01.012.026.024.029.039a.161.161,0,0,1,0,.056l.148.027a.315.315,0,0,0,.022-.236c.051.054.1.11.148.166s.093.1.041.171c-.007.012,0,.032,0,.059-.059,0-.114,0-.168.007a.222.222,0,0,0-.08.027.292.292,0,0,1-.158.045A.473.473,0,0,1,9710.63,1204.942Zm-3.811-.441c-.007.088-.109.044-.116.112C9706.7,1204.537,9706.715,1204.522,9706.819,1204.5Zm3.866-.093-.132.049c.008-.024.015-.044.022-.063a.171.171,0,0,0-.032-.21.047.047,0,0,1-.021-.032.067.067,0,0,1,.012-.041c.01,0,.029,0,.044.007a.05.05,0,0,1,.015.027.305.305,0,0,0,.186.2l-.083.166C9710.69,1204.474,9710.688,1204.447,9710.686,1204.408Zm.283.073h0v0Zm-.068-.056c.026.022.049.039.068.056h-.009C9710.932,1204.481,9710.909,1204.469,9710.9,1204.425Zm-1.1-.643a.326.326,0,0,1-.044.017.1.1,0,0,1-.132-.024c-.037-.041-.073-.083-.112-.122-.02-.022-.034-.039-.017-.071s.031-.056.075-.046.085.017.114-.022c-.017-.115-.017-.115-.1-.178l.142-.09a.33.33,0,0,1-.052-.063c-.015-.037-.034-.061-.08-.056a.057.057,0,0,1-.034-.036c0-.015.021-.034.036-.039a.108.108,0,0,1,.117.032c.013.015.024.027.049.051.015-.044.024-.078.034-.112h.015l.026.1.076-.007a.116.116,0,0,0,.168.1.159.159,0,0,0,.029-.163.152.152,0,0,1,0-.066h-.027a1.029,1.029,0,0,1,.148-.036.087.087,0,0,1,.1.066.092.092,0,0,1-.031.107c-.013.01-.024.02-.039.029a.142.142,0,0,0-.073.151c.017.073.044.141.129.156s.1.078.122.132c.015.027,0,.066-.01.1-.01-.1-.041-.122-.132-.11a.628.628,0,0,1-.134,0,.259.259,0,0,0-.2.1c-.034.034-.07.063-.1.1a.321.321,0,0,0-.029.063c.012.022.034.017.051.01s.042-.012.052.029a.175.175,0,0,1-.062.017C9709.832,1203.9,9709.817,1203.864,9709.8,1203.781Zm-1.407-.332c.015-.029.029-.058.047-.09s.029-.063.051-.11a.212.212,0,0,0,.21.076,1.252,1.252,0,0,1,.414.041.569.569,0,0,1-.09.02,1.224,1.224,0,0,1-.166-.022.279.279,0,0,0-.256.059.186.186,0,0,1-.119.05A.22.22,0,0,1,9708.4,1203.45Zm-2.157-.071c-.007-.09-.07-.1-.136-.1-.02-.129.063-.2.178-.168.132.036.178.141.222.261a.253.253,0,0,1-.054,0,.166.166,0,0,0-.144.012l-.012,0C9706.273,1203.4,9706.239,1203.385,9706.239,1203.379Zm-3.678-.151a.068.068,0,0,1,.044-.1.54.54,0,0,1,.109-.01l.013.027a.606.606,0,0,1-.068.08.077.077,0,0,1-.051.018A.054.054,0,0,1,9702.562,1203.228Zm-.352-.058c0-.022-.01-.051,0-.061a.492.492,0,0,1,.1-.063.1.1,0,0,1-.044.119.077.077,0,0,1-.034,0A.027.027,0,0,0,9702.21,1203.169Zm7.783-.188.091,0-.091.015Zm-.3-.022a.528.528,0,0,1,.039-.093c.039-.078.031-.1-.066-.115a.753.753,0,0,1,.273-.073c-.032.051-.078.093-.068.158a.034.034,0,0,1-.015.022c-.047.039-.093.078-.142.117Zm-7.983-.29a.158.158,0,0,1,.083.134C9701.737,1202.784,9701.716,1202.743,9701.713,1202.67Zm.173-.1a.172.172,0,0,1,.218-.066c.044.024.044.061,0,.136C9702.027,1202.626,9701.939,1202.653,9701.886,1202.567Zm-.18-.456c-.018-.071.029-.132.054-.217.017.178.029.193.168.244Zm.109-.385.051-.058c.013.043,0,.061-.026.061Z" transform="translate(-9693.28 -1199.17)" fill="url(#radial-gradient)"/>
  </g>
</svg>
