<svg xmlns="http://www.w3.org/2000/svg" xmlns:xlink="http://www.w3.org/1999/xlink" width="39.054" height="29.002" viewBox="0 0 39.054 29.002">
  <defs>
    <radialGradient id="radial-gradient" cx="0.424" cy="-0.078" r="0.761" gradientTransform="matrix(1, 0, 0, 1.502, 0, 0.039)" gradientUnits="objectBoundingBox">
      <stop offset="0" stop-color="#fff" stop-opacity="0.184"/>
      <stop offset="1" stop-color="#fff"/>
    </radialGradient>
    <filter id="ukraine" x="0" y="0" width="39.054" height="29.002" filterUnits="userSpaceOnUse">
      <feOffset dy="2" input="SourceAlpha"/>
      <feGaussianBlur stdDeviation="1.5" result="blur"/>
      <feFlood flood-color="#00325c" flood-opacity="0.4"/>
      <feComposite operator="in" in2="blur"/>
      <feComposite in="SourceGraphic"/>
    </filter>
  </defs>
  <g transform="matrix(1, 0, 0, 1, 0, 0)" filter="url(#ukraine)">
    <path id="ukraine-2" data-name="ukraine" d="M19.229,19.921l-.066.006-.027-.016-.025-.1-.031-.04-.022-.011-.079.01-.083-.035-.03.014-.054-.076-.091-.068-.036-.052.036-.019v.043l.012-.011,0,.019.012-.055.027.049-.016-.059.019-.015.129-.031.131.008-.049-.029-.083-.014.037-.026.022-.071-.019-.281.023-.04h0l.007-.069.031,0,.033-.02.023-.05.011-.1-.022-.155.007-.049-.068-.207-.08-.114-.107-.1-.105-.05-.062.053-.076,0-.037.06h-.038l-.052-.061-.071-.024L18.3,18.1l-.141-.173-.129-.117-.132-.084-.085-.017-.164.008-.177.121-.261-.077.031-.033,0-.032-.057-.05.1-.139.076-.062.132-.078.045-.014.022.01.007-.031.131-.078.023.021.024-.013.012.013.031-.054-.01-.018h-.032l.005-.013.147-.122.307-.172.071-.012.027-.052.024-.109.018.032.06.046.039.006.184-.079.122-.119.04.024.011-.023.03-.008v-.029l.02-.013h.016l.011.034.048-.018.011.031h.014L19,16.524l.021,0,.058-.055.04.041.031.006.045.067-.005-.155.026,0,.051-.049.049.01.008-.014-.024-.054-.14-.009-.039.015,0,.015-.032-.011.023-.04-.028-.214.046-.072-.045-.124h0l-.013-.034-.041-.022-.032.053h-.026l-.014.043-.022.005-.023-.016.008.057.076.056-.074-.015-.032.016-.008.052.041.057-.044,0-.05-.041-.055.02-.006.025-.145-.2-.014-.005-.023.022-.009.069-.042-.007,0-.032h.031l.014-.068-.039-.03-.049-.013-.061.016-.014.009v.056l-.016-.009.007-.06.037-.047L18.4,15.8l.032-.1-.037.065-.027-.008.014.035-.021.057-.091.075-.077-.029-.024-.042-.059-.006-.016.018.015.025-.024.037.02.024-.023.009-.082,0-.049.015-.131-.026-.045.014-.1-.031-.041.014-.009.02-.1.023-.04-.018-.082.019-.1.046-.009.023.014.009-.086-.019-.485-.152.037.007.02-.031-.014-.051.006-.012.007.016.015-.005-.014-.036-.053-.015-.023.021.02.015-.019,0-.063-.067H16.61l-.065-.048-.023-.064-.045-.02-.022.022-.1-.017-.033-.033-.018-.05-.074-.016-.032.067-.147-.007-.017.019-.008-.069-.03-.006.01-.027.045-.036.069-.027.149,0,.066-.021.07-.033.025-.046.043,0,.029-.023-.052-.124-.028-.03-.023-.005-.044.034-.033,0-.244-.1.026-.045.04,0,.019-.044.033.014.042-.017.009.019.129.047.1.005.052-.02.081,0,.125.046.1.005.136.035.1-.02.036-.035,0-.021-.039-.005-.062.013-.043.023,0,.018h-.03l-.058-.038.037-.011,0-.017L16.856,15l.061,0-.03-.012-.008-.031.025-.024-.027-.023.023,0,0-.048-.016-.02-.081-.042-.18.081-.059-.132-.082-.005-.116-.1.008-.023h0l-.009.023-.127-.01-.038.061-.146.059-.035-.033-.073-.01-.1-.043-.094,0L15.7,14.7l-.047.077-.054-.044-.053-.018-.109-.007-.024.022-.065-.007-.028.054-.1-.029-.093,0-.093-.04-.269.067-.3.114-.072-.014-.072.032-.038.085.014.039.025.016.009-.012.024.115-.037.162-.052.038-.062.085-.111.229-.1.174-.075.085-.049.1-.173.18-.264.335-.843.68-.129.148-.019.071-.024-.007,0,.016.068.068.023-.02-.013-.02.014-.023.027.025v.031l.014-.025.068-.011.042.023.013-.017.01.011-.023.037.018.05-.026.061.026.173-.042.143.008.089-.041,0-.005.034-.05.01-.014-.014-.029-.087.031-.045-.015-.093-.023-.063L12.4,17.67l-.083-.057-.117-.032-.085-.048-.124.014-.041-.028-.063.051-.083-.014-.032.031-.054.016-.014.031-.044.027-.113.035-.159.1-.038,0-.029.045.007.049-.02.026-.044-.016-.068-.07-.048,0-.041-.042h-.038l-.027.028.039.029-.007.027-.081.041.02.041.046.03,0,.023-.122.041L10.805,18l-.128-.012-.361-.174-.1-.177,0-.115L10.1,17.48l.054-.095.1-.094.134.051.065-.013-.009.031.018.07L10.6,17.4l-.039-.167.094-.022-.048-.2h-.06l.055-.119.045-.046.083.011.008-.028-.018-.068.065.014.14-.037-.015-.085.141-.04L11,16.39l.011-.029L11,16.313l.037-.008-.009-.023.34-.077.043-.106-.092-.116.189-.236-.186-.155.072-.172-.107-.3.158-.012,0-.04-.056,0,0-.023.07-.008L11.471,15l.043-.016.16-.007,0-.068.12-.036.006.14h.016l.01.035-.059.052.041.113-.064.077.056.019.044-.042,0-.027.053-.028.015.021.029-.014-.029-.069.023-.018-.015-.036.046-.022-.008-.053L11.985,15l.082.188-.015-.051.107-.116.085.086-.038.047.039.038.1.017.026.133.036-.006.008.022.116-.017-.021-.175.023-.014.019.035.078-.018.014-.024-.027-.054.023-.013.059.04.024.1.055.042-.023.028.127.077,0-.049.086-.068.081.044.021-.018.04.015.064-.037.053.044.114-.076-.007-.04-.038.045-.014-.036-.018-.013-.014.008-.016-.03,0,.033-.025-.022L13.2,15.2l-.034-.009.013-.036h-.068l0-.027-.051-.016.048-.023-.041,0-.014-.019.018-.04-.023,0V14.99l-.008.024-.018-.008-.017.026h-.015L13,14.988l-.037.037.006-.02h-.025v-.024l-.033,0,.01-.019-.028-.014.01-.013-.022-.032h-.022l.123-.031-.023-.023v-.032L13,14.77l-.02-.112.043-.1V14.4l-.063-.13.042-.029.027,0-.016-.039-.035-.02-.069.05-.034-.073.013-.01-.014-.076-.059.01-.01.021-.149.031-.053-.17-.016.017-.1.005-.015-.08-.11.031-.025-.04.065-.013.009-.181.041-.018-.024-.131-.109.01,0,.044-.028.007-.025-.094-.031.006,0-.031.141-.036-.049-.276.078-.021-.043-.275-.113.019-.031.02v.036l.016.008-.023.014v.059l-.089.041-.01-.039-.042.011-.024-.108.023-.018-.014-.068-.086.024-.033-.188-.075.032-.042.047-.008-.111-.086.089-.016-.063.026-.031-.007-.014-.044.035-.011-.013.049-.041,0-.094-.008-.012-.054.024-.062-.114.115-.042,0-.029.053-.068-.012-.039.037-.034-.043,0,.023-.046v-.055l.018,0-.041-.091.015-.045.056-.034.042-.124-.043-.018-.044.035-.034-.049v-.026l.039-.068.08-.06.009-.029-.1.01V11.6l-.009.028h-.016l-.044-.266-.08,0,.006.028h-.064l-.014.014.02.01,0,.03-.032-.023.012.053-.035.013-.063-.007-.1-.086-.071.05-.073-.1v-.032l-.068-.054.021-.064-.005-.029-.024-.005.022-.017.015-.047-.027-.059-.044,0-.013-.021-.058.018L11,11.011l-.108.026-.016-.049-.051,0,0-.017-.06-.017-.034-.04-.02.014-.021-.017-.065.055-.039.005.024.032-.029.025-.009.044-.006.085.014.026-.059-.019-.072-.122.031-.052-.021-.07-.076-.005-.05.094-.049.01-.026-.017,0-.055.068-.045.031-.056v-.065l-.026-.047-.051.035-.032-.02-.159.09-.032-.024v-.091l-.038-.023-.034,0-.014.041-.041.031-.031,0-.018-.04.023-.113-.025-.05-.04-.022-.173-.017-.095-.077-.039-.109-.085-.037-.059-.068-.071-.027-.1.042-.065-.005L9.063,10.2l.022-.058-.013-.018-.1.056-.051.037-.051.007-.044.1h-.1L8.708,10.3l0-.037-.021-.017-.027-.016v.021l-.017-.019-.005.02-.028-.005-.06.177L8.519,10.4l-.048.017-.035-.038L8.4,10.371l-.045.038-.046.012-.076-.089-.016-.062-.032.033-.08,0,.04.031.015.074-.005.012L8.128,10.4l-.042.008-.015.054-.107-.032,0,.018L7.909,10.4l0-.038-.034-.053-.043.015-.119-.013-.041.049-.046-.028-.021.015.084.123.047.026.025-.019.023.018.012.077-.023.048-.031,0L7.707,10.6l-.027-.049-.028.018-.076-.109-.017,0,.022.068-.032.007,0,.019-.044.032v.019l-.051.056.019.042,0,.024-.023-.007.008.027-.039,0-.018-.018-.022.013,0,.054-.034-.014-.006.024-.038.017L7.2,10.8l-.023.035-.036.01.005.019-.026-.016-.058.035-.021-.026-.024.03L7,10.877l0,.018H6.973l-.01.017.013.045-.06.062-.039.128-.1.076-.025.112-.023.031L6.6,11.4l-.073-.023-.186.043-.06-.015-.017.032-.025.008-.049-.023-.058.016-.025.031-.059.028-.151-.007-.06-.02-.1.03-.457.058-.072.053-.065,0-.017.082-.089.122,0,.044-.031,0-.024.024-.027.062-.08.032-.023-.013-.025.053-.053-.022-.017.022-.126,0-.064.007-.012-.071-.068-.068v-.031l-.024-.031L4.47,11.8,4.4,11.783l-.009-.029-.019-.006-.024.023-.027-.032-.05.005-.005-.031-.051-.028L4.2,11.656l.013-.048-.037-.058-.024-.012-.015-.063-.031,0-.016.014-.027-.049-.03-.007-.02.023-.046,0-.025.023-.125-.047-.069.04-.02.067-.053.029-.041-.028-.073.049-.039,0-.048.025-.06-.051-.134.008-.029-.056L3.2,11.469l-.049.008-.039-.044-.042.02-.01-.018-.04.009L3,11.48l-.1.014-.028.024-.031-.02L2.8,11.4l-.074-.04-.049,0-.137.031-.086-.059-.082.012-.06-.04-.013.059-.044.069-.073-.021-.029-.033-.032,0L2.1,11.346l-.039,0L2.015,11.3h-.03l.005-.044-.072-.02-.02-.023.018-.044-.037-.034,0-.033-.022,0-.013.021-.09-.013-.02-.05-.021-.005-.029.02-.018.042-.041.019.015.023-.03.029.01.031-.021.027.015.019-.029.04.012.01-.009.024-.1,0-.03.035-.071-.053-.019.009L1.315,11.3l-.014.031.031.021.017.078-.086.027-.013-.033L1.168,11.4l-.007-.02.049-.054.026-.1-.022.006L1.2,11.172l-.039-.023-.023-.043,0-.046-.015,0-.016.028L1.1,11.047l-.016.012-.031-.011.006.023-.014.01-.019-.027H.995l-.11.07-.133-.041.013-.023L.746,11l.016-.005-.024-.041-.014,0-.018-.049.012-.048L.653,10.83l-.028-.043v-.028L.6,10.752.6,10.732l-.024-.014-.049.031-.041-.026-.053.005L.4,10.763l-.069-.109,0-.068-.039-.044L.3,10.474l-.085-.019-.044-.062.04-.061-.046,0-.049-.038-.1.058L0,10.265l.037-.328.038-.091L.129,9.8H.154l.035-.063.086-.074.06-.019L.373,9.52l0-.021L.342,9.476l0-.028.068-.1L.4,9.265.407,9.2.43,9.16l.04-.023.018-.089L.477,9.027l.082-.12.008-.04L.6,8.849l.032.007.041-.024L.665,8.795l.022-.021,0-.122.033-.038L.749,8.6l.064.041.051.08.047.023.03-.029.087.02.024-.026.075.071.03,0,.023.059.072-.014,0-.027-.03-.031.011-.019h0l-.023,0,.013-.031-.015-.037L1.251,8.6,1.2,8.588l-.011-.031-.037.006-.024-.046L1.091,8.5l-.006-.049-.062.012L1,8.445l.028-.06H.994L.968,8.43.949,8.4l.044-.09L1.014,8.3.968,8.288.961,8.263l.011-.028L1,8.22l.019-.175L1.013,7.93.932,7.594l-.058-.02L.837,7.5l.039-.024.055-.112.142-.185.008-.053.025-.038.034-.01.036-.037.043-.073.038-.031.04-.081.07-.058.015-.086L1.428,6.7l.2-.289.165-.194L1.8,6.17l.041-.017L1.9,6.074l0-.044.025,0L1.958,6l.26-.27L2.4,5.608l.091-.136.08-.032L2.6,5.332l.043-.038.133-.044L3,5.225l.1.005L3.1,5.17l.049-.028.084-.251.025-.165-.013-.035.009-.047H3.239l-.012-.023.015-.044-.008-.035L3.2,4.532l.013-.108-.046.009-.043-.019,0-.063.013-.011-.018-.005L3.136,4.3l-.018-.016L3.062,4.3,3.044,4.28l-.019-.049.008-.053.04-.056.03-.016.068,0v.013l.1-.013.055-.044.011-.032-.048-.005L3.242,3.98l-.057-.006-.138-.157-.023-.1-.072-.056.036-.009-.021-.005-.012-.031.025-.027-.029-.01-.006-.084-.041-.022-.015.013-.01-.045-.021-.015.005-.032-.022-.024.009-.024h.023l0-.053-.046-.036-.032,0L2.776,3.2l-.037-.012L2.69,3.127l-.027,0,0-.034-.026-.028V3l-.048-.057V2.917l-.007.012-.049-.013-.01.014-.019-.013L2.518,2.9,2.5,2.869l-.006-.061.031-.021-.01-.01.025-.06.032,0L2.56,2.686l.015-.024-.018-.014L2.6,2.624V2.6L2.583,2.59,2.6,2.579H2.581l-.023-.032.013-.03-.059-.01,0-.033.045-.033L2.546,2.41l-.017-.02L2.495,2.4l-.032-.03,0-.04.007.02.071.014.019-.018-.066-.122.038-.043.006-.038-.052-.03-.041-.083.095-.046.023-.033.053.01.119-.045.017.02,0,.054.058-.018.141.038-.056.064.005.045L2.966,2.1l.123.047.041-.055.089-.051L3.3,1.922l.247-.136L3.623,1.7l-.038-.141.079-.124L3.656,1.4l.081-.06.149,0,.157-.023.1-.033.071.027.074-.01.043.035h.025l.112-.079.019,0L4.5,1.3l.124-.038.022.039H4.7l.054-.053.038-.005.126-.088h.072l.092-.048.055.024.058-.021L5.32,1.2l.109.023.014.02H5.55l.018-.029.041.023.03-.048.1.039.009.026.058.038.066,0,.058.022-.058-.022-.066,0-.057-.039-.01-.025.2.023.086-.022.034.006-.022-.069.021-.005.073.019-.006.038.015.013.174.025L6.4,1.211l.038,0,.06.019.008.028.072.012.077.091.026-.005,0,.036.034-.007.019.015.051-.026.115.008.026.023.1-.006.047-.033,0,.109.041-.005.036.054L7.2,1.53l.005.036.118,0,.021-.041L7.4,1.51,7.4,1.487l.037.014.127,0,.03.033.069.025.014.023-.01.048.058.029.01.025.088-.024.053.046.061,0,.052.032.076-.088.347-.014.012.293L8.5,1.921l.04.034-.048.086,0,.051.161-.007.033-.031.051.027.057.006,0-.022.041-.022.019.035.031-.022.01.014-.016.038.041.024.038-.054-.024,0-.005-.059L8.944,2l.032.037L9,2l.118.084.04-.029.059.011.018.019.051,0,.01.039-.015.067-.068.066,0,.052-.021.009h0l.122.1.038,0,.066-.149.058-.008.024-.021-.039-.091.023-.083-.032-.024L9.5,2.017l.1.037.017.031-.005.072.039-.008.021-.036h.034l-.059.095.16-.02.054-.036.05,0,.047-.075L10,2.075l.026-.043.007-.059.14-.1.017.016-.017.147.041-.006.1.131.018.095.062-.032.129-.112.079.006.013.021.05.007v.027l.168,0-.045.022.005.012.031-.012-.019.019.068.282.03.013.059-.063v.081L11,2.588l.03-.031.005-.06.014-.006-.009-.06L11.011,2.4l.1-.194.05-.011.09-.065.1,0,.012.045.039,0,.05-.039.13-.166.1,0,.015.015-.022.051.034.014-.012.029.049.039.009.065.069.016.013.1-.022.09.034.055v.036l.06.02.033.137-.005.064L12,2.67v0l.037-.047.048-.024.15.036.031-.067,0-.061.037-.089.072.047.04-.032V2.39l.023-.005.018-.031.016.015.023-.017.02.007.007-.023.059-.026.012-.023h.035l.012.04,0,.055-.031.014.03.084.08.041V2.48l.019-.006.018.026.046-.02.059.031.021-.071-.011-.014.02-.019.053-.013.064.049.018-.036.023.008.035-.023.008-.039.17.043.014-.007-.012-.039.011-.005.058.049.021-.059.047.045.074.025.071.059.074.1.028.006-.017.011.028.107-.051.044.013.022.116.118.1.007-.014.088.089-.02L13.965,3l.026.035,0,.04,0,0,0-.04L13.966,3l.124-.062L14.1,2.88l-.032.014.015-.018-.031-.018.05-.049.046-.019-.022-.058.029-.049L14.1,2.56l-.04.011-.014-.015L14.036,2.5,14.1,2.47l0-.017-.053-.03-.012-.066-.023-.023.022-.1-.02-.012-.038.026L13.95,2.2V2.174l.041-.021-.043-.013-.031-.035.017-.02.045.012L14,2.082l-.037-.025,0-.018-.045-.013,0-.03.04-.049-.03-.034.022-.016.034.033.033,0,.01-.042-.021-.076.1-.022.008-.059.034-.065-.014-.013-.04.012-.005-.02.031-.019.04,0,0-.024.026-.035-.03-.076.072-.032.018-.08.053-.047.015-.05.09.012.038-.062-.025-.074.022-.019.035.023.015-.02h-.024V1.13L14.5,1.1l.015.013.028-.007-.006-.038.041-.01-.029-.024.015-.023.024.033.026-.006V1.013L14.589,1,14.6.985,14.589.968l.027-.005L14.6.936l.021,0L14.6.92,14.63.905,14.605.868,14.62.862l.01.028h.016L14.621.829l.031,0,0-.039.021,0,0,.021.042.014.132-.034H14.9l.073-.032L15,.812l.087.021,0,.027.024.03.047.022.071-.027.037-.077L15.251.792l.02-.049.1-.042L15.36.667,15.4.644h.078l.03.059.034.006L15.6.687l.142.031h.112l.069.021.014.031.1-.046.059.04.084-.032.058.021.094.067-.005.028L16.3.871l-.035.008L16.276.9l-.021.008.093-.023.2.051L16.56.9l.057,0,.024-.071.081,0L16.769.8l.049-.009L16.88.746l0-.045.039-.007,0-.03L17.006.63,17,.6l-.062.011.035-.1L16.935.428,16.97.369l.059.005.026-.018-.018-.03L17.05.275h-.035l-.029-.1,0-.041.019-.019.061,0,.055.039.042-.012.04.036.035-.038.067.006.05.068L17.405.2,17.531.3l.03.056L17.652.3l.016.023L17.721.31l.031.014.035-.051.076.014.005.067L17.9.361l.092-.074h.054l.014-.041L18.127.2l.03-.057.018.009,0,.023-.018.011.011.022.076-.062.032-.05.057.013,0-.086.029,0L18.375,0l.013.016L18.407.01l.158.068.022-.012.032.011L18.68.023l.031,0,.037.032,0,.024.025.012h0L18.8.1,18.788.071l.03-.038.015.024.079,0L18.923.1l-.015.023-.031,0-.022.052.129.033.011-.028L18.963.153l.06.032.041-.059.087-.016.034-.025L19.192.06l.052-.014.027.023.1-.039.078.02.03.074-.022.038L19.509.2l.051.016.009-.02.016.01.042.063L19.62.358l.03.006.005.03.063.013.018.066.07.01.016.049-.006.043.094.068L19.9.7l-.035.035.015.04-.06.055.03,0,.031.077-.011.039.01.053.066.022-.011.047.021.038.075,0,.029.076.032.031-.008.024.065.025v.058l-.016.022.025.005.025-.025h.032l.05.05.049.021.017.038.029.008.048.048-.012.1.047.062.007.059-.031.057-.095.027-.094-.021-.031.041-.091.021-.039-.014-.016.022-.069.023-.055-.008-.075.059.013.015.024-.005.011.034.031,0v.02L20,1.977l.026.124.05-.006.007.065.032-.026.033.067,0,.071.061,0,.022.035,0,.02H20.2l0,.08-.037.018-.036.046.012.044-.014.024-.036.006.011.026-.018.007.014.048.038,0,.032.036.033,0-.005.031.027,0,.05.027.007.031-.042.058-.05,0,.011.035-.01.031-.014,0-.007.032-.044.017.018.04-.033.014,0,.022.132.072.035,0,.089-.088.085.041L20.462,3l.067.043.041.005.016-.024h.031l.066.046.037-.053.1.019.014.132.08.063.022-.023.073.017.022-.026.034.033.037.005.005-.033.044-.042.024.017.037-.012.021-.027.044.005.009-.033.06-.044.048,0,.048.033.007.039.036-.031.016-.04.085,0,.043.019-.032.08.01.059-.019.02.023.027.006.051.049.026-.018.038.023.031,0,.024-.03-.005-.012.021.025,0,.041.081.04.017.062-.05.034.02,0-.021.051-.019,0-.014.069.041L22,3.517l.018.03.031.013.006.061-.04.017L22,3.669l-.086-.021.055.1-.04.086.009.022.057.008,0,.017.035.005.016.023.005.031-.037.019.028.04-.025.026.036.022.024.044-.007.119.062.048h.042l.019.015-.028.083.007.021-.036.028.005.021.019,0-.014.039.014.036.042.034L22.19,4.6l-.041-.028-.106.038-.006.032.051.1-.053.061.061.047.012.08.067.109.141.089.013-.026.026.036,0,.166.048.028-.014.023.038.037h.06l.128-.009.105-.111.005-.032-.016-.016.062-.041.009.021.024-.012.027.016.033-.048.062.022.231-.046.157.051.026.076.024-.012.076.118.072.057-.015.038.043.083.117.011.019-.012-.009-.018.054-.025.044-.051.017.047h.069l.025.035.044.008,0,.023.036.011.062-.01.011.025-.029,0,.007.031-.029.032.081.066.065.013.046-.047.02-.076.019.006.025-.031.053-.012.036-.054.105-.031.048-.048.116-.041.152,0,.039.016.1-.016,0-.02.053-.007.024.015.234-.116.035-.069.037-.028.131.012.11-.069.016.007-.009.058-.031.014V5.3l.033.069.032.014.03.042.057.019.031.053.044-.024.059.015-.017.05v.137l-.021.053.044.069,0,.043.109.119.078.13.069-.013.092.067.063.015.055.038.071.153.05.036.014-.007.064.089-.033.019,0,.037.018.027.04-.059.112-.046.005.051.074-.05-.012-.029.051-.024v-.02l.037-.024-.051-.11-.014-.152.154.021.07-.04.027.009,0,.029.039.124-.005.048.107.059.027-.043.06.012,0,.031.022,0,.015.046.064.02.1-.05.054.011.05.045.055-.046,0-.067h.014l.041.05L27.51,6.4l.011.072.049.02.039.072.04.006.031.042h.056l.048.038.083-.013.031.028-.021.026.013.045-.011.01.041.078h.03l.122-.071.071.015.069-.051.042-.069.077-.065.075.125.007.087.033.068.059.058.153.044.112-.054.071.012.087.047.112.012-.018.064.1.24.15.047.1.1.142-.007.056-.021.053-.072.155-.019.029.016.117-.043,0,.05.049.067-.209.123-.016.144.078.14.1.072.082.089-.024.136.068.069-.005.054-.026.014h-.1l-.1.133-.076.02-.149.24,0,.071-.1-.017-.118.005-.064.051-.128-.029-.033.028.018.014-.031.089.021.023.032-.025.04.03.05,0,.01.05.053.07-.024.036.031.034.014-.01.029.022.016.055.029-.038.014.023.11-.014.057.058.064.013L29.7,9.1l.049-.04.039.023.032.1-.167.2-.294-.122-.013.014.008.027-.018,0-.012.031.005.049-.027.035,0,.032-.049,0V9.5l-.021.009,0,.034-.031.014.012.017-.014.02.024.006.005.048-.032.037.015.007,0,.028-.03.014,0,.026-.057.074.046.058.094-.011.013.02.066-.026.026.021.028,0,0,.016.045.023.029.149-.034.021,0,.072.083.062-.011.029.032.036-.006.042.019.014-.019.019.027.039.031-.028-.011.041.019.048-.094.043h-.066l-.014.059.068,0,.014.028.016-.006.023.029-.01.029.015.016.058-.08.027.008-.011-.007.018-.028.022-.007.057.158-.021.028v.045l-.112-.01-.009.118-.045.005L29.528,11l-.048.062-.007.091-.052.031.078.046,0,.022-.18,0,.031.069.035.025-.012.034.017.015v.07l-.021.006-.022.07v.12l-.052.012v.053l-.044.051-.189-.03-.1.005-.032.028-.022-.017-.024.013-.068-.085-.057.016-.018.043-.029.016-.047-.1-.241.01-.012.032-.14.01-.005.021-.1-.024v-.046h-.015l-.193,0-.131-.017-.008.023-.065.009-.017.062.005.056-.064,0-.013.064.023.043-.01.081-.032.03,0,.1-.06.011,0-.046h-.114l0,.073h-.063V12.2l-.021.025-.26,0-.007.062-.174,0v.1h-.069l-.008.078-.036,0,0,.087.014.014-.009.059.025.013,0,.2h-.026l0,.04-.059.014-.051.105,0,.046.19.006-.016.061.007.041-.014.018-.057,0,0,.037-.091.022.021.042-.014.179-.036.076-.085.1-.049.009-.059-.1-.062-.019-.053.055-.062-.02-.042.006-.123-.039-.171.061-.143.014-.129-.036-.147.033-.034.029.01.042-.055.022-.255.369-.065.058h-.013l.055-.055-.01-.05-.053-.056-.085-.04-.08.047-.04.042-.066.016-.1.057-.069-.11.116-.1,0,0-.119.1.07.111-.05.032-.074.013-.138.118-.07.129-.072.191-.091.122-.033,0,.049-.034.009-.032.067-.062.014-.035-.034-.075-.063-.063-.094-.052-.17.005-.068.038-.262.087-.064.044-.118.142-.177.306-.046.051L23.291,15l-.057.036-.015,0,0-.022.027.01.027-.02.019-.047.031,0L23.4,14.9l.071-.122,0-.074-.043-.063-.077-.046-.057,0-.073.029-.141-.025-.157.019-.089.037-.242.141-.222.241-.239.115-.154.2-.3.5-.1.075-.219.08v-.059l.072-.054,0-.031.05-.027.129-.023.126-.06.016-.08.112-.158.014-.068.033-.006.063-.1-.013-.009-.027.013-.022.056-.031-.049-.061-.005-.019-.107.031-.044,0-.04-.016-.025-.083-.031-.033-.06-.021-.007.016-.047-.047.028.036.106.041.035,0,.1-.034.061-.1.064-.042.1-.047,0v0l.048,0-.042.054-.068.042-.231.049-.105.086-.033.1-.064,0-.025-.032-.046.013-.077-.038-.095.026-.01.058.036.129-.061.153-.032.053-.07.065-.015-.027-.022-.011-.016.012-.026.024-.025.068-.016-.08.014-.032-.023-.023-.082-.02,0-.03.026-.039.076.012v-.015l-.058-.01L20.444,16l.038-.03.023-.046-.007-.02.019,0,.018.084.021-.068.069-.029.034.063,0,.013-.022,0,0,.022.028.01.031-.07,0-.118-.04-.025-.037-.052-.023,0-.018.024V15.8l.028.053-.046.012-.007.02-.048-.01-.039-.037h-.023l-.013-.033h-.02l-.067-.069-.049.012-.028-.044,0-.047-.028-.06-.026-.007.025.071-.023.086.02.061.031-.012.014.019-.032.055-.007.084-.034.008-.005-.129-.057-.065-.039-.113-.037-.031-.022-.058-.048-.054h-.024l-.024.068-.04-.034-.021.024.073.022.049.153.048.042-.008.03-.072.058-.017-.022L20,15.777l-.025-.067-.031-.01-.021.069-.043.014.007.012.034-.016.023.021.015.029-.006.035.04.027-.024.047-.024-.047-.026-.016-.032.041-.023,0,0-.05-.036-.033-.034.053,0,.045-.116-.21-.049-.038-.039-.011-.047.017-.026-.04-.018.025-.05.008-.1-.083-.014.032-.072,0-.01.033.036.067-.032.006-.045-.023-.026-.023-.005-.028-.017.009-.041-.04.007.028h0l.069.068.026.006.015.076.018-.017.016.006-.007.043.02.027.033.012.018-.016.04.057.011,0,.05-.074-.028-.011-.011-.053.028-.02.034.025.034.053v.028l-.043.053.012.022-.036-.014,0,.024.049.005.06.05.024.085-.007.014-.02-.011-.007.04.016-.022.022.022.009-.008v-.063l.021-.024.025-.01.014.012-.015.006,0,.024.02.05.015,0,.014-.008-.035-.05.088-.015-.022-.023-.038.013-.051-.036.021-.029.127-.019.076.066h.024l.017.07.063.021L20,16.2l.031.009-.074.077-.014,0-.007-.031-.046,0,.033.068.054,0-.006.032.074-.021.014-.021.021.02.007-.016-.022-.015-.014-.1-.03-.022.011-.027L20,16.147l.016.025-.018.005-.05-.075-.03-.021-.02.012.012-.048.056.045.032-.017.065.031.02-.006.042.036v.03l-.023.007.024.053.011-.011-.015-.039.053-.086.024.021-.019.051.014.04.065.017,0,.02.025-.025-.013-.023.011-.019-.039-.012,0-.015.043,0,.025-.021.058.073.031.087.133.108-.018.068.014.055.047-.026.036-.092.056.031.025-.016-.049-.122.022-.029-.021-.019.139.089.017.034-.035.117-.123.059v.049l-.063.056-.007.031-.083,0,.021.048.122-.026.1-.113.081-.062.122-.04.037-.028L21,16.5l-.018.031-.04-.033-.1.054-.026.133.157-.055.006.048.019,0,.026.028-.034.049-.023.01-.006.04-.062.008-.059.064.029.009.008.026.091-.041.023.005.04-.031.15-.041-.094.076.024.007v.052l.067-.045.027.035-.021.012v.028l.028.026.033-.023.084-.015-.008.049.033.038.073.022.1.193.039.174-.04.049-.071.027-.025.034.049.118.05.071.082.059.025,0,.019-.022.05.008.133.086.128.05.018.024-.049.045.04.028,0,.028L22,17.976l.124-.027.016.015.006-.085-.077-.01-.052-.093-.064-.04-.043-.085-.026.008-.135-.23-.074-.1-.047-.037-.122-.184-.033-.023L21.439,17l-.029-.031h-.021l-.06-.183-.046-.065.027-.014-.027.014-.038-.128-.037-.049-.029.006-.015.053-.033.032-.039.005-.013-.032.034-.081.02-.146-.022-.026v-.042l.055.054-.042-.107-.032-.014L21.1,16.2l-.02,0-.015-.081-.03-.031-.031,0-.026.1-.037-.072-.048-.025.017-.041-.014-.034-.064-.026v-.023l.085.014.066-.024.026.073.018.007.031-.043-.014-.111.033-.028.014.028.062.4.157.43.185.358.392.544.167.181.093.069.1.048.146-.071.187-.048.012-.04.053-.05,0-.022-.02-.026.122-.1,0-.062.05-.029.039.017-.045.042.036.067.1.084L23,17.7l.079-.006.057-.041.03-.041,0-.076.022-.022.125-.047.208-.03.058.025.035-.014.049.018.069.052.066-.025.042,0,.086.067.042.011.023-.011L24,17.54l.036,0,.03.04-.007.034.057.044,0,.014-.026.015-.037.064-.1,0-.082-.039-.037.021-.011.053.06.04-.028.029-.071.02-.034.032.014.057.01-.038.01.027-.059.126.031.182.057.095-.138.093-.19.014-.061.059-.328-.054-.059.01-.028.039-.044.023-.077-.014-.114.048-.014-.033-.034-.02v-.042l-.061-.068-.139-.092-.176-.055-.141.031-.1.054-.089.1,0,.059.06.03-.112.058-.007.03.018.03.041.021-.009.014-.105-.05-.1.011-.021.026.006.038-.023.047-.078.019-.05.031-.041.089-.01.081-.078.072-.056-.019,0-.034-.031-.032-.049-.013-.019.013-.039-.025-.08.023v.021L21.208,19l-.038-.013-.237.023-.1.056-.1.032-.253.148-.071.088-.074.191-.036.018,0,.081-.068-.012-.049.031-.045.08L20,19.757l-.067.151-.112.021-.044.035-.079.005-.027.02-.151-.028,0-.04.016-.017h.036l.023-.043-.023.043h-.036l-.017.016,0,.04h-.067l-.1.037-.072,0Zm.241-.265.126.205-.125-.205-.02-.113Zm-.119-.4.012.054-.006.019-.058.034,0,.086.014.027.14.069-.139-.069-.014-.027,0-.086.057-.034.007-.019-.012-.054-.084-.049Zm-.249-.08.005.037,0-.036.021-.024.048.007.033-.017-.016-.073-.026-.023-.107,0,.106,0,.026.023.016.073-.032.017-.048-.007Zm2.313-4.11.055-.007v0l-.056.007-.127-.078L21.2,15v0l.088-.013Zm-.439-.175.222-.035v0l-.222.035Zm-.057-.075h.043v0h-.043Zm-5.892-.167.022.012Zm0-.042.035.023Zm1.4-.018.019.027h0l-.019-.027.077-.013Zm4.431,0,.1-.013v0l-.1.013Zm-4.319-.015h0l-.015-.107h0Zm4.235-.009.078-.009v0l-.078.008ZM15.037,14.513Zm1.452-.089.009.04h0l-.008-.04.077-.019h0Zm-1.512.01h0l.047-.069h0Zm1.613-.017.067-.012-.068.011Zm.219-.174-.061.031.011.085-.079.017-.01.027h0l.009-.026.08-.018-.011-.085.061-.031-.037-.065-.008,0Zm.168.059.045,0-.013-.084h0l.013.084-.041,0Zm.7-.064.006-.025h0l-.006.021Zm-.117,0,.076-.013-.077.012Zm-.289-.066.01.061h0l-.011-.061Zm-2.28.037-.045-.031-.032,0-.033-.094.033.094.032,0Zm2.756-.022,0,.018h0l0-.018Zm.226-.041-.2.037.207-.037,0-.028-.042.007-.008-.042-.1.018-.021-.009-.005-.043.148-.033-.006-.039h0l.006.04-.148.033.005.042.021.01.1-.018.008.042.042-.007Zm-.694-.056.014.076-.018,0,.022,0-.013-.077Zm.093.065.063,0-.063,0Zm-.059-.039.035-.006h0Zm3.658-.025.084-.007v0l-.084.007Zm-2.944-.127-.059.008.063-.008-.008-.038h0Zm-.084-.132.031.1.026,0-.021,0-.031-.1.031-.028h0Zm2.918.073.08-.013v0l-.08.012ZM14.76,13.9Zm10.113-.005.069-.04-.084-.065.057-.081-.04-.045h0l.037.043-.057.08.084.065-.068.04ZM18.1,13.867l.076-.118-.226-.139-.041-.113.068-.094.014-.061h0l-.014.062L17.9,13.5l.041.114.226.138-.074.116Zm-3.221-.024,0,.024,0-.023.076-.014Zm5.873.023.1-.013v0l-.1.012ZM15.137,13.825Zm5.577-.008.031,0v0l-.031,0Zm-5.6-.067h0l.058-.013Zm5.549,0,.036,0v0l-.036,0Zm-5.447,0h0l-.043-.008Zm0-.054v0l.018-.006Zm9.622-.005h0l-.14-.066Zm-9.619-.078.015.078Zm9.5-.024-.044.027,0,0,.044-.027-.018-.094h0Zm-9.5.024.014-.006h0Zm5.364-.061.053,0v0l-.053,0Zm4.09-.049h0l-.057-.084h0Zm-.071-.08h0L24.6,13.4l0,0Zm-.027-.006,0,0,0-.026,0,0Zm-.024-.009,0,0-.013-.022h0Zm-.033-.089-.058,0,.058.068h0l-.056-.066.058,0-.006-.014.13.012-.06-.285.026,0h0l-.029,0,.06.285-.13-.012Zm-9.4.059.011,0h0Zm3,0,0-.023.049-.031V13.27l.036-.005-.041.005v.048l-.049.031,0,.021Zm-3.148-.1.018.09ZM14.914,13.343Zm3.152,0,0-.009,0-.006,0,.015Zm.212-.032.022-.014-.022-.019,0-.038.059-.009-.063.009,0,.038.022.02-.02.013Zm-3.253-.048-.007-.1-.254.066-.02-.074-.033,0,.033,0,.02.074.254-.066Zm3.262-.115.07.08h0l-.07-.08-.033-.027h-.023l0-.1.053-.024-.021-.136h0l.021.136-.054.023,0,.1h.023Zm1.922-.028.022.018.038-.039.048-.006.028.023.045-.009-.005-.026.034-.006-.007-.056.167-.032v0l-.168.033.006.056-.033.006,0,.026-.044.009-.028-.023-.048.007-.038.039-.021-.018Zm-5.63.013.149-.031Zm5.956-.009.047-.007v0l-.046.007Zm4.237-.05.072-.031,0-.019.069-.044-.023-.086.046-.011v0l-.049.013.022.085-.069.044,0,.019-.069.031Zm-.149-.024.129-.008v0l-.129.008ZM14.526,13.031Zm-.009-.039h0l.06-.031Zm10.459-.02.067-.033-.014-.043.064-.156h.014l0-.077h0l0,.076h-.014l-.064.156.014.043-.064.033ZM14.577,12.962Zm-.057-.131.013.079.007.022-.007-.022Zm5.632.09h.021v0h-.021Zm-2.011-.26,0,.045-.037.012.007.144.008.019.035-.006-.031,0-.009-.018-.006-.145.037-.012,0-.044.022-.009h0Zm-3.588.162-.014-.056-.061.01,0-.054,0,.054.061-.01ZM18.18,12.8l.081-.013-.081.012Zm.112-.306.008.056-.038.021.022.213h0l-.022-.213.038-.02-.008-.056-.007-.014,0,0Zm1.8.219.027.03h0l-.028-.031-.141-.073Zm-5.61-.134.021.14Zm10.478.118v0l-.116-.1h0Zm-5.291-.049.046.039.235-.048.141-.034.155-.069.212-.023.255-.085.105.007.114.045.231.054.078,0-.078,0-.231-.054-.114-.045-.105-.007-.255.085-.212.023-.155.068-.141.035-.235.048-.046-.039-.068-.1-.478.076.478-.076Zm5.349.012h0l.005-.023,0,0ZM18.577,12.625Zm6.254-.024,0,0-.087-.147,0,0Zm-6.193,0h0l-.035-.043Zm.4-.025.074-.025h0l-.074.025ZM14.534,12.565Zm4.066-.04.264-.05Zm-.391-.133,0,.131,0,0-.005-.132h0Zm.2.113.047,0,.059-.036.007,0-.007-.006-.059.037ZM14.45,12.49l.066-.011h0l-.066.011-.008-.026-.089,0-.036-.03.036.03.089,0Zm10.257,0v0l-.034-.054h0Zm-5.859-.119.015.105-.014-.105.167-.033Zm5.679.1h0l-.106-.184,0,0ZM21.321,12.456Zm3.326-.009h0l-.031-.046h0Zm-6.31-.028.106-.025-.106.024-.1-.024Zm2.932,0,.019-.024ZM19.043,12.4l.025.005h0l-.026-.005Zm2.2-.025.041.019-.04-.019Zm-6.941.018h0l.057-.013ZM14.364,12.379Zm3.627-.023.22-.013v0l-.217.012ZM21.264,12.338Zm-7.1,0h0ZM21.288,12.329Zm3.025-.052-.035.007,0,.034,0,0,0-.034.035-.007,0-.024h0Zm-10.048.039h0l-.018-.072Zm3.745-.276.04.253h0l-.039-.253Zm-3.914.237.076-.02h0Zm10.2-.09-.057.009.011.068h0l-.011-.067.057-.008,0-.017.032.009.028-.049h0l-.027.046-.031-.009Zm-10.574-.227.053.292.073-.013h0l-.073.014Zm7.524.29.025,0h0l-.025,0Zm-6.995-.005.133-.026Zm9.981-.1h0l-.02-.118h0Zm-.044-.122h0l-.025-.16h0Zm-6.044-.13.01.046.017,0,.007.053h0l-.006-.056-.018,0-.009-.045Zm-1.513.08.026-.034.01.026.112-.023-.008-.049.007.047-.111.023-.01-.026-.026.035-.016-.024-.023,0-.01-.071-.034,0-.022-.056-.025,0-.01-.029-.154.021h0l.153-.021.01.029.026,0,.022.056.035,0,.009.071.024,0Zm-2.909-.014.058-.019h0Zm7.485-.02.106-.018v0ZM16.108,11.8l.014.08.212-.028v0l-.21.028-.014-.079Zm7.944-.059-.013.057-.021,0,0,.076h0l0-.074.021,0,.013-.058-.006-.023h0ZM13.761,11.877Zm4.391-.109.015.109h0l-.015-.108Zm-1.048.1h.026l.352-.071.04-.077h0l-.039.076-.351.071H17.1l-.011-.031-.093.03-.106-.085-.1.026v0l.1-.026.106.085.093-.03Zm-.343,0v0l.029-.007v0ZM13.794,11.844Zm-.175-.031.153-.021-.153.021ZM23.5,11.8h0l-.018-.037h0Zm-7.347-.115,0,.05.022.046h0l-.023-.047,0-.05Zm7.516.083h0l0-.021h0Zm-.3-.005h0l-.016-.014Zm-5.2-.12.019.109h0l-.019-.11Zm5.18.1h0l.013-.05h0Zm-.185-.022h0l-.005-.044h.074l.021-.094-.031-.05.018-.015-.019-.028h0l.017.026-.018.016.032.05-.021.094h-.075Zm.85,0h0l-.011-.075h0Zm-2.849-.011.045,0h0l-.045,0ZM4.752,11.707Zm-.025-.01h0l0-.018ZM16.2,11.685h0l-.012-.133-.04.008-.017-.121-.1.02-.011-.009h0l.01.01.1-.02.016.121.04-.008Zm4.877,0,.071-.033h0l-.071.033ZM4.671,11.624l.06.055Zm12.827.041h0l.033-.005v0Zm6.529-.1-.081.016.012.068h0l-.012-.066.08-.016v-.023h.081l-.019-.1h0l.02.1h-.081Zm-5.83.064h0l-.009-.084-.1.019-.022-.011-.019-.041h0l.021.043.022.011.1-.019ZM4.666,11.6h0l.023-.01h0ZM4.684,11.552Zm12.8-.006v0l.152-.029h0ZM13.568,11.543Zm7.615-.017h0l-.01-.028h0Zm2,0h0l-.018-.085h0Zm-5.138-.112.021.1h0l-.021-.1Zm-2.1-.149,0,.023.035.2.007-.006-.006.005-.034-.2,0-.023Zm12.181.215.025-.007h0l-.025.007Zm-23.5,0,.006-.007h0ZM4.619,11.459Zm19.428-.317-.04.012.009.069-.022.03.029.05-.035.022.04.031L24,11.362l.014.094h0l-.013-.093.024-.007-.039-.031.035-.022L24,11.253l.021-.03-.009-.069.04-.012,0-.013,0,0Zm-.886.274-.034.019,0,.013h0l0-.011.035-.018-.014-.068h0Zm-9.681.019h0l.006-.033Zm4.25-.022.147-.025v0l-.147.026-.02-.046-.165.029h0l.164-.028ZM13.486,11.4Zm7.678-.01.06,0h0l-.06,0,0-.014Zm-3.073,0h0l-.028-.01Zm-.029-.009v0l-.02-.151-.065.035-.018-.014-.044.01v0l.044-.01.017.014.064-.035ZM4.6,11.361Zm0,0,.021-.034h0Zm18.549-.072-.053.02.012.031h0l-.011-.03.052-.02-.021-.086h0Zm4.611.024.333.023h0l-.333-.023Zm-14.315,0h0l.05-.026Zm7.682,0h0v-.005ZM13.5,11.292ZM4.613,11.281Zm0,0,.135-.148h0Zm13.306-.008v0h-.077l0,0Zm6.546,0,.008-.049h.03l.032-.067L24.5,10.9h0l.038.257-.033.067H24.47l-.008.049Zm-.07-.018.05.013-.051-.014Zm-6.082-.01,0-.013L18.3,11.2Zm-2.282,0h0l-.022-.148-.1.019.1-.018Zm8.3,0,.047-.014h0l-.048.013Zm-1.31-.035-.019.03h0l.018-.028-.012-.011ZM3.931,10.956l.046.085.038.014.011.036.065.041.046.1-.046-.1-.065-.041-.011-.036-.038-.014-.046-.085Zm20.357.269.022-.015h0l-.021.014Zm-8.737,0,.024-.015h0l-.024.016-.005-.036-.026,0,.025,0Zm7.465-.084,0,.02-.023.014,0,.031h0l0-.029.022-.014,0-.02-.029-.021h0Zm-4.773.058h0l-.011-.012Zm-2.714-.053-.012.045h0l.012-.045ZM13.419,11.186Zm2.16,0v0l.067,0h0ZM18.233,11.183Zm4.5,0h0l-.013-.078h0Zm-11.545-.008,0-.028h0l0,.025Zm11.059-.014h0l-.006-.043h0Zm1.979,0,.01-.016h0l-.011.016ZM18.293,11.156Zm-4.818,0,.012-.018.053.008-.053-.009Zm10.6,0,.046-.025h0l-.045.024Zm.068-.014.023-.005h0l-.021,0Zm-8.585-.008-.013.005.014-.005-.022-.1h0Zm5.8,0h0l-.009-.016h0Zm2.74,0h0l.023-.016v0Zm-2.865,0h0v-.1h0Zm-2.808-.006h0v0Zm2.972,0,.036-.009h0Zm-5.517,0h0l-.017-.064h0Zm-2.281,0h-.058Zm-2.319,0h0l.029-.148h0Zm11.328,0h0L22.554,11h0Zm-10.571-.017.005.017h0l-.006-.019Zm1.572.015.043-.011h0ZM13.589,11.105Zm-1.231,0,0-.009h0l0,.009Zm3.316,0h0l-.016-.021-.025,0,.025,0Zm2.842-.009.024.005h0l-.023-.005-.006-.122h0Zm-2.829,0,.013-.006h0Zm-3.3,0-.01-.022,0,0,.008.02Zm5.975,0,.082-.021v0l-.082.021Zm-2.978-.009.032-.008-.031.007-.02-.059h0Zm-10.663,0h0l.009-.018Zm7.791,0,.007-.017-.016-.009-.007,0,.02.012,0,.012Zm9.426-.033.142.033-.14-.033-.075-.053h0ZM13.66,11.074Zm-8.845,0h0L4.76,11.05Zm10.457-.005.053-.012-.052.011-.009-.055-.14.046-.026-.133h0l.026.134.14-.046Zm.526-.005h0l-.015-.048-.081.015.081-.015Zm11.934,0h0l-.211-.07Zm-15.33,0h0l.007-.031h0Zm-.653,0,0,0,.051,0,0,0ZM18.583,11.053Zm-3.155,0h0l.091-.017Zm-3.967-.031.01.025,0,0-.011-.026.018-.024Zm1.072-.077-.01.1h0l.012-.105-.031-.066-.006,0Zm8.651.093h0l0-.014h0Zm-9.373-.006,0,0,.031,0,0,0Zm-6.944-.008-.045.012.045-.011v0Zm16.8.007H21.66Zm.127-.011h0l-.044-.021h0ZM11.645,11h0l.019-.018h0Zm1.718-.038.107.035h0l-.107-.035h-.088Zm.21.03h0l-.01,0Zm-.453-.1.039.072.085.022h0l-.085-.021Zm-1.635.028.007.057,0,0-.008-.055Zm6.98.048,0-.049h0Zm-4.477,0h0l-.047-.054h0Zm-.1-.035.014.03h0l-.013-.029-.205-.018h0Zm13.542.025.093,0h0l-.094,0Zm-12.864,0h0l-.022-.017h0Zm-.072,0,.036-.01-.035.01-.014-.055h0Zm3.918-.028,0,.022,0-.023Zm-4.021.009h0l-.015-.057h0Zm.639-.031.033.028.029,0-.028,0-.033-.027.012-.022Zm9.488.013.012-.035.021.01.009-.016H24.6l-.043-.289h0l.043.288h-.043l-.009.016-.021-.01-.012.035-.009-.006ZM3.946,10.886l.014.026h0Zm1.04.009-.016.009.016-.008,0-.033Zm9.636,0,0,.009,0-.009.088-.007ZM4.9,10.9Zm9.55,0h0l-.021-.021h0ZM11.5,10.877l.005.019,0,0-.005-.017Zm1.573.014h0l.007-.059Zm-.193,0,.069-.118.071.038-.071-.038-.069.118-.07-.071-.085.034-.022-.022-.014-.035.016-.048-.017.048.014.034.023.023.085-.033Zm1.384-.005h0l-.007-.023h0ZM18.77,10.884Zm-3.8-.085.037.007.047.062h0L15,10.8l-.037-.006,0-.023h0Zm-11,.052.005.015ZM4.989,10.863Zm8.1-.031-.032-.056h0ZM3.9,10.741l.068.028L4,10.806l-.032-.038L3.9,10.74Zm10.921.057h0l-.006-.024-.12.024.119-.023ZM4.936,10.791Zm7.719-.161.039.043,0,.04.019.034-.018-.034,0-.04-.039-.043v-.021h0Zm-7.341-.218-.122.124-.13.188L5,10.737l.065-.012.13-.188.122-.124.107-.046Zm21.83.266.147-.018h0l-.147.018ZM18.911,10.659ZM3.7,10.482l.083.043.045.068.071.055,0,.008,0-.009-.071-.054-.045-.068Zm8.975.131.02-.021.015-.06.032-.007.013-.042-.04-.053.04.053-.014.042-.032.007-.015.06-.02.021ZM24.5,10.591h0l-.005-.025h0Zm-.083-.267.016.011-.02.009.011.085-.023.019-.006.041.014.086h0l-.015-.085.007-.042.023-.018-.01-.085.02-.009-.016-.012.023-.014.024.007-.007-.065h0l.007.064-.023-.007Zm-5.566.21.067,0h0l-.067,0Zm-.025-.063.024.014-.024-.015Zm-15.3.01.053-.077ZM18.84,10.437ZM3.394,10.436Zm0-.017h0l-.03-.02Zm23.718,0,.03-.009h0l-.03.009ZM3.659,10.387l.029.025-.029-.025-.087-.018Zm1.967-.024.04.037-.04-.037-.09-.015-.053.021H5.421l.063,0,.053-.021ZM5.8,10.357Zm-2.466-.025.02.02Zm9.513-.04.01.023Zm.172-.162v.044l-.031.058-.142.06.143-.06.031-.057.133-.023h0l-.133.023ZM27,10.281l.084-.039h0L27,10.28ZM3.306,10.2l0,.048.025.028-.025-.028Zm23.665.059.016,0h0Zm-2.42-.2-.091.016.006.07-.039.011.007.1h0l-.008-.1.04-.011-.007-.07.092-.016L24.544,10h0Zm-11.293.175.056-.059.008-.055.021-.019-.021.019-.008.055ZM7.339,10.21l-.111-.215h0Zm-4.375-.025.08.021.018-.014-.018.014Zm4.468-.065.031.081Zm1.478.03.058.031-.057-.031-.033-.063Zm-5.853.018.035-.079.063.012.051-.038.018.012.023-.034.05-.021.022.023L3.3,10.019l-.051.021-.023.034-.018-.012-.051.038-.063-.012Zm23.815,0h-.016ZM3.332,10.156Zm10.1,0,.018,0,.043-.016-.043.016-.018,0Zm-5.961-.061.04.051-.039-.051-.039,0Zm.076-.048.049.044.01.033-.01-.033-.049-.044L7.542,10l-.081.013L7.446,10l.015.021L7.542,10Zm6.191-.124-.027.113-.1.016-.032.027-.083.017.083-.017.033-.027.1-.016.026-.113.083-.022Zm-6.735.168-.045-.023-.04.02.04-.019Zm1.87,0,0-.082Zm-1.956,0-.055-.077h0Zm6.157-.013-.023-.014Zm-9.774,0v0Zm9.8-.01-.025-.135L13,9.9l-.018-.031L13,9.9l.078.023.025.135Zm-6.4-.023.049.008.09-.028-.09.027L6.7,10.036l-.035-.05ZM6.494,9.9l.084.116L6.5,9.9l.036-.056ZM7.882,10l.038-.018L7.882,10l-.066-.043ZM7.1,10Zm-.062,0,.019-.051h0Zm-.02,0h0l0-.008ZM2.97,9.993,2.939,9.95l-.093.019h0l.093-.019ZM18.842,9.991Zm-11.126,0h0l-.033-.005Zm16.776-.012h0l-.019-.044h0ZM7.619,9.907l.031.03.007.037-.007-.037Zm.6.056h0l-.142-.034Zm15.453-.031.02.014h0Zm-4.643.014-.007-.027h0Zm-5.164,0,.139-.009,0-.058,0,.058-.14.008ZM6.98,9.934h0L7,9.914Zm17.414,0h0l-.008-.068h0Zm-18.633,0v0h0Zm2.32,0-.015-.044h0Zm-.289-.086L7.784,9.9l.01-.056L7.758,9.83Zm.684-.006.045.061Zm-1.486.056.025,0h0l-.025,0Zm12.161,0-.014-.032h0ZM6.313,9.875l-.043.013.043-.012.032-.036ZM23.573,9.885ZM2.746,9.763l.01.113-.01-.114-.13-.007Zm16.327.1,0,.014,0-.014ZM7.716,9.866Zm6.284,0h0l.019-.023h0Zm10.286,0h0l-.011-.073-.028-.066-.013-.1.021,0,.014-.028L24.234,9.5l-.007-.064h0l.006.064.037.094-.014.028-.021,0,.013.1.028.065h0Zm-18.113,0L6.18,9.8Zm.415-.04-.008.036h0l.008-.035.027-.016.045.05-.045-.051Zm17.439.031.109-.017,0-.017,0,.017-.108.017Zm-17.507-.1.011.086-.01-.086-.015-.017h0ZM14.062,9.7l-.068.024-.042.065.057.048-.056-.048.041-.065.068-.024.021-.083ZM6.456,9.83h0L6.38,9.8h0ZM6.96,9.829Zm16.8-.014.026,0Zm.4-.02v.017l-.034.006.035-.006,0-.017Zm-.7.009.05-.1ZM6.908,9.8h0l.031-.011Zm-.844-.132.032.018L6.18,9.8,6.1,9.685l-.032-.019H6.045ZM5.74,9.8Zm18.012-.016.027.01ZM8.7,9.78l.028-.112.042-.057-.042.057ZM5.943,9.7l.039.074h0L5.944,9.7,5.8,9.671Zm17.841.073.062-.073h0ZM12.975,9.715l.05.016.005.037.027,0-.026,0-.005-.037ZM6.9,9.76ZM6.872,9.737ZM26.8,9.686h0l.027-.009ZM6.88,9.68ZM12.839,9.6l.03,0,.068.068.043,0-.043,0-.068-.068-.029,0,.006-.014Zm-7,.005-.05.043.014.019L5.79,9.653l.05-.043,0-.025ZM19.3,9.65l.091-.015ZM6.8,9.65ZM2.347,9.534l.071.019.014.032h.04l.021.019,0,.04,0-.04-.021-.019h-.04l-.014-.032-.071-.019L2.337,9.5l.01.035-.069-.014-.061.035L2.138,9.53l-.052-.024.052.025.079.023.061-.034Zm16.924.09.027,0h0l-.027,0-.079-.076-.053.005h0l.054,0ZM6.8,9.622l.015-.013h0Zm6.023-.053.02.015h0l-.02-.015ZM6.8,9.58Zm20.071-.013h0l.034-.013h0ZM14.082,9.556l.024-.058.019.007,0-.029.1-.041.062.02.033,0,0-.022-.005.022-.032,0-.062-.021-.1.041,0,.03L14.107,9.5l-.025.058Zm0,0-.052,0h0Zm6.13-.011,0-.038Zm-1.123-.013.033.012-.033-.012Zm-10.341,0,.02-.034ZM5.815,9.5l-.044.033Zm9.465.032.041,0,0-.027h0l0,.028Zm-.355,0,.015-.032.011.009.017-.023.019.013.032-.05.057.012.018-.032.058.009.017.043.078-.022h0l-.077.023-.017-.043-.058-.008-.018.032-.057-.012-.032.05-.019-.013-.017.023L14.941,9.5Zm.441,0,.023-.049-.024.048-.015-.009Zm-.486-.008.01-.017h0l-.01.017Zm-2.04-.06.038.059Zm2.547.053.032-.027V9.464l.027.017.009-.014-.017-.022.048-.043.124-.057V9.311l.054-.034-.014-.014.025-.046L15.664,9.2l.036-.031-.021-.044.013-.013-.014.013.021.044-.036.031.013.017-.025.045.014.015-.053.034v.035l-.124.057-.049.042.017.022-.009.014-.026-.016V9.49l-.032.026ZM6.826,9.51Zm7.711-.023.019-.008,0-.031.084.007h0l-.084-.007,0,.031-.018.007-.07-.011Zm5.7-.053.009.052Zm-1.193.05.025-.011-.026.01Zm5.718,0,.02-.041-.032,0,0-.019L24.7,9.382l.021-.032h0l-.021.031.045.037,0,.02.032,0-.019.039ZM23.313,9.482Zm-8.478,0-.008-.016-.016.007-.039-.024-.035.009-.012-.017-.052.008h0l.052-.008.012.017.035-.009.039.025.016-.007Zm-8.011,0,0-.012h0l0,.011-.031-.008h0Zm-1,0h0l-.068-.042Zm13.209-.012.008.011-.008-.012v0Zm-17.055,0,.061-.04.007.018-.007-.019-.061.041-.067-.054-.035.031-.1,0h0l.1,0,.035-.031Zm12.431-.005.014-.032.016.019-.016-.02-.014.033ZM6.8,9.448Zm5.79-.33.017.018.016.077.041.026.016.154.165.054-.165-.054-.016-.154-.041-.027-.016-.076Zm7.458.328-.04-.041h0Zm3.285-.013-.061.005.061-.005.015-.039Zm-14.608,0,.033,0Zm18.1,0,.013-.021h0ZM5.664,9.345l.09.092-.09-.093L5.6,9.336Zm18.527.074.005.015h0l-.005-.014.049-.076.048.01h0l-.049-.011Zm-9.552.009.013,0h0Zm9.773,0,.029,0,.027-.069.185.019h0l-.186-.019-.027.07-.028,0Zm-5-.008.055.006h0l-.054-.006L19.4,9.345h0Zm-10.657,0,.036-.052ZM24.33,9.4l.059,0-.061,0ZM2.356,9.292l.041.1Zm17.926.1-.025-.019-.043.017L20.209,9.3l.005.089.043-.017Zm3.025,0,.025-.007-.025.007ZM19.085,9.38h0l-.026-.025ZM6.812,9.376Zm12.529,0h0l-.015-.013Zm.58,0,.009-.055Zm-.661,0-.008-.038h0ZM6.766,9.358Zm17.972-.007.008-.039.073.011.009-.049.022,0,.021-.048.037.01-.039-.01-.021.048-.021,0-.01.05-.072-.011-.009.039h-.013ZM5.16,9.307l-.007.04.008-.04Zm.168.031h0L5.3,9.305Zm-.081,0L5.281,9.3l.023,0-.023,0Zm.085,0,.015,0h0Zm1.5-.007h0L6.8,9.318h0ZM23.15,9.329Zm3.7-.007.039,0h0Zm-1.827,0,0-.163.034-.023.023-.048h.065l0-.04.1,0,.008-.045h0l-.007.045-.1,0,0,.04h-.065l-.023.048-.034.023,0,.163Zm-16.25-.04-.01.04.01-.04V9.254ZM19.2,9.32l-.008-.01h0ZM5.3,9.248l-.019.034H5.193L5.171,9.3l.023-.016h.087L5.3,9.248l-.014-.014h0Zm21.524.043h0Zm-6.566-.023.039.023Zm-.478-.025.055.041-.055-.041-.028-.055ZM1.322,9.133l.056.023.013.077.024.031.022.008.029-.038L1.5,9.22l.029.011.066-.04.057.031,0,.04.029.005-.029-.006,0-.04L1.6,9.191l-.066.04L1.5,9.22l-.037.014-.03.038-.021-.007-.024-.031-.013-.078-.056-.023L1.288,9.1Zm4.189.049.027.03-.032.04.033-.04-.027-.03-.031-.013Zm-.039.061h0l-.1-.04h0Zm-.248-.049.023.045h0l-.024-.046L5.167,9.18h0Zm-.085-.05L5.1,9.231l.034-.087.008-.124ZM5.487,9.224ZM6.782,9.223Zm13.5-.014.021,0ZM5.02,9.189l.019-.014-.018.013-.031-.01Zm18.076,0,.013-.019h0ZM5.035,9.111l0,.065Zm15.188-.005.013.031.044.032-.044-.032ZM6.77,9.169l.006-.018h0Zm-4.4-.094.017.046.053.019.007.019L2.439,9.14l-.053-.019Zm13.887.068.049-.059.1-.02.036-.045.038.035.068,0-.068,0L16.44,9.02l-.037.044-.1.02Zm-.56-.009.069-.047ZM23.065,9.13ZM12.623,9.085l-.03.032.031-.033-.051-.025Zm3.252.023.025-.086h0l-.025.086Zm-.2-.01h0l.028-.03h0Zm3.739-.094.13.088L19.411,9l-.092-.021L19.243,9l.077-.014Zm-2.872.081.019.006.012-.02.065,0,.014-.012,0-.063,0,.062-.013.013-.066,0-.011.021Zm-9.794,0,.026-.02Zm2.029-.167v.041L8.737,9l0,.086,0-.086.037-.036,0-.041-.039-.049Zm6.946.162h0l0,0Zm.384-.071.031,0,.121.068-.121-.068Zm-3.615,0,.058.063h0l-.058-.063Zm6.477.059.041,0L19,9.054l.01.015-.04,0Zm-13.884,0-.01-.033ZM18.845,9.06l.1-.038h0l-.1.038Zm.2-.012L19,9.054l.047-.005L19.074,9h0Zm-12.3,0H6.728ZM5.106,9.044h0l-.033-.012Zm-.151-.008L5,8.987Zm21.634,0,.017-.02h0l-.017.02Zm-10.612,0L16.057,9l.015-.024h0L16.056,9Zm2.747,0,.009-.073-.01.072Zm7.785-.018h0ZM25.2,8.925l.041.036L25.221,9l.018,0-.016,0,.017-.038L25.2,8.925l.019-.022h0ZM17.263,9l.044,0-.014-.068.058.02-.058-.02L17.306,9l-.043,0-.039-.19-.041.019.041-.019Zm1.931-.046L19.243,9l-.05-.042ZM1.224,9ZM16.69,8.915l-.071.021,0,.032.035.026-.034-.026,0-.032.072-.021.014-.061.052.029.025-.182.045,0,0-.048h.036l0-.014.023.03.086-.019-.086.018-.023-.029,0,.014h-.036l0,.049-.045,0-.025.182-.052-.03Zm2.426,0,0,.031-.058.049h0l.057-.049,0-.03.046-.012h0ZM4.94,8.938,5,8.987l-.061-.049.009-.081Zm7.549.023.02.02-.019-.02.072-.112Zm6.1.013.053-.008h0Zm-1.224,0,.039-.033v0l-.039.034Zm1.4,0,.012-.014h0l-.011.013ZM2.377,8.915l.034.053Zm20.237.05.034-.011h0l-.033.011Zm-5.207,0,.117-.007-.02-.041.019.04-.116.008ZM6.765,8.963Zm12-.006h-.029ZM23,8.949l.018-.023h0Zm-.162-.01-.009,0,.01,0,.009-.029Zm3.616,0h0l-.04-.022h0Zm-8.841,0L17.8,8.9V8.872l.047,0,0-.016-.071-.031.07.031,0,.016-.046,0V8.9l-.183.039ZM1.272,8.843l.027.08h0l-.027-.08Zm20.914.077.005-.026ZM17.5,8.915l.015-.026h0Zm.052,0,.053-.006-.053.005Zm7.676,0,.011-.017h0l-.011.017ZM6.744,8.9l.03-.014h0ZM4.909,8.9h0L4.79,8.822h0ZM17.551,8.894Zm7.718-.031-.045.021.011.006-.01-.006.045-.021.007-.022h0Zm-5.007-.016.044.042Zm6.194.04h0l.05-.017ZM8.737,8.873l.01-.027Zm16.566,0,.022,0,0-.081h0l0,.08-.022,0Zm-20.6,0,.041-.022L4.7,8.866V8.819ZM6.717,8.856Zm5.829-.016.016.01-.016-.01,0-.047-.07.03-.058-.106.058.106.07-.029Zm-5.778.009h0l-.029-.01Zm2.044-.176-.1.153.1-.153.1,0Zm8.961.148.022-.04ZM4.6,8.713l.1.106-.1-.106.019-.071.124.029-.124-.029Zm17.446.1V8.777ZM1.331,8.8ZM25.356,8.79l-.007-.056.006.056Zm-18.606,0h0l.016-.028Zm15.278,0,.019-.011-.019.011ZM17.795,8.78l-.021-.1h0Zm-.7-.005.034-.057.015.032-.015-.033ZM6.728,8.711l.038.05ZM17.009,8.753Zm8.372-.032-.033.006h0l.033-.006L25.4,8.7l.053.006h0L25.4,8.7Zm-3.43.006,0-.019h0Zm-4.932-.005L17,8.668l-.021.006h0L17,8.668Zm8.438,0L25.48,8.7l.024.009,0-.014.049-.022-.009-.054L25.517,8.6l.014-.013.082-.014.15-.081-.043-.05h0l.042.05-.15.08-.081.014-.014.014.023.023.008.053L25.5,8.7l0,.013L25.479,8.7l-.023.016ZM6.728,8.711l.049-.044h0Zm13.683,0-.022-.1Zm-1.822-.017h0l-.016-.013Zm2.069-.052.012.049Zm-2.783-.033-.128.056.021.016-.02-.016.128-.055V8.551Zm4,.066h0l.016-.018Zm-3.489-.013.074-.006-.074.006Zm-11.652,0h0L6.758,8.6Zm11.71-.22.015.051v0Zm.076.2.032.006-.033-.007L18.5,8.616Zm-.2,0,.042-.007h0l-.041.008Zm-13.607,0,.015-.088Zm7.834-.007-.01-.063h0ZM8.881,8.624l.036-.043ZM18.5,8.616Zm2.207,0,0-.048ZM2.637,8.6,2.7,8.535,2.636,8.6Zm4.109-.077.012.075Zm-3.8.042-.013.026.014-.026.1-.07Zm18.813.019.013-.029-.013.029ZM3.128,8.553,3.2,8.475h0Zm15.43-.005h0l-.044-.04Zm-5.965-.06.014.028h.02l0,.029,0-.029h-.02Zm9.1.056.067-.014Zm-12.65,0,.034-.034-.034.034L8.97,8.492Zm-.069,0-.048-.022L8.9,8.538l.024-.021Zm17.456-.01.012-.061h0l-.012.061ZM18.5,8.514l.015-.007-.015.006v0ZM6.736,8.444l.023.067ZM9.243,8.5l.029-.02.041.018.031-.031-.031.031-.041-.018-.029.02-.1-.071-.014.017-.062.011.062-.011.014-.017ZM21.7,8.472l0,.015,0-.015.026-.008Zm-9.091-.123-.021.139.022-.14-.036-.062Zm8.91.135.014-.032-.014.032ZM21.412,8.47Zm.225-.018.016-.013h0Zm-12.3-.009.041-.028Zm11.82,0,0-.018.036,0,.015-.024-.015.024-.036,0ZM17.8,8.267l-.122.113-.025.061.026-.06.122-.113.016-.041h0ZM6.736,8.412l.035.026Zm11.714.024.011,0h0ZM9.5,8.414,9.551,8.4l.024-.024L9.551,8.4,9.5,8.414l-.035-.025-.023,0-.007-.022L9.4,8.4l-.024-.048L9.4,8.4l.038-.03.007.022.023,0Zm-5.69-.055,0,.048V8.359l.022-.041Zm8.959.043h0l-.013-.019Zm8.313-.024.008.018ZM4.524,8.4l.12-.14Zm8.352-.013h0l-.047,0ZM25.54,8.374Zm.1-.1-.023.025-.074.073.075-.072.022-.025.094-.014ZM26.261,8.366ZM6.727,8.349Zm19.385,0,.012-.059.031-.034-.031.034-.011.058-.029,0ZM12.861,8.345Zm13.169,0,.049-.011h0Zm-7.984-.006.038,0h0l-.037,0-.007-.01ZM12.614,8.329ZM3.824,8.3l.012.017L3.825,8.3l.019-.038ZM6.744,8.312Zm5.869-.019.015-.021-.016.021ZM6.756,8.285l-.02,0h0l.02,0,0-.057ZM12.663,8.28ZM12.6,8.259l.023.013L12.6,8.258l-.014-.069-.023.012-.017.047-.04-.029-.038.006-.048-.042h0l.049.042.039-.006.039.029.017-.048.023-.012ZM3.658,8.229l.016.028.062.014.108-.007-.108.007-.062-.014ZM17.94,8.26l.073-.031.022.021h0l-.023-.022Zm8.205-.031.009.023-.008-.023.076-.035ZM13.67,8.2l0,.047.015,0-.015,0,0-.046-.144-.025Zm-4.164.047.03-.024h0ZM6.826,8.231Zm10.659-.008.1-.023h0l-.1.023Zm-4.512-.136.021.049,0,.07,0-.07-.021-.049Zm-6.125.1h0Zm2.669-.04-.023.034.023-.034,0-.046ZM26.2,8.167l.1-.037ZM12.448,8.155h0l-.016,0Zm9.394,0,.006-.014-.006.014-.068-.041Zm-15,0-.01-.026Zm0,0-.022,0h0ZM4.472,8.042l0,.078.021.022-.02-.022,0-.078.053-.08Zm-.773.1-.044-.02-.057.01,0-.046,0,.046.057-.01Zm9.55-.06.023.048ZM12.424,8.115ZM6.833,8.093l.021.023Zm14.941.015.019-.015ZM21.641,8.1h0L21.6,8.082Zm-7.91-.014.034-.009h0Zm7.774-.042.026.041-.026-.042-.063-.032h0Zm-9.069.032h0l-.078-.045-.055,0,.056,0ZM13,8.069l-.019-.011h0ZM9.5,8.062l.012-.042h0Zm16.666-.047.01.045-.009-.045.031-.193Zm-12.873.028L13.311,8h0Zm8.557,0h0l.125-.157ZM13.09,8.015l-.007.01.007-.01Zm.3,0H13.4Zm3.777,0,.02-.032Zm-3.24,0h.032l.054-.067-.054.066h-.032l-.076-.095ZM13.8,8l-.04.012h0L13.8,8l0-.048ZM3.748,7.949,3.759,8Zm10.624.027h-.056ZM6.824,7.97h0l-.026,0h0ZM17.19,7.943l-.027.026ZM4.471,7.878l.017.058.038.025-.038-.026-.016-.058-.021-.014h0Zm10.04.079.028-.024.041.006.008-.022-.008.021-.041-.006-.029.024-.108,0Zm2.783-.074.093.011.1.055.142,0-.142,0-.1-.055-.094-.011-.052-.067h0Zm-3.164.064h0l-.05-.034h0ZM12.239,7.9l.03.025v0l-.03-.024Zm-2.805.017.027,0ZM6.788,7.89l.037.023ZM3.71,7.755l.031.095.077.036L3.74,7.849ZM14.6,7.883h0Zm.017,0,.007-.067h0ZM4.39,7.867l.027.013L4.39,7.866l-.025-.128Zm5.077-.016-.036.015.036-.015.028-.091ZM6.809,7.833ZM17.524,7.832ZM21.962,7.826Zm-7.237-.053-.124.019h0l.123-.018.019-.025h0Zm11.441.014V7.716ZM9.456,7.775l-.035-.041h0Zm8.025-.038.049.032h0l-.048-.032ZM9.4,7.743l-.044-.021h0Zm-5.036,0L4.3,7.586l.008-.131L4.3,7.586ZM9.319,7.7l0,.015,0-.015Zm12.587-.013.077.026Zm4.207.025.01-.1Zm-8.535-.138-.057,0,0,.128,0-.128.057,0,.065-.065Zm-5.256.068.071.057h0l-.071-.057Zm2.484.045v0l-.025-.035h0ZM9.338,7.674l.014-.036h.023l.011-.025-.011.025H9.352ZM3.765,7.593l.022.056Zm11.122-.008-.051.05-.036.013h0l.035-.012.052-.05V7.575ZM6.658,7.549l.081.078ZM26.1,7.592l.022.02-.021-.02.018-.068.06,0,.062-.047.007-.023-.07-.01.069.01-.006.023-.062.048-.06,0ZM9.309,7.507v0l.028-.016.031.04L9.4,7.5,9.4,7.439,9.4,7.5l-.029.027-.031-.04Zm3,.019.046.042.024-.006h0l-.025.005-.045-.042ZM3.821,7.485l.016.077ZM22.188,7.544ZM3.94,7.486l.024-.016Zm11.022-.03h0l-.026-.027Zm-8.2,0,.025-.009h0l-.025.009-.011-.026-.013.009.013-.008Zm19.42-.007.025-.056h0Zm-22.286,0-.007-.017Zm11.093-.011h0l-.014,0h0ZM4.422,7.357l-.009.033L4.287,7.4l.127-.005.008-.033.051-.019.02.029-.02-.029ZM22.19,7.394Zm-4.549,0,.013-.013ZM9.394,7.322l-.029.013-.023.048.023-.048.029-.013.014-.045.02.013,0-.029,0,.029-.02-.013ZM6.765,7.374ZM4.529,7.322h-.04l0,.044,0-.044h.04L4.547,7.3h0Zm7.078.042.048-.02.108.008h0l-.107-.009Zm0,0-.026-.025-.145.007.145-.006ZM6.777,7.353Zm5.05,0h.036l.007-.1-.007.1h-.036l-.017-.032Zm.412-.011,0,0,0,0Zm14.1-.134.023.049-.034.011,0,.029-.049,0-.009.043.009-.043.049,0,0-.029.035-.011L26.343,7.2l.1-.028ZM4.6,7.322,4.592,7.3l.009.025Zm12.955-.012.026-.028ZM4.592,7.3l.018-.016h0Zm6.783-.087.049.025-.034.055.035-.055-.049-.026L11.36,7.16Zm.6.076L12,7.248l-.024.037-.022-.032Zm-7.3-.005L4.7,7.23l.037-.012.019-.145.036-.1.04.014-.04-.014-.036.1-.02.145L4.7,7.23l-.024.05ZM4.648,7.277Zm7.391-.007.044-.1-.044.095L12,7.248Zm.252-.04h0l-.019-.014ZM17.557,7.2Zm-5.313,0h0l-.122-.028h0ZM6.876,7.18Zm19.538-.018.03.014-.029-.014-.023-.081ZM22.088,7.175Zm-9.866-.031.039.017h0l-.04-.016Zm9.746.013.133-.02-.133.02ZM11.4,7.029l-.077.091.077-.091.015-.058ZM21.785,7.082Zm0,0,.022-.039h0ZM26.4,7.052l-.027.014.021.015-.02-.015.027-.014-.006-.021ZM9.351,7.076l.078-.011ZM26.29,6.987l.038.058h0l-.038-.057L26.33,6.9ZM9.421,7.044l.05-.051h0Zm-4.55,0,.082-.084-.068-.07.068.07-.081.083Zm7.279-.005h0Zm9.634,0h0l.024-.016Zm4.608,0-.038,0h0ZM21.809,7.016ZM6.775,6.978l-.023.038.023-.037.033-.02ZM9.394,7l.033-.005.01-.041-.01.04L9.394,7,9.3,6.9Zm1.953-.128v.054l.064.046-.064-.047V6.872l-.04-.017ZM21.73,6.942ZM9.579,6.891l-.028.031-.059.013.059-.013.028-.031.047,0Zm-.086.044-.024-.011h0ZM15.077,6.934Zm11.29,0,.061-.077.031-.005V6.831l-.073-.052.018-.061h.086l.031-.028-.1-.136.1.136-.03.028H26.4l-.018.061.073.052V6.85l-.031.005-.062.076ZM9.25,6.89l.042-.083Zm.614,0,.06,0,.068-.043.112-.005.014.012-.014-.013-.113.005-.069.043-.06,0-.192-.022-.028.016.028-.015ZM4.909,6.845l-.024.041.025-.042-.014-.1Zm5.783.031.049-.02,0-.07,0,.069-.048.02-.072-.113ZM6.818,6.873Zm8.231-.035.041.034ZM10.3,6.826l.074.035L10.3,6.826l-.115-.02ZM11.353,6.8l-.044.054.045-.055-.014-.043Zm-1.2.015-.032.03.032-.029v0ZM9.1,6.618l.023.064-.006.031.06.108h0l-.06-.107.006-.031L9.1,6.617Zm1.085.189-.03-.031h0ZM12.208,6.8h0l-.02-.028h0Zm-.054,0h0l-.011,0Zm-1.283,0-.092-.024h0Zm10.871-.067.008.066-.008-.066-.122-.072-.032.013h0l.031-.014ZM10.55,6.79l-.024-.038h0ZM4.984,6.769l.022-.044h0l-.022.044Zm7.32-.01v0l-.053-.039,0,0Zm-.986,0,.023,0-.022,0Zm-.088-.122.1.068-.008.046.009-.046-.1-.068,0-.036ZM5.142,6.75l.028,0V6.719l.02-.005h0l-.02.005v.027l-.028,0-.085-.038-.014.015.014-.015Zm.1-.011.018-.068.025-.007-.026.007Zm9.844-.061.016.054Zm-2.73.031L12.4,6.7h0ZM15.567,6.7h0l-.01-.045h0Zm-3.13-.02h0l-.028-.01h0Zm3.087-.02h0l-.009-.022Zm-8.786,0,.016-.022h0Zm5.751-.015h0l-.017-.01h0ZM21.4,6.627l-.036-.041Zm-4.377-.01.028-.026.019.024-.019-.024ZM5.382,6.522l.025.039-.018.048.019-.049-.026-.038Zm3.726.08.015-.027h0Zm2.125,0-.038-.02-.024.005h0l.025-.005Zm4.2-.135,0,.086.015.032-.015-.031,0-.086.035-.1h0Zm-8.8.1.043.022Zm10.479.019h0l-.033-.039Zm-1.107-.075,0,.066h0l0-.066ZM8.99,6.471l0,.074V6.471h0Zm8.1.014-.007.057.007-.057.017-.007ZM6.641,6.542,6.692,6.5h0Zm8.653-.084.023.007.045.068h0l-.045-.068-.023-.007Zm5.912.013.007,0-.007,0Zm-12.212-.2v.049l.041.112-.026.009,0,.03h0l0-.03.027-.009L9,6.317l0-.05Zm8.1.193.014-.064Zm4.053-.131.045.128ZM5.463,6.448l-.015.005.016-.005-.037-.023Zm9.829-.009h0Zm.779-.005.019-.049h0ZM5.427,6.424l.013-.049Zm9.885,0h0l-.062-.034-.035.016v0l.037-.017ZM6.661,6.408Zm9.569-.159.03.139h0l-.03-.139ZM5.277,6.235l.061.049.085.051.016.041-.016-.041-.085-.05-.061-.049-.192-.274Zm9.949.122.028,0h0l-.028,0Zm5.919-.029.176-.232h0ZM9.1,6.283,9.149,6.2h0L9.1,6.283Zm-.086-.018.007-.021.022,0-.022,0ZM6.771,6.252Zm-.056-.022h0L6.75,6.2Zm2.478,0L9.214,6.2Zm7.779-.023.005-.034ZM9.129,6.028l-.023.043.086.025.022.1L9.194,6.1l-.086-.024.023-.043L9.122,6Zm7.8.167-.017,0,.018,0,.016-.048ZM6.782,6.178h0Zm9.589-.013h0l-.1-.023-.036.009h0l.036-.009ZM5.486,6.109l-.012.049.012-.049.031-.028ZM6.79,6.14ZM5.511,6.051l.06-.02Zm11.336-.007h0l-.033-.035ZM6.755,6.041Zm0,0,.121-.008h0Zm14.512-.086.005.076Zm-.45.056h0L20.8,5.991Zm-4,0,.086-.021Zm4.036,0,.006-.016ZM9.134,5.921l-.011.057L9.15,6,9.122,6l.029,0-.027-.022.011-.056.024-.011Zm11.722.07-.014-.009h0ZM16.89,5.926l.01.062-.01-.063-.2-.059Zm3.737.026.045.033-.044-.033L20.6,5.895ZM5.038,5.733l0,.043.076.055-.023.033-.009.1.01-.1.023-.033-.076-.055,0-.043Zm11.3.217-.008-.014-.019.006v0l.019-.006ZM6.825,5.925Zm14.129,0,.012-.03ZM5.592,5.894l.09.015.036-.065L5.8,5.9l.1-.067.059.011.01-.034.062.021.051-.017.041.01.06-.024.032-.075.089-.1h.047l.023.029.052.018L6.44,5.7l.085-.068.168.071.05-.092.047,0-.047,0-.05.092-.168-.071L6.44,5.7l-.012-.023-.052-.018-.023-.029H6.305l-.089.1L6.184,5.8l-.06.024-.041-.01-.051.017-.062-.021-.01.034L5.9,5.836,5.8,5.9l-.086-.058-.036.065Zm1.177,0h0Zm13.832,0,.012-.04ZM9.188,5.854l.026.032h0l-.026-.032,0-.058-.046.014L9.186,5.8Zm-3.595.019-.044-.005ZM9.141,5.81l.01.039Zm-2.336.036L6.9,5.828h0Zm0,0-.019-.018L6.72,5.783l.067.045-.007.008.007-.007Zm14.584-.007h0l-.011-.015Zm.041-.007-.034-.01,0,0,0,0Zm-.78-.071-.061.068h0l.062-.069.02-.05Zm.729.063-.061-.005h0ZM6.926,5.784l-.018.028.018-.027,0-.047Zm9.466.01h0l0-.007ZM21.5,5.765ZM16.581,5.746Zm-7.51,0,.023-.005-.023,0Zm0-.006.006-.107-.091.031.09-.03Zm-2.33,0L6.729,5.7ZM5.06,5.719Zm-.008-.027.008.027-.007-.027.023-.034h0ZM16.6,5.716h0L16.588,5.7l-.044-.049h0l.044.049Zm5.169-.007h0l-.062-.029h0ZM21.7,5.7h0l-.069-.034ZM6.962,5.7h0l.061-.054ZM21.81,5.688h-.031ZM20.635,5.66,20.6,5.653h0Zm-.067-.1.013.1-.012-.1-.1-.014ZM5.1,5.657l0-.084,0,.084Zm9.012-.074v.049l0,.019,0-.02Zm7.772.031h0l-.06,0Zm-14.624,0h0l-.18,0Zm1.525-.02-.053-.048h0Zm7.773-.037.01.011h0l-.009-.01ZM7.276,5.567Zm-2.308,0h0l-.021-.01Zm-.021-.01L4.928,5.52Zm3.812,0-.006-.015.028-.01-.059-.06-.029-.023-.084,0h.083l.029.023.058.06-.028.01.007.015ZM20.4,5.494l.063.054L20.4,5.494l-.021-.022Zm-13.138.05h0l.014-.012Zm14.988,0,.017-.028h0Zm0,0-.032-.022h0Zm-.139-.065.031,0,.06.056.008-.008-.008.007-.059-.055-.031,0-.027-.044h0Zm-7.975.058h0l0-.013Zm7.876,0h0l-.084-.061h0ZM4.855,5.515h0L4.86,5.45Zm11.757-.033.017.028h0l-.018-.028ZM7.327,5.5h0L7.3,5.49h0Zm-2.354,0V5.471l.02-.01-.021.01Zm17.447-.021.023.017h0l-.023-.017.006-.013Zm-8.307-.007.019.014h0l-.019-.014ZM22.241,5.477Zm-14.914,0h0Zm13.056,0,.017-.05ZM22.011,5.471Zm-9.489-.006.035-.009h0l-.036.009Zm9.9-.005-.059-.014h0ZM5,5.34l.01.061.028.04h0L5.008,5.4,5,5.339Zm2.344.1h0L7.4,5.415ZM8.5,5.274l.113.068,0,.093,0-.093L8.5,5.273Zm8.131.109,0,.018.012.029h0l-.012-.03,0-.017,0,0ZM7.4,5.415l.024-.072.077.008L7.52,5.28l.035.006L7.52,5.279,7.5,5.351l-.077-.008ZM22.513,5.412ZM4.653,5.4l-.01-.085Zm-.373,0,.014-.084Zm12.988,0h0L17.2,5.341Zm-12.7,0V5.369Zm17.9,0h0l.009-.017ZM17.709,5.4h0l-.034-.016h0Zm-.937,0h0l-.016-.02h0Zm.029-.005-.011-.008h0Zm.71-.016h.112l.006.013-.005-.013h-.112l0-.034Zm-.068,0,.005-.03.065-.009-.065.009ZM4.571,5.369l-.032,0h0Zm15.777,0,.014-.023h0Zm-7.914-.014.03-.015h0l-.031.015Zm4.219-.028.006.019h0l-.005-.021-.062-.012-.056.016-.013-.046h0l.014.048.055-.016Zm.548.013h0l.01-.076h0ZM17.787,5.329ZM5.04,5.212l0,.058h.041l.024.04-.023-.04h-.04l0-.058L5.022,5.18h0ZM14.4,5.193l.009.087h0L14.4,5.191l-.011-.008Zm2.48.077.049-.023Zm.248-.006h0l-.069-.033h0Zm-.792-.184.094.032.042.15.081-.038,0,0-.083.039-.041-.15-.094-.032Zm-4.172.175.033-.008.017-.026h0l-.017.026-.033.008Zm-7.987,0V5.235Zm12.83-.03.039.019-.038-.019-.007-.034h0Zm-12.927,0,0-.116Zm8.1-.009h0l-.043,0h0Zm.166,0-.01-.014h-.006ZM17.913,5.2v0ZM8.513,5.2ZM16.933,5.2ZM4.988,5.19Zm12.971-.007h0l-.006-.007Zm-4.5-.008v0l.054-.133v0Zm4.54-.026h0ZM7.646,5.143Zm0,0-.032-.005h0ZM5.008,5.124h0l-.1-.059h0Zm9.313-.006.006.005L14.322,5.1ZM12.208,5.1h0l-.046-.029h0Zm-8.134,0,.017-.013ZM18.023,5.1ZM7.654,5.1l.076-.017L7.655,5.1l.006-.046Zm.917,0,.011-.078h0ZM5.01,5.081l.015-.094-.016.093ZM7.69,5.075l.045-.014h0Zm10.326-.007h0ZM14.3,5.049l.012.015-.009-.037Zm2.056,0h0l-.017-.01h-.007Zm2.4-.008L18.742,5h0Zm-2.387,0,0-.021,0,.021Zm2.483-.014-.024-.008h0Zm1.011,0,.03-.041Zm-11.334,0h0l-.013-.058Zm-4.452,0,.013-.014Zm-.058-.075,0,.068,0-.068-.046-.085Zm15.439.039L19.47,5ZM18.682,5h0l-.005-.058Zm1.085-.032L19.761,5h0l.006-.03-.126-.095ZM15.159,4.9l.1.039L15.278,5l.068-.088.072.045L15.426,5l.037,0,.087-.056h.042v0H15.55L15.463,5l-.037,0-.006-.04-.073-.044L15.278,5l-.017-.068-.1-.038Zm-1.651.1v0l.007-.01Zm.819-.042-.015.031,0,.014.018-.045.019-.009Zm-6.6.042h.056Zm10.7,0h0l-.049-.012ZM4.964,4.919l.049.039.013.029-.013-.029Zm13.289.064h0l-.025-.029Zm.122-.008-.03-.039h0Zm-10.532,0h0l-.034-.035-.012,0,.012,0Zm8.639-.032.017.03h0l-.017-.03ZM19.4,4.959Zm-1.177-.005-.057-.008-.031-.053.03.053Zm-2.572,0,.026-.023.1.014.025-.03h0l-.024.029-.1-.013-.025.023L15.6,4.924l-.007.018.007-.016Zm-1.828-.168.148.159.076-.045h.142l.031-.024.031-.065.058-.02.092.03.028.03v0l-.028-.03-.092-.03-.058.02-.031.064-.031.025h-.142l-.076.045-.149-.159-.117-.02-.133.01-.015.01v0l.015-.01.133-.01Zm-5.857.13.082.022-.081-.022L7.919,4.88h0Zm5.657,0,.016-.03h0l-.015.028-.044-.01-.01.012.009-.009Zm-5.2,0-.023-.078.058-.012-.058.012L8.3,4.842l.105,0ZM12.216,4.9h0l-.044,0h0ZM8.1,4.9l.015-.051.086.019-.086-.02Zm8.4,0v0l-.048,0h-.037ZM18.14,4.892Zm-14.3,0h0l-.069-.049ZM16.2,4.724l.065.031.051.132h.009l-.009,0-.05-.131L16.2,4.722l-.041-.062-.078.022v0l.078-.021Zm-.357.149.032-.033.156.008v0l-.156-.009-.032.034-.033-.011v0Zm-.831-.1h.032v.035l.1.018.006.029h.013v0h-.014l-.006-.03-.1-.017V4.77h-.033ZM5.3,4.83l-.023.018L5.3,4.83l-.014-.046L5.262,4.8l.025-.01Zm3-.059v0l-.024-.016h0Zm7.725.03v0l.018-.011h0ZM3.761,4.8l.017-.031Zm1.49,0h0l.011-.042Zm3.191-.027.022-.048ZM18.261,4.752Zm-13,0h0l-.031-.087ZM3.421,4.694l.018.045-.017-.045L3.39,4.685Zm12.615.035v0l.042-.007v0ZM5.372,4.653l.055.055-.055-.055-.005-.03-.018,0,.018,0ZM15.1,4.69l.013.017h0L15.1,4.688Zm-2.948-.005h0l.02-.008h0ZM8.433,4.639,8.4,4.677l.034-.039,0-.044Zm6.631-.01.043.042h0l-.043-.043ZM6.131,4.616l.031.042-.008.01.009-.01Zm6.057.05h0l-.024,0h0ZM18.26,4.641ZM5.388,4.6l.024-.039L5.4,4.512h0l.015.054L5.387,4.6Zm6.861-.012.04-.023h0l-.039.023-.028-.014h0Zm6.056,0,0-.1ZM5.533,4.579l-.005-.021.085-.039.123-.045h0l-.123.045-.085.039ZM8.419,4.578ZM15.1,4.557h0l0-.014Zm-9.111,0,.018-.006-.019.006Zm-.052-.006h0l.023-.028ZM8.489,4.544Zm3.8-.012h0l.04-.029Zm-6.084-.17.011.089L6.206,4.5l.013-.051-.011-.089L6.233,4.3Zm8.869.126.018.007v0l-.018-.006V4.465l-.026.009v0l.026-.009Zm-9.319,0-.005-.05h0Zm12.656-.069-.125.03Zm-12.6.022.1-.029h0Zm9.2-.025.038,0v0l-.038,0Zm-.068-.131,0,.063.073.044v0l-.072-.045,0-.062-.081-.013-.017.041-.181,0-.012.016L14.567,4.3l-.018-.019-.022.014v0l.021-.014.019.02.082.023.012-.016.182,0,.017-.04Zm3.474.1.029,0-.029,0Zm-3.957-.018h.027l.037-.006v0l-.036.007-.027,0-.006-.025h0Zm-5.936,0,.012-.045h0Zm5.951-.024,0-.026h0l0,.025Zm-.018-.014.043-.032.026-.02-.067.05-.1-.047-.061.016,0-.032.022-.041-.025-.041h0l.026.041-.022.041,0,.032.061-.016ZM12.19,4.288h0l.062-.008h0Zm.058-.036h0l.02-.014h0ZM8.473,4.22l.014-.076Zm-2.239,0,.037-.087h0ZM18.337,4.218Zm-4-.033.006-.034h0l-.006.031Zm-2.02,0v0l-.067-.013-.022.012h0l.021-.011Zm-5.86-.019L6.485,4.1l-.03.057Zm7.618-.5.065.027v.094l.031.042.039.116.077.021.009.023.049.028.02.113,0,0-.02-.114L14.3,3.987l-.009-.023-.076-.021-.039-.116-.031-.042V3.69l-.065-.027-.006-.042-.165.01-.011-.078.023-.057-.038-.055,0,0,.04.055-.023.058.011.078.166-.011Zm-5.6.447.03-.047h0ZM6.407,4.036l.034,0,.042.039,0,.025,0-.025L6.442,4.04l-.034,0,.018-.182ZM18.364,4.09ZM8.491,4.033h0L8.505,4Zm0-.041.016-.03ZM18.4,3.969h-.04ZM8.444,3.905ZM8.478,3.858ZM6.36,3.8l.066.052L6.362,3.8ZM18.327,3.8l-.02.016.021-.015.064,0h0ZM6.554,3.766l-.137.013.138-.013,0-.072ZM12.2,3.747l0,0-.053-.021-.047,0v0l.046,0Zm5.992-.012v0Zm0-.024.065-.038h0Zm-.032-.086-.027.086.027-.086.041-.031Zm-9.73.058.03-.014h0ZM6.567,3.55l.028.126-.009,0,.01,0L6.567,3.55,6.45,3.471l-.069.009-.062-.018.062.018.069-.009Zm5.609.1h0l.075-.116h0ZM8.549,3.579,8.541,3.6l-.089.007L8.541,3.6l.008-.023.078,0Zm.07-.1-.01.054.01-.054.07-.049ZM18.176,3.509Zm-.191-.045.007-.013h0ZM6.31,3.374l.022.038-.013.05.014-.05Zm7.573-.124.005.093.04.059-.007.018h0l.007-.02-.04-.059-.005-.094.016-.022h0ZM6.31,3.374l.039-.019h0Zm.1-.011V3.319h0Zm.031-.021.07-.031-.07.03Zm5.522-.066-.006.064.007-.064Zm-3.271.039L8.712,3.3Zm9.356,0h0l-.049-.048ZM6.538,3.283l-.013-.076-.1-.113L6.33,3.074l0-.045L6.307,3l.011-.033-.043-.034-.03,0-.013-.057-.058-.027L6.134,2.8l.04.042.058.027.013.058.03,0,.042.034L6.306,3l.022.027,0,.045.091.021.1.113.013.076Zm2.237-.129L8.7,3.279l.069-.124.1-.092ZM17.995,3.263Zm-4.088-.17.043.059-.024.046.038.019,0,0-.04-.019.024-.046-.043-.059.012-.013h0ZM18.018,3.193ZM18.125,3.149ZM18.112,3.089Zm-4.13-.008,0,0,0,0ZM8.826,3.015l.024-.025Zm9.33-.025.005.01-.005-.011Zm-6.3,0h0l.1-.033h0Zm.1-.016L12,2.966l.072-.133h0L12,2.966l-.042.006V2.957Zm6.172-.059.045.009-.043-.01ZM18.157,2.907Zm.013-.029-.034.011ZM8.9,2.85l-.089.019L8.9,2.851l.044-.067Zm9.217-.075h0l0-.06ZM6.126,2.719l.013.011Zm12.033-.01.042.009Zm-.007-.086-.031.035.04.022v.03l0-.03-.04-.022.031-.035-.015-.013h0ZM6.16,2.7h0l-.02-.037h0ZM6.016,2.68l.038.021L6.07,2.69,6.1,2.7h0L6.07,2.689,6.054,2.7Zm-.1.015.018-.018.027.009-.027-.009-.018.017ZM8.9,2.695Zm-2.981,0,0-.039h0Zm12.322-.037.01.025.022,0h0l-.022,0-.01-.025-.04,0Zm0,.022h0l-.022,0ZM5.948,2.663l.02-.031h0Zm-.124-.1L5.9,2.62l.011.034h0L5.9,2.619ZM18.09,2.644Zm-9.128-.1.069.046.02.037h0l-.021-.037ZM9.1,2.627ZM18.253,2.622Zm.026-.036h0l0,0ZM8.969,2.493ZM18.282,2.45ZM9.12,2.413l-.074.012.074-.012.043-.053.033.011L9.163,2.36Zm-3.332,0,.037,0ZM18.274,2.408ZM5.756,2.385h0l.007-.033Zm12.55,0,.071-.038ZM5.673,2.334l.006.028.086-.01-.086.009-.005-.027ZM5.7,2.261l.045.021v0Zm12.7-.083h0l-.077,0ZM5.76,2.143l-.035-.058Zm-.068-.054h0l-.015-.052-.036.022.036-.022Zm.024-.055.02-.053h0Zm-.018,0L5.7,2.012Zm.143-.22-.017.077.018-.077.025-.025Zm.022-.055,0,.03,0-.03Zm.031-.067-.021.045L5.9,1.688l-.017-.044-.021.018-.017-.007.017.008.021-.019Zm-.074-.245.022.06-.022.016-.012.04.049.054-.017.041.018-.041L5.81,1.56l.012-.04L5.845,1.5l-.023-.061ZM18.19,1.631Zm.036-.019.035-.077.039-.017-.039.017-.035.077-.022,0h0Zm.123-.275-.09.057ZM18.424,1.278ZM18.466,1.254Zm.07-.014.01-.032-.01.032-.051-.013h0Zm.065-.023h0l-.023-.02h0ZM18.563.985Zm.163-.094.04.063L18.727.891H18.7Zm-.079.052h0Zm.24-.022v0ZM18.874.8l.014-.014L18.873.8ZM18.787.792l.032-.009h0l-.031.009L18.8.768ZM18.742.719l0-.028ZM18.627.662,18.6.65l.022-.013h0L18.6.65ZM18.6.61l-.009.047Zm-.024-.1.033-.034ZM18.64.426l-.057.022ZM18.7.223ZM18.706.169Zm-.371,16.547.012-.041-.01.045Zm2.588-.459-.073-.076.035.006.033.035.072-.011-.012.062Zm-3.081-.084-.173-.038.076-.015.088-.055.06.049.047.008.021-.024.058.041.1.008.045.027-.062.018Zm-.209-.046.036.008h-.007Zm-.327-.072.021,0,.166.03.141.045Zm3.09.014-.02-.086.065-.063.056,0-.029.021-.01.034L20.4,16l.006.067Zm-4.5-.385-.167-.063-.087-.072-.046-.08-.006-.093.02-.041.016,0,0,.123.018.063.041.054.095.049.08-.011.01.013-.034.01,0,.018.495.122Zm.006-.52-.129-.137-.125-.1-.072-.1.043.059.076.044.124,0,.169-.024.082.05.086.023-.018.044-.04,0-.026.045-.085-.023-.053.013-.04.041-.007.04.025.029Z" transform="translate(4.5 2.5)" fill="url(#radial-gradient)"/>
  </g>
</svg>
