<svg xmlns="http://www.w3.org/2000/svg" width="13.939" height="20.003" viewBox="0 0 13.939 20.003">
  <g id="_22" data-name="22" transform="translate(-0.001 0.001)">
    <g id="Слой_1" data-name="Слой 1" transform="translate(0 0)">
      <path id="Union_10" data-name="Union 10" d="M6.551,19.989c-.128-.031-.239-.052-.283-.2-.014-.047-.1-.041-.145-.007a.305.305,0,0,1-.308.027.18.18,0,0,0-.213.027c-.013.012-.04.026-.049.021a.12.12,0,0,0-.118,0,.122.122,0,0,1-.122,0,.037.037,0,0,0-.037,0c-.1.112-.168.054-.238,0-.053-.043-.106-.087-.169-.058l-.058-.149c-.016-.083.083-.135.081-.216,0-.014-.006-.027-.011-.044a.81.81,0,0,1-.049-.194c-.023-.089-.028-.184-.139-.229-.058-.022-.038-.127-.1-.154a2.149,2.149,0,0,0-.525-.271c-.048-.008-.084-.02-.1-.073-.038-.12-.088-.217-.242-.232-.077-.008-.149-.117-.212.023-.011.025-.046.015-.066-.012a.553.553,0,0,1-.155-.5c.034-.109.005-.225.067-.336.052-.09-.02-.215.055-.319.027-.037.047-.058.09-.061.043-.032.03-.114.1-.12a.337.337,0,0,0-.091-.447c-.059-.041-.038-.128-.11-.163-.032-.014-.056-.041-.1-.033-.092.022-.106-.023-.085-.1-.013-.069-.1-.113-.072-.2,0-.039,0-.079-.037-.1a.5.5,0,0,1-.472.047c-.131-.033-.276-.074-.4.059a.129.129,0,0,1-.206-.059c-.014-.136-.082-.112-.165-.076-.054.036-.1.011-.138-.025a3.535,3.535,0,0,0-.486-.386.1.1,0,0,1-.085-.02c-.032-.02-.066-.04-.1-.007-.017,0-.04,0-.049-.014A1.36,1.36,0,0,1,.851,15.1c0-.014,0-.028,0-.041-.095,0-.145.083-.249.113.129-.13-.037-.232-.013-.356-.029-.015-.044.018-.063.03s-.04.027-.06.006-.009-.042,0-.06c.024-.038.052-.074.077-.111A.3.3,0,0,0,.6,14.4c-.078-.183-.071-.386-.154-.565H.428a1.779,1.779,0,0,1-.063.457c0,.018.012.04,0,.053a3.583,3.583,0,0,0-.138.479c-.029.083-.119.13-.15.217-.007.019-.04,0-.058-.014S0,14.987.016,14.961a2.28,2.28,0,0,0,.3-.744,3.6,3.6,0,0,0,.024-.566c0-.035.044-.032.054-.059a.3.3,0,0,1-.086-.307.267.267,0,0,0-.006-.133.934.934,0,0,1,.058-.513c0-.04,0-.081,0-.121a2.98,2.98,0,0,0-.131-.686.567.567,0,0,1,.007-.226c0-.036.025-.075.016-.105a.7.7,0,0,1,.1-.486h0c0-.042,0-.085,0-.126a.362.362,0,0,1,.005-.312,1.515,1.515,0,0,0,.136-.747A.12.12,0,0,1,.581,9.7.985.985,0,0,0,.96,9.368c.052-.082.155-.132.2-.229a.457.457,0,0,0,.054-.349.237.237,0,0,1,.012-.172.135.135,0,0,0,.022-.064c-.033-.319.2-.527.335-.77.065-.112.147-.217.213-.328a.358.358,0,0,1,.433-.171.271.271,0,0,0,.2-.054,6.131,6.131,0,0,1,.93-.431c.049-.022.11-.048.154-.011s0,.085-.013.125a.425.425,0,0,0,.2.554,1.387,1.387,0,0,1,.341.343.771.771,0,0,0,.326.294c.114.05.115.186.129.28a2.658,2.658,0,0,1,.122.586c-.008.131.115.2.226.24a.781.781,0,0,1,.353.205.326.326,0,0,0,.315.082.85.85,0,0,0,.443-.188A4.812,4.812,0,0,0,6.728,8.6a.314.314,0,0,0,.046-.256,8.077,8.077,0,0,1-.089-.87,1.159,1.159,0,0,1,.009-.348c-.016-.056-.082-.086-.076-.153A.065.065,0,0,1,6.6,6.909a.687.687,0,0,1-.027-.349,2.461,2.461,0,0,1,.266-.682c.065-.093.031-.22.027-.331a.544.544,0,0,1,.143-.469.161.161,0,0,0-.014-.25.424.424,0,0,0-.237-.12c-.108-.018-.176.023-.19.135a.407.407,0,0,1-.054.179c-.039.152-.155.116-.261.108-.085.121-.085.121-.2-.057a.346.346,0,0,0-.291-.135c-.012,0-.032,0-.037-.009-.058-.094-.119-.173-.227-.051-.008.011-.038-.01-.035-.028.019-.126-.086-.222-.082-.345a.739.739,0,0,1,0-.244c0-.009,0-.018,0-.027l0-.027a.052.052,0,0,0,0-.013c-.144.008-.174-.123-.246-.2-.014.041-.042.063-.1.086A1.782,1.782,0,0,0,5.046,3.6c-.011-.064.057-.09.062-.155.008-.1.08-.021.122-.017.058.005.076-.04.112-.063.126-.064.185.039.271.13.005-.105-.1-.286.133-.181,0-.064-.038-.1-.078-.1a3.322,3.322,0,0,1-.491.032c-.03,0-.062.032-.094.049s-.059.006-.086,0c-.109-.015-.047-.068-.023-.112s.078-.038.126-.068c-.114-.079-.124-.212-.184-.32C4.871,2.71,4.9,2.661,5,2.668a.942.942,0,0,0,.175-.005.18.18,0,0,0,.146-.108A.067.067,0,0,0,5.325,2.5a.07.07,0,0,0-.033-.041c-.033-.02-.089-.026-.093.009-.013.11-.081.071-.136.06a.15.15,0,0,1-.128-.152c.006-.057-.021-.146.079-.176.07-.022.146-.059.124-.16,0-.023-.006-.047-.01-.07-.023-.043-.049-.087-.07-.13s-.07-.1-.021-.132.069-.153.166-.074c.029.023.04,0,.051-.018.062-.078.119-.122.22-.041.048.04.06-.028.054-.068-.008-.059-.029-.124.071-.069.03.015.052,0,.069-.023.031-.041.065-.047.1-.006a.132.132,0,0,0,.2.013.119.119,0,0,1,.158-.011.076.076,0,0,0,.1-.007c.022-.029-.011-.059-.029-.083s-.059-.068-.084-.106-.072-.1-.024-.144.107-.026.164,0,.084.108.167.1c.007-.077-.066-.109-.078-.18.048,0,.095,0,.139,0,.075,0,.109-.057.13-.12.014-.046.013-.1.06-.129s.088-.047.131,0c.045.028.089.058.135.083.022.01.058.037.071.01C7.1.671,7.13.833,7.181.864c.022.013.035.042.066.017A.252.252,0,0,1,7.24.83c0-.049-.023-.12.041-.136s.084.049.1.1c.035.022.063.073.116.036A.116.116,0,0,0,7.544.706C7.531.635,7.509.567,7.494.5A.076.076,0,0,1,7.518.411c.037-.024.062.006.081.027.09.1.172.194.332.127C7.99.54,8.02.646,8.1.653c0-.122.039-.138.157-.084.1.045.228.032.334.089.033.017.063,0,.063-.044,0-.137.072-.09.14-.059l.066,0C8.89.5,8.847.462,8.829.418a.415.415,0,0,1-.05-.3c.008-.03.02-.067.054-.067s.032.036.039.061c.039.147.174.187.287.244.071.036.069-.031.057-.075A.485.485,0,0,1,9.175,0c.095.065.18.116.188.237a.121.121,0,0,0,.091.121c.054.005.037-.061.054-.095S9.516.187,9.56.194s.051.058.068.094c.036.022.068.027.078-.025s.005-.108.07-.108.1.052.123.106a.449.449,0,0,0,.243.054c.076,0,.157-.029.217.049a.109.109,0,0,0,.132.02c.061-.023.1-.006.115.063l.023.023.081.01L10.9.414a.328.328,0,0,1,.29.152.662.662,0,0,0,.69.217.951.951,0,0,1,.16-.008l.135,0a.96.96,0,0,1,.491.04.766.766,0,0,0,.268.016.66.66,0,0,1,.188.011c.21.054.257.035.378-.151,0-.034.013-.057.054-.047.163.045.217.205.321.311.051.052.008.09-.046.109l-.271.092c.045.054.118.029.162.091a.323.323,0,0,1-.177.027c-.162-.014-.232.039-.25.207a5.081,5.081,0,0,1-.087.559c-.015.066-.033.131-.054.2-.061.188-.076.194-.266.151a.815.815,0,0,0-.491.017c-.133.053-.275.086-.411.131a.6.6,0,0,0-.379.539.209.209,0,0,0,.116.2.588.588,0,0,1,.305.431c.027.121.071.243.108.365a.682.682,0,0,1,.041.379c-.023.1.053.136.138.142a.239.239,0,0,1,.2.084c.034.032.051.068.011.108a.95.95,0,0,0,.088.319c.064.161.131.321.2.482.027.067.084.115.1.186.033.045.019.1.019.145a.715.715,0,0,0,.05.2c.035,0,.04-.023.047-.041.015-.044.042-.07.09-.049a.077.077,0,0,1,.047.11c-.069.141-.01.206.126.244.062.019.137.051.13.136a.162.162,0,0,1-.135.135.659.659,0,0,1-.132.024c-.232.013-.308.1-.277.339.008.068-.027.086-.082.1a.18.18,0,0,0-.153.238.145.145,0,0,1-.058.177c-.047.03-.029.092-.023.138s.043.095,0,.139l-.051.031a.1.1,0,0,0,.074.128c.2.051.3.248.486.309a.047.047,0,0,1,.021.017c.078.111.025.237.039.355a.226.226,0,0,1-.171.279c-.055.014-.1.046-.058.1.135.17.025.342.011.511a.529.529,0,0,1-.112.238c-.02.03-.041.071-.014.1s.075,0,.108-.02.039-.039.062-.05c.086-.045.163-.058.235.038s.175.16.068.294c-.034.044,0,.1.049.126a.368.368,0,0,1,.171.318c.01.121.048.22.183.25.057.014.089.054.057.111a.127.127,0,0,0,.039.168.248.248,0,0,1,.084.23.718.718,0,0,0,.076.325.269.269,0,0,1-.013.283c-.024.031-.014.069-.014.1,0,.094-.006.18-.141.139a.066.066,0,0,0-.069.033.257.257,0,0,1-.2.105.053.053,0,0,0-.037.015c-.1.146-.28.234-.311.425-.014.084-.076.112-.129.144a.285.285,0,0,0-.148.277c0,.312-.14.394-.445.248-.078-.037-.13-.065-.187.021-.043.066-.093.02-.122-.015a.366.366,0,0,0-.42-.072c-.12.034-.186.176-.25.285-.089.15-.175.254-.372.187-.107-.036-.158.035-.121.134a.378.378,0,0,1-.082.356c-.01.015-.029.032-.027.046.04.222-.112.393-.157.593-.014.064.12.138.2.085a.224.224,0,0,1,.241,0,.26.26,0,0,0,.184.032c.022-.006.046.03.043.07,0,.058-.011.116-.072.129a.259.259,0,0,0-.229.32c.007.086-.038.138-.138.094s-.181-.1-.28-.005c-.024.024-.068-.009-.1-.021-.156-.051-.232-.005-.241.163a.6.6,0,0,1-.181.394c-.068.071-.173.059-.248.115-.036.01-.072.031-.11,0-.1-.021-.176-.005-.206.112-.007.031-.049.051-.071.078-.1.13-.085.3-.148.45-.028.065.02.182-.028.277a.2.2,0,0,0,.033.179c.082.143.057.214-.093.283a.184.184,0,0,0-.126.236.233.233,0,0,1-.106.31c-.083.049-.13.131-.046.226s.148.084.241-.009c.027-.028.076-.054.082-.005.008.081.076.1.11.156s.113.127.04.217a.1.1,0,0,0,0,.078c.036.107-.012.142-.111.138a.434.434,0,0,1-.325.054c-.119-.035-.152-.1-.093-.193.009-.014.026-.019.024-.042-.01-.1-.008-.1.05-.132-.05-.062-.09-.156-.154-.178-.085-.031-.1.111-.175.135-.03.01-.059.022-.087.032a.2.2,0,0,1-.162-.016c-.088-.022-.129,0-.134.1a.319.319,0,0,1-.449.268c-.1-.049-.212.037-.293.095-.151.11-.019.189,0,.274a.21.21,0,0,1-.22.264c-.013,0-.023-.025-.035-.039-.072.071-.146.036-.22,0,0,.054.036.077.085.092-.086.011-.17.072-.246-.012a.536.536,0,0,0-.185.174.073.073,0,0,1-.063.04A.321.321,0,0,1,6.551,19.989Zm-6.187-5.7-.009-.014A.021.021,0,0,0,.365,14.293ZM9.731,4.7c-.006.048.016.1-.02.144a.126.126,0,0,0-.025.19c.111.141.1.347.248.466.014.011.014.041.022.063,0,.059-.037.128.046.182V5.48l-.01.016A.024.024,0,0,1,10,5.48c.014-.032.031-.065.043-.1a.961.961,0,0,0,.039-.627h0c-.04-.135-.157-.109-.249-.137a.09.09,0,0,0-.026,0C9.764,4.614,9.749,4.659,9.731,4.7ZM4.4,6.826c0-.031,0-.056.042-.049a.1.1,0,0,1,.09.087c.006.038-.024.053-.053.062A.1.1,0,0,1,4.4,6.826ZM2.121,6.358c-.055-.01-.031-.07-.05-.1-.117-.15.01-.251.068-.365a1.311,1.311,0,0,1,.122-.175c.04-.056.059-.008.086,0,.015-.025.031-.05.045-.076,0-.007,0-.011.007-.011a.106.106,0,0,1,.032-.076c.069-.077.053-.113-.049-.131a.219.219,0,0,1-.2-.186c-.01-.067-.059-.085-.116-.094a.368.368,0,0,1-.182-.084c-.032-.028-.06-.07-.038-.106.035-.058.148-.068.1-.177l.024-.008c.15-.008.211-.117.129-.256A1.292,1.292,0,0,0,1.9,4.2a.574.574,0,0,1-.063-.116c.107.063.178.066.255,0,.051-.042.088.014.11.061a2.822,2.822,0,0,0,.144.285c-.052-.183.122-.246.175-.373.015-.036.051-.027.071.011s.029.095.076.124c.046-.013.043-.057.046-.086.018-.173.034-.193.21-.2a.344.344,0,0,0,.29-.112c.027-.04.054-.079.108-.031.084.175.177.2.345.086a.289.289,0,0,1,.32-.011L4.1,3.91c.025-.038-.041-.055-.019-.092,0-.058.036-.057.076-.046.031-.03.052-.012.073.007s.034.031.057.02c.036-.073.055-.161.163-.164a.116.116,0,0,1,.141,0,.225.225,0,0,1,.165.175.513.513,0,0,0,.079.148l0,.077c.041.133-.042.112-.122.1-.05-.007-.1-.082-.152-.012l-.055.1.082.061a.176.176,0,0,1,.076.081c.014.016.031.031.045.048s.031.051.007.071-.05,0-.067-.023-.031-.056-.069-.056c-.041.036.029.074-.008.115C4.5,4.5,4.461,4.411,4.386,4.37a1.192,1.192,0,0,1-.221.328c0,.06-.036.065-.083.043a.079.079,0,0,1-.038-.022c-.03-.025-.06-.05-.057.058,0,.14-.189.29-.34.3-.086,0-.137.012-.072.112.036.055.012.085-.054.074a.166.166,0,0,1-.076-.024c-.09-.083-.176-.107-.273-.01-.014.014-.054.011-.078,0a.332.332,0,0,0-.453.316.549.549,0,0,1-.126.349c-.006.005-.016.014-.016.021.016.2-.18.256-.261.389a.108.108,0,0,1-.095.056Zm3.822-.607a.118.118,0,0,1-.108-.116.09.09,0,0,1,.024-.074.086.086,0,0,1,.074-.026c.071,0,.091.058.093.123s-.018.093-.072.093ZM3.135,5.582c-.054-.013-.1-.03-.1-.1a.053.053,0,0,1,.059-.057c.06.014.063.077.087.12,0,.027-.011.037-.029.037Zm.04-2.072c-.068,0-.071-.05-.071-.1S3.1,3.276,3.1,3.21c-.077-.089-.04-.2-.049-.3l-.029-.048A.255.255,0,0,0,2.78,2.8a.45.45,0,0,1-.421-.185c-.017-.017-.04-.043-.024-.069s.048-.021.074-.014a.517.517,0,0,0,.265,0,.148.148,0,0,1,.16,0,.257.257,0,0,0,.331-.175.109.109,0,0,1,.084-.078A.1.1,0,0,0,3.326,2.2a.188.188,0,0,1,.249-.1c.045.028.022.059.011.094-.047.147-.008.2.148.2h.027c.215,0,.258.052.239.265.095.029.126.113.163.192.035.056.074.115.025.178-.033.042-.078.021-.116-.006L4,3.02c-.049.029-.144.015-.1.127.017.041-.038.067-.076.076s-.086.027-.116,0c-.054-.054.049-.085.027-.15a.362.362,0,0,0-.2.246c-.043.155-.1.224-.215.224A.492.492,0,0,1,3.174,3.51Zm.985-.792c-.023,0-.028-.021-.022-.039a.046.046,0,0,1,.023-.027c.027-.008.022.019.032.03-.007.018-.01.036-.03.036Zm.216-.293c-.035-.038-.048-.077,0-.117a.17.17,0,0,1,.224,0c.049.04.087.023.132.008.12-.018.157.073.157.154s-.045.067-.09.059a.159.159,0,0,0-.057,0l.025-.009a.056.056,0,0,0-.035.013c0,.007-.007.023-.014.023a.448.448,0,0,1-.139,0,.37.37,0,0,0-.168.012h0C4.376,2.569,4.388,2.472,4.375,2.425Zm.363.1-.01,0Zm.171-1.118c-.036-.01-.083-.009-.094-.06a.026.026,0,0,1,.005-.025.03.03,0,0,1,.023-.009.122.122,0,0,1,.1.054c0,.023-.007.042-.023.042Zm.86-.23a.025.025,0,0,1,.015-.021.022.022,0,0,1,.024,0,.182.182,0,0,1,.082.164.1.1,0,0,1-.021.006A.15.15,0,0,1,5.769,1.179Zm.169,0h0c-.016-.018-.027-.041,0-.05S6,1.143,6,1.178a.116.116,0,0,1,.014.127A.169.169,0,0,1,5.938,1.183ZM7.034.5C6.972.491,6.949.443,6.946.382c0-.038,0-.1.054-.085s.071.086.081.142c0,.029,0,.063-.036.063ZM7.389.357c0-.019.011-.033.032-.032s.025.02.025.038-.014.031-.033.031S7.386.375,7.389.357ZM7.81.176c0-.029.007-.054.04-.056a.081.081,0,0,1,.062.018A.082.082,0,0,1,7.942.2c.006.037-.022.042-.049.045H7.884A.066.066,0,0,1,7.81.176Z" fill="#ababab"/>
    </g>
  </g>
</svg>
