<svg xmlns="http://www.w3.org/2000/svg" xmlns:xlink="http://www.w3.org/1999/xlink" width="43.107" height="29.008" viewBox="0 0 43.107 29.008">
  <defs>
    <radialGradient id="radial-gradient" cx="0.5" cy="0.215" r="0.789" gradientTransform="matrix(0.005, -1, 0.842, 0.004, 0.179, 0.83)" gradientUnits="objectBoundingBox">
      <stop offset="0" stop-color="#fff" stop-opacity="0.302"/>
      <stop offset="1" stop-color="#fff"/>
    </radialGradient>
    <filter id="россия" x="0" y="0" width="43.107" height="29.008" filterUnits="userSpaceOnUse">
      <feOffset dy="2" input="SourceAlpha"/>
      <feGaussianBlur stdDeviation="1.5" result="blur"/>
      <feFlood flood-color="#00325c" flood-opacity="0.4"/>
      <feComposite operator="in" in2="blur"/>
      <feComposite in="SourceGraphic"/>
    </filter>
  </defs>
  <g transform="matrix(1, 0, 0, 1, 0, 0)" filter="url(#россия)">
    <path id="россия-2" data-name="россия" d="M13685.648-4565.222l-.048-.083-.062-.11-.027-.113-.086.086-.142.055-.134-.045-.147-.038v-.134l-.114-.072-.044-.1-.093-.062-.024-.131-.076-.072-.1-.044-.069-.069h-.137l-.069.069-.138.021-.055-.055-.12.024-.065-.069-.062-.059v-.083l-.059-.072-.089.027-.059.127-.12.021-.072-.145-.038-.127-.031-.141-.089-.168v-.131l-.09-.086v-.182l-.065-.22-.093-.093,0,0h0l-.062-.059-.062-.138-.068-.069-.093-.038v-.1h.075l.069-.09-.027-.075h-.1l-.082.083-.113,0-.086,0-.093.093-.151.044-.135.072-.059-.089-.116.055h-.093l.034-.151.131-.059v-.079h-.11l-.1-.059-.062.059-.11-.031.034-.131-.079-.079-.066.04-.04.025h0l-.121-.034-.027-.1.069-.069v-.106l.023-.076-.031-.106-.01-.031-.082-.041h-.1l-.048-.1H13681l-.109-.065-.121-.01-.065.093h-.137l-.121.034-.1-.055-.12.021h-.148l-.145-.076h-.055l-.062.065-.11.021-.1-.055h-.1l-.124-.038-.189.007-.134-.031-.1.031-.047-.043-.043-.036-.124-.065h-.116l-.038.121.038.083-.076.079.063.038.058.062.072.072-.064.072h-.079l-.094-.1-.141.007-.1.038.042.138-.042.1-.093.031-.106-.031-.045.117.035.079.079.079.051.051.021.1.075.076-.075.107-.072.072h-.121l-.123.007-.062-.062-.045-.093h-.055l-.059.062h-.1l-.107-.11-.021-.062-.082-.079v-.144l-.069-.069h-.124l-.106.041-.037-.083-.1-.086-.095-.047-.041.019-.084.042-.054.006-.061.011-.1-.031-.065-.127-.093-.083-.065.11h-.072v-.089l.068-.065-.045-.093-.055-.145-.024-.148-.082-.1-.131-.052-.038-.093-.072-.072-.13.021h-.079v-.1l-.035-.11-.138-.027-.064.069-.128.045-.109-.059h-.116l-.053.083h-.241l-.03.059-.069.072-.01.106-.138-.024-.079-.083v-.11l.038-.106-.059-.059h-.093l-.038.089-.072.052h-.106l-.086.086-.072.072v.1l-.09.038h0l-.1-.007-.072.072-.089.062.037.107.079.083-.034.144-.068.072.068.042.106.1.065.069-.027.145.031.186v.155l-.059.059-.056-.062-.082-.01.01.1.049.1.068.068-.055.055-.093.01h-.189a.913.913,0,0,1-.117.01c-.037,0-.042-.022-.042-.034a.016.016,0,0,1,0-.007l-.082-.024-.038-.038-.1-.017v.076l-.076.034-.093.11h-.1l-.116.034-.065-.017-.056.055v.093l.056.058.034.1-.027.106-.027.1-.062.065v.038l-.055.048-.12.2v.155l.034.189-.024.145.011.175-.131.062-.088-.037-.125.044-.121-.027-.017-.107-.062-.182-.01-.134-.086-.058v-.072l-.045-.117-.076-.1.049-.083.034-.1-.083-.086-.027-.1-.093-.01-.021-.059-.068-.072-.121-.014-.075-.079-.021-.175-.079-.072.021-.113-.093-.076-.049-.127-.082-.038-.12-.083-.038-.134-.083-.127-.027-.11-.059-.014-.044-.055-.056-.076-.072.01-.044-.134.017-.255-.021-.186-.045-.1-.055-.083.01-.165-.064-.062-.045-.089.034-.1-.027-.11.059-.062.068-.01.086.11.083.028.037-.083.093-.038.128-.007h.065l.082.028.018-.138-.045-.083.021-.072.069.01.058.045.065.062.052-.051.076.034.127.017.093.038.021-.1-.065-.048-.093-.024-.062-.059-.065-.024.082-.09.121-.055.1.044.093-.038h0l.086.093.131.145.124-.121.079-.051-.021-.121.075-.079h0l.01,0,.062.008,0-.086.2-.027.037-.1.045-.055-.093-.042v-.117l-.089-.1-.034-.129-.08-.05-.089-.1.034-.117-.034-.172-.1-.076-.12-.093-.038-.13-.082-.065-.028-.076.069-.086.055-.121v-.117l-.059-.11-.062-.093.055-.044.035-.083h.064l.049-.044.038-.151.014-.086-.045-.11-.062-.062-.082-.01-.059-.069-.048-.072-.076.065-.059-.059-.048-.083.048-.089.107-.107.068-.083.031-.1.079,0,.062.065.031.083.109.038.107-.031.023-.11.035-.124-.083-.083.055-.038-.007-.1.035-.13.058-.145.045-.124.11-.031.038-.086.106-.086v-.189l-.093-.089-.1-.024v0h0l.034-.083.026-.087-.075-.078-.051-.11.017-.079.1-.1.062-.11-.027-.1h0v0l.086-.021.134-.083v-.117l.052-.065.142-.007.059-.072.007-.083.113-.044.093-.127.127.007.11-.069.147.035.021-.083.051-.052.093.045.076.083.12.041.045.1.045.11.065-.065-.014-.162-.1-.089v-.189l.086-.021.027-.027-.12-.052-.072-.083,1.228,0,.234-.086v-.141l.037-.368h.151l.135-.1v-.144l.1-.038v-.189l.09-.007.192-.155.093.044.2-.382.014-.1.165-.168h.282l.086-.155v-.3l.176-.086.23-.117.158.059h.1l.076.079.093-.065-.021.114.093-.01.131.007v.089l.027.1-.062-.041-.062-.062-.055.059.023.1v.106l.093.048.072.072v.117l.079.038v.13l.093.093.045.155v.162l-.03.137.034.076,0,.169.1.1-.007.12-.021.2-.1.168-.145.148h-.154l-.172.031-.145-.055-.165-.09-.1-.1v-.151l-.107-.1-.048-.117-.038-.11-.072-.121-.037-.206-.076-.035.024-.124.06-.063-.073-.078-.035.1-.051.052.021.124,0,.141-.06.061.077.081-.021.121-.076.172-.138.041-.1.11-.042.2-.1.1.082.258-.079.141.114.113.116.124.138-.1.027-.141-.068-.069v0h0l.01-.121v-.093l.094-.1h.093l.034.248.031.165.093.1.062.127.155.048.048-.048-.038-.093h0v0l.093-.076,0-.193h0l.169.027.158-.062.131.072.151-.048h.1l.062.065.093.145-.075.076v.12l.068-.083.1-.1.131-.028.109-.158v-.141l.045-.093.142-.072v-.09l.137-.083v-.137l-.021-.134h.093l.031.069.12.127.1.145v.193l-.034.1-.049.048-.082-.083-.117-.028-.175.062v.145l.044.13v.11l.128.034.12.055.138-.065v-.1l.141-.035.138.069-.024-.089h0l.213.038.113-.021.21.028h.121l.058.11h.056v-.1l.175-.055h.1l.038.145h-.1l-.034.1-.083.028.128.117h.086l.165-.072.154.028.172.172.056-.055h.116l.145-.048.059.059-.017.076-.086.062v.093l.1.089.007-.1.049-.045.109.028v-.089l.1-.018.024-.134-.018-.158.1-.052.086-.024.1.1.042-.045.113.141.131.131.1.1.027.055v0l.045.086.128.131.089.141.093.127v.11l.075.119.107-.064v-.117l.127-.117-.089-.027-.059-.145.021-.155-.069-.048-.03-.021h0l0,0-.059-.117.052-.055.084-.04.026-.014v-.088l.027-.134.048-.065v-.083l-.072-.024.042-.11.058-.079.11-.038.12-.058.042-.042.089-.093.072-.162.056-.134.062-.131.1-.055h0l.065.093h.131l.068.065h.114l.048.189-.055.055-.024.2-.155.158-.044.145.093.083-.035.189-.023.148-.11.165-.038.237-.062.213-.045.1.041.148.1.1-.018.089-.12.093-.021.207-.12.034-.145.141-.083.124-.075.044h0l-.135-.027-.082.055-.093-.059-.058-.059-.079-.027v.1l.082.127.083.041.109.076.09,0h0l.065.093h.1s.041-.076.021-.1.055-.059.055-.059h.072l.035-.034.137-.038.107-.062v-.114l.051-.051.086-.086.065-.068.035-.134-.028-.117-.01-.1.075-.076.072-.076h.114l.017,0,.113-.015.035.11.051.052.069.172-.09.089.007.134v.083l.106.11.124.027v-.076l-.064-.021-.06-.017-.044-.048v-.065l-.011-.1.09-.028.03-.072-.03-.106.034-.086-.052-.11-.072-.069-.045-.045-.134-.045-.075-.079-.062.065-.082.038h0l-.041-.062h-.1l-.018-.1.065-.069-.014-.175.075-.124.049-.141.109-.113-.037-.121-.035-.106.015-.114-.079-.079.089-.089.138-.137h.113l.065-.107.045-.117-.038-.093.038-.083h.089l-.027.117v.162l-.021.141-.1.1v.241l.117.086.055.049.007.006.086-.052h0l.082.086.093.09v-.065l-.037-.089-.062-.062-.1-.048v-.044l-.082-.083-.038-.124.117-.076.055.055.086.086.065-.059-.021-.072-.007-.065.062-.062h0l.106.021.089-.014.076.076.048.027.093.049v0h0l-.038.11.035.034.1.1h.148l.023-.086-.062-.083v0h0l.007-.076-.106-.038-.076-.127-.044-.044.034-.134.048-.11-.045-.045-.027-.138.11-.1h.258l.134.048v-.031h.214l.141-.062h.1l.055-.055-.055-.083-.065-.024-.055-.055s.023-.021.064-.062.042.042.042.042l.065-.018-.045-.048v0h0l.031-.069-.049-.045.056-.079.079-.059-.079-.007-.007-.083h.007l.147,0,.062-.127.151-.059.056-.059.206-.027.052-.055.147-.044.035-.038-.1-.031,0,0h0l.056-.055.145-.031.12-.018.027-.062.1-.018,0,0h.006l-.052.1v.079l.065-.068.172.007.014-.089.11-.021h0l.106.021-.048-.065-.065-.048-.035-.062h.121l.127-.038h.038l-.011-.1-.045-.031v-.134l.028-.089.082-.2.1-.072.086-.1.11.069.083-.014.027.117-.086.086-.072.093.172.01.034-.038h.11l.079.083-.072.072a.13.13,0,0,0,0,.017c0,.021,0,.056.028.056a.5.5,0,0,1,.12.038l.027-.093-.051-.051.123-.065h.106l.114-.083.065.065.082-.041.063.062,0,0,.055.11.065.055.038-.045.059.059.035.037.037.035v0h0l-.011.113-.109-.021.044.045.11.059.069.12-.065.065v.11l-.056.079-.052.107-.062.062-.11.134v.055l-.03.155-.083.083-.034.172-.131.034-.041.124-.093.093-.021.145-.028.1.1-.044,0-.017-.021-.093.1-.062a.652.652,0,0,1,.138-.028c.048,0,.065-.1.065-.1l.093-.076.089-.034.052-.1-.041-.041-.065-.007,0-.045,0-.089.083,0h.065v0l.093.024.106.043.024-.067.068-.1.059.058v.11l.065.1h.075l-.075-.072.052-.052.1-.1.138-.072.209-.041.165-.048.042.062h0l0,0-.042.038.094.089h.168l.007-.041.014-.062,0,0v0l.065.1.113-.041.117-.1s.12-.021.147-.021c.009,0,.012-.01.013-.023a.389.389,0,0,0-.013-.077l-.018-.11-.082-.127.021-.127.018-.065.067.063.066-.053,0,0,.055.055.089.062.021-.065.044-.01.044.047.042-.033h0c0-.011,0-.1.038-.1s.052-.055.052-.055l.12.1.038-.042.131.045-.041.138h.062l.062.062v.107l.107-.065.051.055v.12l-.068.024-.023.021-.02.021.074.078s.062-.027.062-.055.048.048.048.048v.089l.114,0,.106.11.082.055.113.021.052-.048.124.063.011-.1-.056-.186-.03-.083v-.076l-.072-.072v-.1l.138.017.078.075.117-.03h.142l-.031-.144.075-.145.145-.035.1-.007.12.035v-.083l-.127-.059.048-.048.059-.065.1.007.082-.082-.037-.024-.083-.083-.093-.048v-.124l-.038-.034-.055.144-.065-.044v-.114l.12-.113-.017-.076-.114-.072.069-.072h.106l.151-.076.045-.131.2-.075.158-.072h0a.1.1,0,0,1,.019.04.005.005,0,0,1,0,0,.048.048,0,0,1,0,.012c0,.035-.1.072-.1.072l-.042.151.093-.044.083-.086h0l.1.035-.027.217.093-.089v-.1l-.034-.179.023-.076.049-.141.116-.055.162-.072.1.072a.77.77,0,0,1-.082.1.029.029,0,0,0-.01.02c0,.026.047.042.047.042h.121l.079-.09.1.11s0,0,0,0a.833.833,0,0,0-.021-.123l.147-.083h0l.1.055.114,0,.106-.107.106-.137v-.162l.138-.2.116-.117.1-.127.179-.027.151-.01.076.075.153.154.136-.061.1-.079h.106l-.052-.052v-.079l.1-.1v-.183l.052-.1h.082l.068-.072v-.11l.138-.1.035-.131-.056-.055v0h0l.021-.065-.075-.11.062-.11.056-.059.1.1v0h0l-.079.079.083.083h.127l.09-.034.116-.055.114-.027.023-.089-.03-.086-.059-.01-.189-.086-.138.024-.031-.079h-.109v-.062l.027-.1.1-.051.014-.114.086-.051h.079l-.035-.093.035-.1.089-.141.049-.158.165-.165.186-.189.086-.083.165-.072.117-.072.109-.11.114-.114.137-.055.1-.145.189-.055.1-.1.121-.055.079-.045.086.086.127-.038.11.086.075-.076.131-.072v-.061l-.131.023-.154-.01-.1-.028.034-.1.1-.072-.086-.021v-.052l.063.007.01-.1.056-.079.075-.076.131-.052h.038l.1-.137a.4.4,0,0,0,.127-.062.013.013,0,0,1,.009,0c.02,0-.009.1-.009.1l.069.059.058.055v0h0l-.06.124a.194.194,0,0,0,.111-.031c.013-.013.017-.007.016,0a.31.31,0,0,1-.016.062v.117l-.123.083.1.017.062-.061.127.05v-.057l0,0v0l.1.1.072.11.059-.017.063-.079v.072l.037.089h-.113v.045l.093.027-.052.145-.123.01-.117.127-.062.134-.114.038-.082-.035h-.1l-.093.141.041.083v.141l-.093.093-.072-.059-.068.059h-.1l-.062-.052-.056-.034-.006.052.041.044-.052.021-.031.035.1.017v.072l.072.076.12-.034h.083l.007.106.048-.048.086.083.089.093.045.162.021.127-.086.141h-.082l-.117.052-.038.089.093-.042h.063l0,0h0l-.09.1.056.055.072-.027v-.106l.064-.048.117,0,.069-.069.034-.055.082.007.065-.014.121,0v.076h.1l.027-.051h.1l.056-.059.072-.01.062.048.086-.065.042.1.079.083v.117l-.11.042-.069.158h-.116l-.035.048.131.086-.041.042.093.145.038.175v.2l.034.155.055.134.028.175.055.172.1.093v.162l.055.224.093.1.062.062-.1.083-.1-.047-.136.041-.072.168-.113.165.059.062-.041.155v.083l.093.145v.089l0,0v0l-.1-.052-.076-.076-.065,0,.063.162v.1l.1.048-.1.1h-.069v.145l-.059.062.083.138.065.065.075.076.1.106.024.155.017.124.148.079.093.089h.149l-.04-.093v-.048l.052-.052.038-.083,0,0v0l.142.145.027.127.145.1.139.03.029-.028.028-.03h.089l.106.11-.041.106-.109.031.03.134.117.193.1.027.079.079.186-.024.113.089.038.1-.065.045-.1.062-.056.12.042.22.067.11.04.063.095.037.049.048.158.038v.065l-.121.017v.1l-.044.1.055.2.1.038.141.145.1.1.023.179.056.23.023.148v.113l-.059-.083h-.158l-.1-.055-.079-.079h-.11l-.1-.1-.192-.089-.179-.076-.21-.11-.059-.083-.1-.068-.11-.021-.233-.072-.155-.083-.147-.1a.881.881,0,0,1-.072-.134l-.158-.162-.11-.113v-.117l-.075-.079-.018-.127-.1-.131-.1-.024v-.045l0,0,.044-.048.037-.081-.051-.091.049-.051.041-.042-.055-.165-.028-.175-.065-.207-.1-.138-.045-.182-.048-.172-.056-.138-.065-.206-.064-.055-.007-.11.037-.134V-4579l-.065-.065-.072-.138h-.072l-.064-.027-.065-.062-.076-.1-.117-.072v-.127l.107-.1-.036-.036-.085.087-.12.065v.117l-.034.086.065.062.1.1.093.093h.107l-.011.072-.048-.007-.052.076.068.069v.175l.056.134.01.209-.037.127-.045-.11-.1-.048v.138l-.083-.083-.055-.055-.045-.1-.149-.139.043.118-.045.134h-.147v.086l-.049.183-.062.072,0,.244.1.068-.017.155.1.155v.166l.031.216.089.093v.1l.076.076.072-.01.065-.059.044-.045h.083l0,.1-.023.007-.065.024v.148l-.165.027.038.193-.015.083-.106.044v.117l-.037.106s-.109.026-.106.009a.008.008,0,0,1,0-.005c.024-.024-.052-.048-.052-.048v-.072l.024-.072.089-.031-.041-.041-.1.038-.1.017v.052l-.153.072-.077.093-.086.021-.072.072-.027.083.027.107.063.062-.072.076-.117-.045.038.121-.086.086-.076.072h-.065l-.065.062.042.069.034.035-.093.062h-.128l-.123.124-.079.079-.086.151-.094.093-.093.189-.021.183.09.179-.083.083-.027.175.052.127.075.079-.064.11v.348l-.035.141v.186l.056.062v.282l-.049.189v.155l-.082.137v.138l-.045.124.048.11h.086l.063-.065h.093l.068-.069.079-.083,0,0,0,0,.055.055.065.035v.072l.052.1.065.065.059-.059v-.086l-.079-.035v-.083l.062-.065v.055l.065.048.034-.01.031.034v.172l.11-.048v-.055l.059-.083.041-.031.059.042.014-.09-.052-.052-.048-.1-.062-.11.1-.055.063-.062.116-.027h.145l.117.014.052.052s.127-.021.154-.021a.518.518,0,0,0,.107-.031l.065.069-.052.051-.038.038-.031.062h.193l.021.072.082.082.1-.014.052.052.055.106.018.21.072.22.113.165.138.141.055.055.028.093.109.11.076.134.027.079.1.155.041.044.045.045v.23l-.034.2.058.2,0,.2.059.162.045.179.034.158.03.217v.213l-.03.11v.481l-.034.2.034.2-.014.265v.131l-.107.182-.071.155-.083.155h-.072l-.134.055-.117.065-.079-.031v-.076l-.041-.041-.042.093v.1l-.048-.048-.068-.069v.052l-.024.141.024.093-.031.107-.048.048v.145l-.1-.007-.045-.044.038-.127.065-.131v-.113l-.055-.127-.121-.12-.059-.059-.014-.038-.037-.093-.1-.1-.1-.034v-.107l.068-.069.059-.062v-.11l.076-.079.089-.044.09.031.079-.079.052-.1-.09-.138.045-.117-.056-.124-.01-.124-.033-.046-.046-.061.023-.089-.06-.1h0l0-.023-.022-.1-.11-.117.083-.083v-.12l-.069-.069-.079-.083-.021-.072h-.093l-.131.072-.034.11-.09.145-.1.127.045.138h0v0l-.117.093-.113.065-.1.034-.028.1h-.1l-.106-.062-.076-.028v-.127l-.09-.076-.068-.072-.117-.03-.065.061-.127-.031-.1-.028-.158.021h-.147l-.062.062-.162.062-.134-.028-.035-.006-.064-.138-.079-.079s-.1-.055-.1-.079-.1-.1-.1-.1l-.131-.024-.055-.13-.127-.1-.086-.089-.121-.031-.044-.117-.11-.051-.065-.065-.22-.024h-.114l-.134.072-.161-.028-.128.045h-.138l-.186.138-.089.089-.172.1-.086.086-.059.182-.045.11.062.079.083-.069.068.069.079.076.041.179-.041.093-.034.237v.151l-.059.155.083.158.048.052v.155l-.117.034-.072.175-.106.107-.183.065-.2-.018-.148-.027-.11.069-.154.086-.113-.059-.1-.041-.138.062-.2.2-.049.162-.1.1-.128.086-.175.086-.135.134-.068.069h-.176l-.158.052h-.224l-.165.021-.147-.048-.045-.083-.075-.079h-.21l-.192-.027-.076-.052-.255.038h-.154l-.127.131-.145.031-.138.041-.2-.017-.134-.059-.086-.086-.079-.168-.1-.1-.141-.055h-.138l-.155.042-.106-.107h-.217l-.124-.1-.064.065-.083.086-.068.141-.076.072-.021.145.068.083v.127l.1.1v.134l-.065.042-.065.044-.124.124h-.261l-.148-.038-.154.024-.11-.031-.158-.055-.089-.089-.1-.107-.127-.038-.148.062-.093-.093-.117-.055-.1.1H13687l-.037.117h-.145l-.179.117-.11.11h-.11l-.021.117-.131.031-.089.089-.165,0-.138.076-.069.072Zm16.546-4.626-.082-.083-.141-.134v-.089l-.094-.1-.093-.093-.062-.079-.05-.1-.026-.049-.093-.093-.1-.059-.1-.028-.079-.172-.179-.244-.142-.145-.117-.12-.106-.145-.065-.11-.179-.079-.145-.062-.082-.01-.117-.158v-.072l-.124-.124-.042-.082-.023-.042-.131-.045.031-.1v-.072h0l.106.034.017-.1-.062-.065v-.034l-.062-.062-.093-.034-.038.01-.027-.083v-.072l.123.034.059.028.035.075.064.069.121.024.027.076.134.086h.069l0,0h0l.056.079.048.13.072.072.141.148.09.024.124.048.116.1.162.093.106.089.138.072.117.072.075.062.134.052-.021.065-.044.048-.094.028h-.068l.018.1-.018.072v.059l.079.124s.066.076.063.1a0,0,0,0,1,0,0,.06.06,0,0,0,0,.029,1.119,1.119,0,0,0,.011.119l.059.062.1.1.082.052h.121l.072.072h.079v0h0l.041.089.1,0,.065-.062.11.062.068.086a.112.112,0,0,1,0,.017c.006.016.012.042,0,.042a.952.952,0,0,1-.152-.061l-.054.054h-.12l-.041.1,0,.02.021.074.072.079.059.124-.075.062Zm1.613-.241-.01-.1-.018-.1.093-.014h0v.086l-.031.062v.076Zm.3-.1v-.042l.062,0v.072Zm-.2-.43-.007-.145.023-.093-.03-.031.023-.124.079.024.011.11-.052.052.027.154-.017.076Zm.12-.609.021-.024,0,0,0,0,.03.048-.037.058Zm.079-.316.024-.124-.034-.076.021-.083.065-.065.014.089-.014.089.021.107-.034.076Zm-5.582-.55-.045-.041-.079.031v-.137l.045-.052.093-.021.052.076-.018.1Zm5.709-.327h-.064v-.192l.048,0v.113l0,.017.018.065Zm-.45-1.523v-.072l0,0v0l.079.055-.035.041Zm-.206-.372,0-.11.007-.086-.027-.065-.052-.052h0l0,0,.045-.044.027-.086.049.048-.007.086.068.069.038.1-.049.052v.113l-.055.031Zm-33.241-2.015-.161-.372.086.021.072-.021.03-.055.065.01.063.062,0,.086.048.017.011.065.079.014.018-.062-.042-.045.034-.038.024.024.076.065v.093l-.011.083.045.072.041.031.018.107-.038.083-.183.093Zm11.112.13-.017-.106-.056-.014-.01-.072-.018-.131.036-.01.025-.01.079-.038.056.124v0h0l-.007.093.052.086-.035.086Zm3.082-.347-.056-.038h0l0,0,.059-.048.056-.055.058-.017h0l.059.062-.065.062h-.068Zm-4.911-.165-.079-.031-.038-.1.029-.036.022-.03.065-.086.085-.021.021-.006h0l.09.027,0,.076.072.093-.045.1h0l-.083-.014-.072.052Zm5.21-.045-.021-.062.034-.044.045-.017.023.025.024.023-.021.065-.052.055Zm-3.607-.01v-.065l-.079-.044h-.056l-.062-.093-.034.021-.1-.1-.079-.086.027-.089.079-.024.031-.052-.055-.044.007-.121-.035-.01-.037-.089-.072-.007-.062-.086.021-.11.079-.11.1.01.027.034.034.014.018-.065.113-.035.088-.094-.057-.064.079-.051.09.034.027-.076v-.076h.113l.055.055.056-.055.014-.055.124-.024-.042-.041-.106-.038v-.041l.124-.035.131-.038.03-.031.031-.034h.086v-.059l.117-.007-.062-.062h0l0,0,.1,0,.041.042-.007-.1.052-.051-.055-.065.034-.055.059.059h.075v-.076l.11.042.055-.059.056-.069h.068l.121-.052.082.028h.127l.079-.083.1.007.017.027.027.038h.1l.048.051.09-.024h.127l.083-.086.1-.052.128-.048h.12l.068.11v.12l-.1.1-.093.089-.128.01-.147.069-.135-.048-.064.065-.155-.007h-.2l-.072.083h-.155l-.115.064.036.08-.082.031-.093-.01h-.086l-.007.055-.093-.024v.09l-.09.065-.072.055v-.086l-.062.055.017.1h-.062l-.041-.041v.124l-.045-.044-.056.055-.048.048h-.062l-.052.065-.065.113h-.1l-.086.069v.1l-.082.035-.031.1-.068.072v.124l-.038.09.048.13-.041.131.055.086.024.089h0v0l-.027.027Zm-4.739-.151.021-.031.059.031-.045.045Zm7.714-.031-.041-.035.027-.065.059.045Zm.169-.258h0v0l.044-.038.1.017.021.048-.076-.021-.059.042Zm-.781.007-.01-.034.041-.055-.021-.044.055-.042.021.007.056-.021.044.065-.041.044.083.021v.048h0l-.049,0-.085.041Zm1.926-.127h-.082v0h0l.011-.055h0l.072.017.052.01-.007.076Zm.329-.193c-.008-.019-.016-.041-.016-.041l.062-.031.011.075s-.045.011-.045.021,0,0,0,0Zm3.657-.323h-.079v-.062l.093-.093.056-.01h.1v.121l-.075.076-.065.031Zm-4.065-.093-.03-.062.055-.044.027.1Zm17.9-.258h-.114l-.034-.072.069-.024.086.031.089-.038.09.031-.072.072Zm-17.8-.114.027-.027.065.042-.059.017Zm15.962-.113,0-.086-.038-.048-.059-.038.01-.1v-.107l.059-.031.09.038v.134l-.034.11.034.065.021.086h0v0Zm2.1-.076.063-.045.062-.014-.045.045-.044.048Zm-16.48-.375.065-.017.048-.059v0l0,0,0,.062-.062.059Zm-.74-.055.024-.042.055,0,0,0h0l-.044.065Zm2.074-.3.021-.031.045.024-.021.038Zm3.962-.086-.059-.028.035-.024.093.021.03.045-.03.041Zm-4.907-.127.023-.113.027-.117,0-.134.059-.062-.018-.134.027-.052,0-.076.068-.086.052,0,.034.069v0h0l0,.124v.06l.03-.084.056-.065h0l.045.044.037.067.021.036.059-.024h0l.045.076.038.1-.059.117-.124.1-.1.01-.124.065-.055.034-.1.076Zm5.612-.031.034-.079-.055-.055-.031-.079.059-.055.056-.062.062-.055h0l.13.044h.1l.068.131-.134.083-.1.038-.113.027-.045.093Zm-4.792-.135h0l-.048-.034-.069-.035.048-.031.058.034.053-.013h0l.011.051,0,.011h0v0l-.056.014Zm4.582-.085-.034-.1.045-.042.062,0,.035.034v.076l-.049.093Zm-.488-.124-.048-.051-.12-.007-.09-.045.021-.079-.068-.069h-.055v0h0l.014-.069-.059-.059v-.1l.075-.041-.041-.038v0h0l.012-.031.013-.035.055.031.124-.024.057.054.039-.04.074.063.054-.043-.035-.038-.055-.055-.038-.038-.01-.089.145-.044.059.058.082-.058.052-.052h.161l.063-.021h0v.065l-.021.09h.079l.024.106-.048.052h-.052l-.059.024-.1-.017-.056-.059-.037-.127-.049.048-.027.065.09.065.089.055.072.055.063-.062.089.031-.023.076-.079.079,0,0,0,0-.038-.035-.086.086-.089.168-.056-.051-.034.034.065.059v.083l-.1.031Zm-5.193-.044-.04-.064-.076.047v0l0,0-.014-.065-.117-.01-.045-.055,0-.065-.048-.069-.059.021h0l-.041-.038.086-.065-.014-.065.045-.055.021-.065.034-.076s.072-.024.09-.028a.686.686,0,0,1,.079-.021l.109-.034v.1l-.023.1.031.013.041-.075.044-.055h0l.117.065-.011.1.027.1-.021.083-.052.038.065.089.042.079-.052.072-.1.048Zm4.8.024h-.065l-.031-.12-.052-.052.079,0,.045.048.027.055v.065Zm-5.3-.43-.038-.035-.023-.007-.062-.017v0h0v-.059l-.011-.089.069.007.1.027.056.042-.031.083-.055.055Zm-1.575-.052-.034-.021.031-.031.072.042-.014.048Zm1.572-.21-.021-.076-.052-.076.037-.076.059-.062-.044-.045v-.1l.113-.076.072-.035.014-.083.089.024.038.083.053.054.054.052.049.052-.059.055v.124l.027.1-.1.035-.086.051h-.059l-.086.083Zm6.369-.179-.031-.047-.023-.032-.024-.038-.01-.038.075.034.038-.038.052-.052.075-.079.048.059h.024l.062-.065.059-.065.11-.051.079.062-.045.127v.069l-.052.052-.082.038-.09.035h-.089l-.069.068Zm-7.554-.238h0l-.042-.042.028-.027.041-.007.062.024-.03.035-.056.017Zm.961-.092-.031-.028.038-.038.086-.007v.044l-.062.059Zm-2.876-.01v-.052l.028-.024.051.01-.021.065Zm-.127-.2-.1.021-.031-.031.052-.048v-.065h.09l.03.031.079-.059.056.055.03.076-.058-.021-.024.055-.09.021Zm.33-.031-.068-.01v-.086l.011-.021.021-.045.048-.045.059.069h.154l-.023.069-.042.044-.025.026-.026.029-.089.021Zm.337,0-.044-.01.023-.059-.052-.024,0,0h0l.069-.035.106-.021.027-.045h0l0,0,.065-.007.017.083-.052.052-.072.072Zm-1.18-.127-.068-.017-.031-.027.038-.038v0l0,0,.014.035Zm.2-.044-.052-.052.028-.034.044-.065.042.055v.1Zm9.579-.01-.035-.031,0,0h0l.031-.052.041.052h0v0Zm-8.782-.025h0l-.042-.044.021-.021.055-.031h.045v.069l-.057.02-.02.008Zm-.274-.061.059-.017-.034.038Zm-.2-.024.041-.038.045.079-.045,0Zm-.186.027-.021-.058.063.007v.051Zm-.354,0-.076,0-.01-.051h.034Zm.7-.065v-.048l.01.01.034.038Zm-.237-.083.01-.014h.063l-.019.044-.006.018Zm-.671.027v-.065l-.062.021-.021-.1.065-.027.086.062v-.048l.072-.038.083.062.048-.048v-.048l.041-.038.042-.031.079.048-.045.048.033.035.035.034v0h0l-.075.072h-.1l-.068-.021-.086.038-.059.059Zm1.06-.042h0l-.049,0v-.058h.052v.062Zm.1-.014v-.059l-.068-.068v-.076h.065l.03.1.035.079Zm.4-.01v-.041l-.034-.048.041-.01.052.021v.079Zm-.722-.01v-.052l.044-.01.015.062Zm.109-.145h.028l.027.027-.027.028Zm-.747-.044-.015-.014-.07.03-.038-.038-.1.038-.021-.059-.049-.045v0h0l.038-.072.055.051h.09l.038.017h.041l.048.045v.065Zm1.026-.059.023-.052.063.055-.042.041Zm-.743.017h0v-.055h0l.082.014-.041.041Zm14.108-1.737-.09-.017-.055-.131-.056-.083-.014-.093h0v0l.027-.028-.007-.117.069-.069.086-.044.038-.042.044.017.03.025.039.03v.15l.013.1-.072.107.048.051-.045.083Z" transform="translate(-13665.63 4587.7)" fill="url(#radial-gradient)"/>
  </g>
</svg>
