<svg id="Слой_222" data-name="Слой 222" xmlns="http://www.w3.org/2000/svg" width="14.723" height="20.002" viewBox="0 0 14.723 20.002">
  <g id="Слой_1" data-name="Слой 1">
    <path id="Path_4246" data-name="Path 4246" d="M14.714,50.5a.272.272,0,0,1-.058-.175.867.867,0,0,1-.005-.129c.009-.071-.031-.1-.086-.127l-.226-.1a.114.114,0,0,1-.067-.162.276.276,0,0,1,.022-.045.162.162,0,0,0,0-.189,1.05,1.05,0,0,1-.185-.319s0,0-.006-.008a.129.129,0,0,1,.006-.187.692.692,0,0,1,.047-.051.294.294,0,0,0,.089-.213.682.682,0,0,1,.035-.162c.014-.051.032-.1.05-.152a.338.338,0,0,1-.058-.055.156.156,0,0,1-.036-.087c.008-.065.014-.129.016-.194,0-.1.012-.1-.089-.148a.145.145,0,0,1-.095-.094c-.017-.064-.035-.127-.054-.19a.175.175,0,0,1,.053-.22.121.121,0,0,0,.059-.137.189.189,0,0,1,0-.133.1.1,0,0,0-.006-.081A1.894,1.894,0,0,0,13.96,47a.535.535,0,0,1-.069-.054,1.565,1.565,0,0,0-.153-.192,1.342,1.342,0,0,0-.346-.242c-.062-.026-.073-.061-.033-.123a.146.146,0,0,0,.019-.123c-.006-.022-.007-.046-.013-.068a.081.081,0,0,1,.039-.1c.037-.023.072-.047.109-.068a.411.411,0,0,0,.22-.438.152.152,0,0,1,.02-.1c.055-.068.088-.131.019-.207a.04.04,0,0,1,0-.019c-.019-.107-.044-.214-.055-.322a.587.587,0,0,0-.073-.224.3.3,0,0,1-.037-.181.4.4,0,0,0-.027-.184.25.25,0,0,1-.024-.075.148.148,0,0,0-.065-.146c0-.051.077-.057.055-.1a.761.761,0,0,1-.184.023.717.717,0,0,1-.186-.062,1.5,1.5,0,0,1-.329-.247.052.052,0,0,1-.009-.079c.021-.025.047-.046.069-.071s.045-.052.068-.078a1.142,1.142,0,0,1-.236-.286l.077-.181-.179-.141-.288.1.005.1c-.041-.021-.076-.028-.093-.049-.046-.057-.084-.12-.124-.177h-.077a.272.272,0,0,0-.2-.231.416.416,0,0,1-.115-.055.122.122,0,0,1-.051-.056c-.026-.077-.045-.155-.065-.228l-.111-.153a.253.253,0,0,0-.158.14.1.1,0,0,1-.162.032.134.134,0,0,0-.04-.028.94.94,0,0,0-.326.023s-.007.01-.011.015a1.69,1.69,0,0,0-.162.164c-.05.068-.058.063-.017.143a.08.08,0,0,1-.113-.025.357.357,0,0,1-.045-.1l-.2.128c-.076.048-.149.1-.138.2a.046.046,0,0,1-.015.035.1.1,0,0,0-.038.115c0,.011-.012.025-.018.037a.153.153,0,0,1-.038-.091.781.781,0,0,1,.006-.1c-.118.025-.22.051-.324.067a.858.858,0,0,1-.205.008c-.1-.008-.155.021-.177.116a.331.331,0,0,1-.062.131.457.457,0,0,1-.114.12.159.159,0,0,0-.048.082c-.025.074-.045.15-.071.241a.289.289,0,0,1-.057-.033.183.183,0,0,0-.222-.072c-.049.019-.075,0-.087-.051a.168.168,0,0,0-.206-.139.525.525,0,0,0-.252.109c-.034.028-.081.048-.1.009a.2.2,0,0,0-.126-.083.176.176,0,0,1-.1-.149.231.231,0,0,1,.14-.148A.33.33,0,0,0,8.147,43c.069-.05.131-.109.2-.161a.171.171,0,0,0,.08-.16c-.007-.092-.012-.184-.019-.276,0-.031-.005-.058.027-.078.013-.008.021-.027.044-.058-.071.029-.117.07-.179.041a.174.174,0,0,0-.192.04c-.029.022-.054.049-.082.072a.194.194,0,0,1-.3-.008.919.919,0,0,0-.141-.1c-.09-.054-.183-.105-.277-.151a.147.147,0,0,0-.11-.016c-.074.039-.167.066-.174.177a.2.2,0,0,1-.044.088c-.01.014-.031.019-.059.036-.007-.058-.034-.117,0-.15.067-.061.05-.13.048-.2a.1.1,0,0,0-.112-.1A.663.663,0,0,0,6.776,42l-.232.054a.1.1,0,0,1-.121-.065l.107-.035a.24.24,0,0,0,.164-.133.558.558,0,0,0,.035-.282.073.073,0,0,0-.073-.067l-.086-.01c.005-.068.062-.073.1-.108-.036-.063-.014-.159-.1-.189a.708.708,0,0,1-.117.064.077.077,0,0,1-.069-.019.342.342,0,0,0-.269-.144c-.051-.006-.105-.02-.119-.09a.906.906,0,0,1-.075.055c-.037.022-.077.059-.113.056-.1-.009-.2.029-.3.027-.046,0-.081-.018-.088-.063-.01-.062-.052-.077-.1-.09-.134-.036-.266-.078-.4-.111a.485.485,0,0,0-.166-.011,1.748,1.748,0,0,0-.2.046.266.266,0,0,0,.009.214.313.313,0,0,1,.041.11.111.111,0,0,0,.062.1.419.419,0,0,1,.195.275.1.1,0,0,0,.023.041c.062.072.127.141.188.215.084.1.069.178-.042.252a.633.633,0,0,0-.063.048.237.237,0,0,1-.164.058.8.8,0,0,0-.109,0,.442.442,0,0,0-.177.043c.025.036.085.027.08.087l-.035.013c-.016.005-.032.009-.047.016-.053.022-.064.05-.043.1s.081.1.12.073c.087-.06.193-.028.284-.066a.755.755,0,0,1,.153-.028.152.152,0,0,1-.1.155c-.043.014-.068.034-.072.081a.21.21,0,0,1-.022.065.159.159,0,0,0,.039.189.706.706,0,0,1,.107-.033c.024,0,.066,0,.072.013.037.077.111.14.079.244s-.055.124-.159.076a.085.085,0,0,0-.113.011A1.176,1.176,0,0,0,5,43.531c.031.035.063.069.119.038.014-.008.038,0,.057,0a1.524,1.524,0,0,0,.185.025.345.345,0,0,1,.236.087.355.355,0,0,0,.07.055.145.145,0,0,1,.078.117.229.229,0,0,0,.125.191.144.144,0,0,1,.093.148.23.23,0,0,0,.126.21.505.505,0,0,0,.194.069.352.352,0,0,1,.11.038c.024.012.037.037.014.073a.692.692,0,0,1-.433-.177.675.675,0,0,1-.119-.191c-.015-.025-.028-.052-.045-.076-.05-.069-.1-.136-.151-.207-.035-.052-.06-.111-.1-.162a.135.135,0,0,0-.075-.055.722.722,0,0,0-.313.017c-.056.015-.112.033-.169.047a.423.423,0,0,1-.421-.109.086.086,0,0,0-.144.009.476.476,0,0,0-.065.132c-.03.084-.053.17-.082.254a.3.3,0,0,0-.007.2c.03.081.06.161.091.241a.128.128,0,0,1-.024.156.194.194,0,0,0-.062.179c0,.046.008.092.008.138a.278.278,0,0,1-.016.067H4.258a.352.352,0,0,1-.021-.081c0-.137-.025-.279.088-.389-.018-.013-.025-.021-.034-.023a.356.356,0,0,1-.269-.146c-.031-.051-.113-.026-.132.036a1.069,1.069,0,0,0-.025.132c.13.036.155.082.115.205a.457.457,0,0,1-.044.1c-.054.085-.112.088-.18.011a.13.13,0,0,0-.115-.062c-.045,0-.073-.05-.084-.118s.029-.065.068-.078a.174.174,0,0,0,.069-.033.064.064,0,0,0,.009-.06.506.506,0,0,0-.082-.117.376.376,0,0,1-.13-.284.283.283,0,0,0-.208-.026c-.163.023-.326.05-.489.077-.071.012-.142.04-.21-.011a.048.048,0,0,0-.029,0,.543.543,0,0,0-.435.176,1.191,1.191,0,0,1-.106.106c.032.05.1.065.081.129s-.082.054-.127.068a.553.553,0,0,0-.055.349c0,.072.036.1.11.1s.152,0,.228.005a.575.575,0,0,1,.125.021.065.065,0,0,1,.053.084L2.36,45.2c-.069-.021-.1,0-.113.066a.162.162,0,0,1-.017.066.259.259,0,0,0-.044.179.263.263,0,0,1-.016.087.245.245,0,0,0-.008.144.685.685,0,0,1-.109.6.593.593,0,0,0-.1.346c0,.046,0,.093,0,.139a1.22,1.22,0,0,1-.021.147c-.009.043-.031.071-.083.062a1.867,1.867,0,0,0-.187-.02,1.09,1.09,0,0,0-.178,0,.085.085,0,0,0-.071.131.661.661,0,0,0,.037.065l-.078.066c.01.17.01.17.167.206a.264.264,0,0,1,.039.01.232.232,0,0,0,.246-.01c.021.031.036.057.053.079a.29.29,0,0,1,.039.324.279.279,0,0,0-.007.134.084.084,0,0,1-.03.087c-.071.053-.109.142-.2.177-.021.008-.029.044-.048.062s-.048.051-.076.054c-.107.014-.143.1-.206.176a.993.993,0,0,1,.094.051.546.546,0,0,1,.1.081c.015.017.027.056.017.071-.055.082-.091.185-.222.186a.45.45,0,0,0-.262.079.163.163,0,0,1-.17.038c-.063.083-.061.079-.149.035s-.2-.091-.3-.135c0,0-.005,0-.01.006l.059.1a.981.981,0,0,0-.177.013,1.1,1.1,0,0,0-.166.074.151.151,0,0,1,.023.177c.048.032.112.041.1.1s.026.091.074.112a.065.065,0,0,1,.045.086.14.14,0,0,0,.035.129c.029.036.054.075.084.11a.2.2,0,0,1,.057.133c0,.1,0,.2,0,.305a.148.148,0,0,1-.024.074c-.053.079-.111.154-.162.235a.377.377,0,0,0-.043.119c0,.017.013.038.02.057l.113-.032a.144.144,0,0,1-.073.173.54.54,0,0,0-.226.2.061.061,0,0,1-.1.026.349.349,0,0,0-.048-.023.18.18,0,0,0,.035.144l.18.024c.013.057,0,.107.054.143a.123.123,0,0,1,0,.211.207.207,0,0,0-.054.183l.043.121c.094-.022.133.038.169.1a.5.5,0,0,0,.068.119.4.4,0,0,0,.125.05c0,.065-.046.092-.085.125a.084.084,0,0,0-.022.107.083.083,0,0,0,.087.064.726.726,0,0,1,.143.024.253.253,0,0,0,.017.075.245.245,0,0,1,.02.181.176.176,0,0,0,.022.092c.042.092.029.116-.069.13-.022,0-.059.019-.061.033-.012.067-.056.09-.112.111a.1.1,0,0,0-.072.121.063.063,0,0,1-.012.055c-.052.032-.041.086-.055.132a.406.406,0,0,0,.1.428.064.064,0,0,1,.016.025.336.336,0,0,0,.157.195.609.609,0,0,0,.232.117c.105.015.109.022.1.125,0,.036,0,.073-.006.109s-.007.056-.021.063a.263.263,0,0,0-.125.195.069.069,0,0,1-.016.025.461.461,0,0,0-.069.326c.126.025.242.049.288.183a.08.08,0,0,0,.024.031c.047.041.067.088.036.133.065.1.12.185.184.268a.2.2,0,0,1,.046.1.078.078,0,0,0,.048.051.521.521,0,0,0,.11.013c.008-.014.013-.02.013-.025,0-.122,0-.122.126-.106h.02a.688.688,0,0,1,.151.069c.022.017.019.066.027.1a.075.075,0,0,0,.012.027.232.232,0,0,0,.037.027l.03-.065c.027.007.038.007.045.013a.347.347,0,0,0,.207.051c.09.01.134-.05.189-.1a.13.13,0,0,1,.088-.031.265.265,0,0,1,.11.04.09.09,0,0,1,.033.056c.031.147.185.14.27.218,0,0,.006,0,.01,0a2,2,0,0,1,.331.01.715.715,0,0,1,.234.068c.073.037.151.062.228.093l.079.032c-.052.126-.1.242-.149.356a.261.261,0,0,1-.066.071.749.749,0,0,0-.147.139.617.617,0,0,1-.156.175.274.274,0,0,0-.107.28.161.161,0,0,1-.022.108.434.434,0,0,0-.072.319.119.119,0,0,1-.04.134A.1.1,0,0,0,3,58.014a.632.632,0,0,1-.11.24.373.373,0,0,0-.039.427.114.114,0,0,1,0,.14.327.327,0,0,0-.065.173.807.807,0,0,1-.052.189.343.343,0,0,0-.006.106.378.378,0,0,1-.012.1.109.109,0,0,0,.017.128.308.308,0,0,1,.043.066c.031.056.06.111.144.094l-.009.107a.277.277,0,0,0,.219-.063.135.135,0,0,1,.192-.007c.015.013.029.035.044.036a.328.328,0,0,0,.256-.042.646.646,0,0,1,.116-.075.174.174,0,0,1,.225.03.185.185,0,0,0,.226,0c.079-.069.095-.069.182-.006l.02-.109a.434.434,0,0,0-.111.027.131.131,0,0,1-.155-.022.09.09,0,0,1-.019-.144c.06-.064.09-.165.2-.17.005,0,.01-.008.015-.012.023-.015.048-.043.069-.041s.051.03.074.046c.095-.057.1.073.163.07-.006.072-.006.072.017.114.11-.06.143-.049.2.061a.093.093,0,0,0,.058.047.466.466,0,0,0,.124-.016.6.6,0,0,1,.1-.028.835.835,0,0,1,.508.135c.082.056.167.107.252.158a.542.542,0,0,0,.1.05.189.189,0,0,0,.254-.075.214.214,0,0,1,.027-.03.069.069,0,0,1,.122.032c.007.018.012.036.018.053l.194.017c.017.026.034.055.054.081a.112.112,0,0,0,.041.036.179.179,0,0,1,.116.2.662.662,0,0,0,0,.088c.054-.011.1-.022.142-.028.061-.008.089.021.077.08s-.025.1-.04.156a.273.273,0,0,0,.24-.141.446.446,0,0,1,.082-.1.192.192,0,0,0,.058-.231.457.457,0,0,1-.019-.1c0-.022,0-.045,0-.068-.009-.075,0-.079.08-.065.034.106.063.116.157.047a.112.112,0,0,1,.112-.015.874.874,0,0,1,.148.057.165.165,0,0,0,.168.016.073.073,0,0,1,.1.024c.012.019,0,.052,0,.082a.724.724,0,0,1,.1.085.858.858,0,0,1,.072.125.324.324,0,0,0,.24-.041c.08-.058.1-.05.156.031l.2-.132c.019-.1.065-.133.175-.125s.121-.007.161-.1a.12.12,0,0,1,.145-.088c.072.007.145.013.217.017a.084.084,0,0,0,.053-.015.292.292,0,0,1,.2-.055c.1,0,.192,0,.288,0s.129-.053.094-.144-.017-.115.088-.132l.012.086h.1a.718.718,0,0,0,.1,0c.08-.011.08-.013.123.058s.115.1.18.042a.273.273,0,0,1,.3-.046l.1.139a.613.613,0,0,0-.038.069.062.062,0,0,0,.025.078c.047.036.09.077.139.11a.326.326,0,0,0,.113.053c.081.016.1,0,.095-.077a.489.489,0,0,1,.045-.221.228.228,0,0,0,.015-.115c-.009-.079-.05-.109-.133-.106a.294.294,0,0,1-.079,0c-.054-.013-.068-.041-.046-.094a1.388,1.388,0,0,1,.081-.169.136.136,0,0,0,.009-.147.421.421,0,0,0-.138-.189.1.1,0,0,1-.042-.053.448.448,0,0,0-.124-.188.333.333,0,0,1-.044-.065.09.09,0,0,1,.022-.123c.056-.051.106-.108.161-.16a.282.282,0,0,1,.06-.033.807.807,0,0,0,.153-.086.633.633,0,0,1,.284-.133c.042-.01.085-.012.126-.024a.393.393,0,0,0,.278-.232.656.656,0,0,0,.04-.339.073.073,0,0,1,.054-.092.332.332,0,0,1,.125-.008.427.427,0,0,1,.132.04.92.92,0,0,1,.116.08.324.324,0,0,1,.063-.069.194.194,0,0,0,.092-.194c0-.093-.044-.185,0-.28.006-.014-.008-.038-.017-.055-.02-.042-.042-.082-.062-.124a.147.147,0,0,0-.1-.087.154.154,0,0,1-.112-.1.2.2,0,0,0-.141-.121c-.085.073-.105.075-.18,0a.39.39,0,0,1-.067-.117c-.046-.108-.1-.21-.233-.221a.161.161,0,0,1-.123-.089c-.053-.083-.113-.162-.171-.243-.026-.037-.05-.077-.079-.111a.662.662,0,0,0-.105-.1.1.1,0,0,0-.073-.006c-.119.035-.183.012-.234-.094a.261.261,0,0,0-.112-.12c-.027-.015-.061-.043-.066-.069a.435.435,0,0,0-.113-.251c0-.109-.114-.175-.114-.288,0-.017-.036-.034-.054-.052a.743.743,0,0,1-.1-.105c-.037-.054-.026-.084.026-.126.018-.014.049-.03.049-.045,0-.08.058-.13.092-.193s.026-.081-.027-.137c-.013-.014-.033-.032-.031-.047.008-.074-.042-.094-.1-.118s-.1-.057-.157-.085-.108-.052-.116-.124a.066.066,0,0,0-.03-.038.139.139,0,0,1-.062-.146.177.177,0,0,0-.093-.183.142.142,0,0,1-.045-.038c-.01-.015-.02-.044-.012-.053.045-.055.021-.111,0-.167a.1.1,0,0,1,.14.019c.033.048.048.106.115.12.009,0,.013.028.018.043l.068.2a.843.843,0,0,1,.019-.149,1.4,1.4,0,0,1,.3-.407.117.117,0,0,1,.069-.035.9.9,0,0,1,.176-.011.115.115,0,0,0,.1-.039.192.192,0,0,1,.256-.035c.02.012.04.024.06.035.051.027.08.024.109-.025a.377.377,0,0,0,.038-.12c.009-.048.027-.069.079-.062s.078-.009.117-.007a.115.115,0,0,0,.125-.091c.007-.022.016-.043.024-.065.015-.037.036-.064.082-.049a.057.057,0,0,0,.074-.033.162.162,0,0,1,.032-.038c.055-.051.066-.053.129,0,.033.026.065.027.086,0a.361.361,0,0,0,.077-.145c.009-.079.054-.1.117-.109.118-.015.236-.027.354-.037.048,0,.1-.008.11-.063a.177.177,0,0,1,.175-.13.676.676,0,0,0,.295-.107c.088-.055.161-.136.281-.106.01,0,.034-.027.042-.046s-.01-.03-.021-.04c-.06-.05-.122-.1-.179-.142a.256.256,0,0,1,0-.038c.038-.138.1-.161.223-.091a.115.115,0,0,0,.064.01c.039,0,.077-.015.11-.021a.723.723,0,0,0,.087.069.134.134,0,0,1,.071.158c0,.018-.006.036-.009.055.112,0,.122.006.089.1-.017.05-.013.082.04.1a.444.444,0,0,1,.059.037c.094.054.137.034.165-.069a.357.357,0,0,1,.048-.117,1.365,1.365,0,0,0,.187-.424c.04-.132.063-.269.093-.4A.216.216,0,0,0,14.714,50.5Z" transform="translate(-0.034 -40.433)" fill="#ababab"/>
    <path id="Path_4247" data-name="Path 4247" d="M1179.929,129.674a.1.1,0,0,0,.132.025l.044-.018c.02.118.043.135.129.1-.013-.076-.069.012-.1-.039a.226.226,0,0,1,.03-.063c.031-.037.069-.068.1-.1a.254.254,0,0,1,.2-.1.735.735,0,0,0,.135,0c.089-.012.12.013.131.109.009-.033.023-.073.01-.1-.027-.053-.047-.119-.122-.132s-.112-.084-.129-.158a.139.139,0,0,1,.073-.149.392.392,0,0,0,.039-.031.094.094,0,0,0,.032-.107.091.091,0,0,0-.1-.067,1.208,1.208,0,0,0-.149.039l.028,0c0,.022-.011.048,0,.066a.163.163,0,0,1-.029.165.117.117,0,0,1-.168-.105l-.076.006-.026-.1h-.015l-.036.113-.047-.053a.108.108,0,0,0-.118-.03c-.015,0-.036.024-.035.037s.023.038.034.037c.046,0,.064.019.079.057a.3.3,0,0,0,.051.063l-.14.091c.087.062.087.062.105.176-.032.041-.074.033-.117.022s-.059.017-.075.048,0,.048.019.069C1179.856,129.59,1179.892,129.633,1179.929,129.674Z" transform="translate(-1168.082 -127.568)" fill="#ababab"/>
    <path id="Path_4248" data-name="Path 4248" d="M1239.62,132.89Z" transform="translate(-1227.316 -131.571)" fill="#ababab"/>
    <path id="Path_4249" data-name="Path 4249" d="M1294.647,283.843a.119.119,0,0,0,.017.046c.046.11.029.156-.074.207-.019.009-.036.021-.07.042a.337.337,0,0,0,.281-.027.2.2,0,0,1,.079-.026c.054-.006.109-.006.169-.009,0-.027,0-.046.006-.057.05-.074.005-.122-.042-.172s-.1-.11-.149-.166a.319.319,0,0,1-.022.237l-.149-.026a.182.182,0,0,0,0-.058c0-.015-.02-.026-.031-.039A.137.137,0,0,0,1294.647,283.843Z" transform="translate(-1281.671 -280.864)" fill="#ababab"/>
    <path id="Path_4250" data-name="Path 4250" d="M838.3,145.16a.087.087,0,0,0,.066.012.169.169,0,0,1,.142-.011.2.2,0,0,0,.053,0c-.043-.121-.089-.225-.221-.262-.114-.033-.2.04-.178.17C838.229,145.061,838.292,145.069,838.3,145.16Z" transform="translate(-829.839 -143.449)" fill="#ababab"/>
    <path id="Path_4251" data-name="Path 4251" d="M1069.78,159.353a.281.281,0,0,1,.255-.058.937.937,0,0,0,.166.022.413.413,0,0,0,.089-.018,1.211,1.211,0,0,0-.413-.042c-.076,0-.153.006-.209-.076-.022.047-.037.079-.052.111l-.047.091A.175.175,0,0,0,1069.78,159.353Z" transform="translate(-1058.954 -157.6)" fill="#ababab"/>
    <path id="Path_4252" data-name="Path 4252" d="M1283.745,245.852a.171.171,0,0,1,.031.209c-.008.02-.014.04-.021.062l.129-.048.011.1.083-.165a.3.3,0,0,1-.186-.2.041.041,0,0,0-.015-.025c-.013-.006-.033-.014-.042-.008a.056.056,0,0,0-.013.042A.059.059,0,0,0,1283.745,245.852Z" transform="translate(-1270.981 -243.337)" fill="#ababab"/>
    <path id="Path_4253" data-name="Path 4253" d="M1197.895,101.928c-.016.03-.027.063-.04.094l.024.017.14-.118c.007-.006.016-.016.015-.022-.01-.066.036-.106.069-.159a.8.8,0,0,0-.273.073C1197.928,101.834,1197.935,101.849,1197.895,101.928Z" transform="translate(-1185.941 -100.73)" fill="#ababab"/>
    <path id="Path_4254" data-name="Path 4254" d="M413.66,82.2c.054.084.141.058.216.069.046-.076.046-.111,0-.137A.172.172,0,0,0,413.66,82.2Z" transform="translate(-409.554 -81.304)" fill="#ababab"/>
    <path id="Path_4255" data-name="Path 4255" d="M395.321,23.083c-.141-.051-.154-.067-.171-.243-.023.084-.07.146-.053.216Z" transform="translate(-391.172 -22.613)" fill="#ababab"/>
    <path id="Path_4256" data-name="Path 4256" d="M481.072,146.569a.617.617,0,0,0,.067-.082l-.011-.027a.573.573,0,0,0-.112.01.068.068,0,0,0-.043.1A.072.072,0,0,0,481.072,146.569Z" transform="translate(-476.192 -145.006)" fill="#ababab"/>
    <path id="Path_4257" data-name="Path 4257" d="M445.926,138.769a.106.106,0,0,0,.045-.119.541.541,0,0,0-.1.062c-.01.01,0,.04,0,.061C445.891,138.773,445.914,138.778,445.926,138.769Z" transform="translate(-441.443 -137.274)" fill="#ababab"/>
    <path id="Path_4258" data-name="Path 4258" d="M898.93,285.3c-.106.021-.123.037-.118.112C898.821,285.344,898.923,285.386,898.93,285.3Z" transform="translate(-889.89 -282.468)" fill="#ababab"/>
    <path id="Path_4259" data-name="Path 4259" d="M396.255,100.926a.163.163,0,0,0-.085-.136C396.174,100.863,396.2,100.906,396.255,100.926Z" transform="translate(-392.238 -99.79)" fill="#ababab"/>
    <path id="Path_4260" data-name="Path 4260" d="M132.732,398.79c-.114.009-.128.019-.1.075Z" transform="translate(-131.304 -394.832)" fill="#ababab"/>
    <path id="Path_4261" data-name="Path 4261" d="M212.3,367.718l.166-.023A.175.175,0,0,0,212.3,367.718Z" transform="translate(-210.193 -364.034)" fill="#ababab"/>
    <path id="Path_4262" data-name="Path 4262" d="M406.73,0l-.05.058C406.726.067,406.746.054,406.73,0Z" transform="translate(-402.644)" fill="#ababab"/>
    <path id="Path_4263" data-name="Path 4263" d="M299.566,353.052v-.012H299.5v.012Z" transform="translate(-296.528 -349.536)" fill="#ababab"/>
    <path id="Path_4264" data-name="Path 4264" d="M262.363,358.511l-.008-.011-.035.023.01.014Z" transform="translate(-259.717 -354.942)" fill="#ababab"/>
    <path id="Path_4265" data-name="Path 4265" d="M1230.38,132.32l0,.02.089-.014h0Z" transform="translate(-1218.168 -131.007)" fill="#ababab"/>
    <path id="Path_4266" data-name="Path 4266" d="M1321.838,277.765l-.068-.055C1321.78,277.759,1321.806,277.767,1321.838,277.765Z" transform="translate(-1308.651 -274.953)" fill="#ababab"/>
    <path id="Path_4267" data-name="Path 4267" d="M1328.62,283.23h0l0,0a.011.011,0,0,0,0,0Z" transform="translate(-1315.432 -280.419)" fill="#ababab"/>
  </g>
</svg>
