<svg xmlns="http://www.w3.org/2000/svg" width="10.177" height="10" viewBox="0 0 10.177 10">
  <g id="иконка01" transform="translate(-7.44 -9.09)">
    <path id="Path_751" data-name="Path 751" d="M24.22,0h0V2.891h0a3.5,3.5,0,0,1,1.589.4h0a3.717,3.717,0,0,1,.886.662,3.676,3.676,0,0,1,.739,1.023,3.583,3.583,0,0,1,.337,1.557,3.539,3.539,0,0,1-.4,1.686,3.834,3.834,0,0,1-1.315,1.41h0a.02.02,0,0,0,0,.011h0a4.945,4.945,0,0,0,1.6-1.094,4.785,4.785,0,0,0,1.483-3.176h0c0-.117.015-.236.015-.357h0a2.762,2.762,0,0,0-.015-.355h0a4.8,4.8,0,0,0-1.462-3.189A4.789,4.789,0,0,0,24.5.013h0A1.9,1.9,0,0,1,24.226,0h0" transform="translate(-11.543 9.09)" fill="#fff"/>
    <path id="Path_753" data-name="Path 753" d="M.013,22.7H0a1.856,1.856,0,0,0,.013.268,3.347,3.347,0,0,0,1.008,2.108,3.57,3.57,0,0,0,.865.649,3.41,3.41,0,0,0,1.609.381,3.459,3.459,0,0,0,1.33-.251h0A3.966,3.966,0,0,1,3.31,24.315a3.531,3.531,0,0,1-.4-1.591H.013Z" transform="translate(7.44 -8.702)" fill="#fff"/>
    <path id="Path_754" data-name="Path 754" d="M7.992,16.52h0a3.591,3.591,0,0,1,.277,1.423h0a3.531,3.531,0,0,1-.4,1.676h0A3.825,3.825,0,0,1,6.2,21.231h0A3.633,3.633,0,0,1,2.954,21.2a3.981,3.981,0,0,1-1.4-1.319H1.54a4.945,4.945,0,0,0,1.094,1.6,4.781,4.781,0,0,0,3.185,1.455h0q.175.013.357.013a3.2,3.2,0,0,0,.355-.013,3.345,3.345,0,0,0,2.11-1.008,3.591,3.591,0,0,0,.649-.854,3.692,3.692,0,0,0,.026-3.083,3.544,3.544,0,0,0-.7-.971A3.676,3.676,0,0,0,8,16.52H7.988" transform="translate(6.233 -3.858)" fill="#fff"/>
  </g>
</svg>
