<svg xmlns="http://www.w3.org/2000/svg" width="38.521" height="29" viewBox="0 0 38.521 29">
  <g id="Слой_2" data-name="Слой 2" transform="translate(-0.001 0.016)">
    <g id="Слой_1" data-name="Слой 1" transform="translate(0.001 -0.015)">
      <path id="Path_4277" data-name="Path 4277" d="M35.832,20.676c-.131.006-.2.013-.283.013-1.374,0-2.749,0-4.123.005a.416.416,0,0,1-.419-.249q-1.612-2.928-3.238-5.848c-.049-.087-.1-.171-.218-.362a4.266,4.266,0,0,1-.285.39c-.368.392-.755.768-1.111,1.17a.742.742,0,0,0-.179.446c-.014,1.366-.008,2.732-.01,4.1,0,.349,0,.35-.355.35H22.383c-.332,0-.332,0-.334-.342v-.662a.7.7,0,0,0-.146.044,9.721,9.721,0,0,1-5.254,1.479,13.041,13.041,0,0,1-4.415-.618,6.191,6.191,0,0,1-4.361-5.71c-.02-.41-.02-.41.392-.41,1.11,0,2.22,0,3.33,0,.222,0,.307.055.326.3a2.975,2.975,0,0,0,2.294,2.706,7.492,7.492,0,0,0,4.513-.126,2.228,2.228,0,0,0,1.645-2.064,1.729,1.729,0,0,0-1.02-1.768,8.273,8.273,0,0,0-1.506-.565c-1.751-.461-3.51-.883-5.265-1.322a7.2,7.2,0,0,1-2.145-.882,4.619,4.619,0,0,1-2.126-3.1A6.392,6.392,0,0,1,8.69,3.7,5.519,5.519,0,0,1,12.2.587a11.162,11.162,0,0,1,7.627.14,5.917,5.917,0,0,1,2,1.307c.043.041.086.083.131.122.011.01.031.009.086.025V.905c0-.362,0-.363.367-.363h3.2c.348,0,.349,0,.349.359V11.307l.07.019.9-1.035q1.9-2.172,3.791-4.339a.587.587,0,0,1,.384-.186c1.434-.013,2.869-.008,4.3-.007.066,0,.132.011.247.021-.082.1-.136.17-.2.236q-2.4,2.648-4.806,5.291a.334.334,0,0,0-.051.481q2.535,4.288,5.054,8.585C35.715,20.457,35.761,20.546,35.832,20.676ZM22.014,10.243c.019-.045.032-.06.032-.075,0-1.144,0-2.288.007-3.432,0-.168-.09-.195-.228-.194H20.083c-.368,0-.365,0-.426-.367A2.776,2.776,0,0,0,17.9,3.893a6.025,6.025,0,0,0-3.942-.165,2.961,2.961,0,0,0-1.317.756,2.013,2.013,0,0,0,.518,3.156,4.912,4.912,0,0,0,.842.3c1.308.328,2.624.622,3.928.967,1.1.293,2.2.631,3.287.967A6.709,6.709,0,0,1,22.014,10.243Z" transform="translate(-7.465 0.015)" fill="#04190a"/>
      <path id="Path_4278" data-name="Path 4278" d="M5.678,437.154c-.423,0-.813.006-1.2-.007-.058,0-.144-.09-.164-.154a1.263,1.263,0,0,0-1.3-.958,1.4,1.4,0,0,0-1.406.922A3.255,3.255,0,0,0,1.63,439.6a1.4,1.4,0,0,0,1.612.841,1.29,1.29,0,0,0,1.049-.971.265.265,0,0,1,.307-.225c.347.01.7,0,1.076,0a2.957,2.957,0,0,1-.745,1.579A2.881,2.881,0,0,1,.357,440a4.407,4.407,0,0,1-.076-3.279,2.794,2.794,0,0,1,3.427-1.736,2.419,2.419,0,0,1,1.932,1.866A2.669,2.669,0,0,1,5.678,437.154Z" transform="translate(-0.001 -412.609)" fill="#04190a"/>
      <path id="Path_4279" data-name="Path 4279" d="M578.729,472.419c.093.051.143.078.195.1a1.134,1.134,0,0,1,.717,1.133,1.111,1.111,0,0,1-.823,1.109,2.737,2.737,0,0,1-.777.13c-.733.017-1.467,0-2.2.011-.242,0-.3-.088-.3-.314q.011-2.059,0-4.119c0-.22.064-.3.291-.3.741.02,1.486,0,2.223.046a2.408,2.408,0,0,1,.871.259.973.973,0,0,1,.573.928.989.989,0,0,1-.592.914C578.861,472.346,578.817,472.371,578.729,472.419Zm-1.345,1.639c.178-.009.359,0,.534-.03a.514.514,0,0,0,.5-.542.546.546,0,0,0-.474-.6,2.877,2.877,0,0,0-.532-.034c-.624,0-.624,0-.624.611C576.785,474.053,576.785,474.053,577.383,474.058Zm-.058-3.031v.015a1.918,1.918,0,0,1-.256,0c-.228-.03-.3.068-.286.289.016.194-.007.392.01.586.006.063.083.172.127.171a6.359,6.359,0,0,0,.988-.051.433.433,0,0,0,.363-.486.441.441,0,0,0-.39-.461c-.182-.037-.371-.042-.556-.061Z" transform="translate(-546.055 -446.086)" fill="#04190a"/>
      <path id="Path_4280" data-name="Path 4280" d="M197.8,469.96a2.4,2.4,0,0,1,3.529-2.254,2.152,2.152,0,0,1,1.267,1.957,3.529,3.529,0,0,1-.11,1.137,2.348,2.348,0,0,1-3.071,1.524A2.262,2.262,0,0,1,197.8,469.96Zm3.552-.058a5.865,5.865,0,0,0-.133-.666.95.95,0,0,0-1.007-.7.967.967,0,0,0-1.022.686,2.3,2.3,0,0,0-.04,1.312,1.084,1.084,0,0,0,2.114-.01C201.308,470.337,201.32,470.137,201.352,469.9Z" transform="translate(-187.667 -443.492)" fill="#04190a"/>
      <path id="Path_4281" data-name="Path 4281" d="M662.68,470.491a2.239,2.239,0,0,1-1.3,2.248,2.456,2.456,0,0,1-2.718-.33,2.5,2.5,0,0,1-.727-2.552,2.273,2.273,0,0,1,2.59-1.84,2.238,2.238,0,0,1,2.152,2.244C662.684,470.337,662.68,470.414,662.68,470.491Zm-1.256-.046a5.633,5.633,0,0,0-.128-.662.939.939,0,0,0-1-.709.974.974,0,0,0-1.035.7,2.263,2.263,0,0,0-.039,1.286,1.009,1.009,0,0,0,1.086.848.99.99,0,0,0,1.037-.871C661.385,470.863,661.394,470.675,661.424,470.445Z" transform="translate(-624.16 -444.03)" fill="#04190a"/>
      <path id="Path_4282" data-name="Path 4282" d="M473.63,469.845a2.425,2.425,0,0,1,3.633-2.17,2.2,2.2,0,0,1,1.183,1.962,3.5,3.5,0,0,1-.066.94,2.407,2.407,0,0,1-4.688-.147C473.661,470.236,473.649,470.04,473.63,469.845Zm3.559.071c-.015-.162-.02-.3-.043-.432a2.008,2.008,0,0,0-.088-.346,1.09,1.09,0,0,0-2-.03,2.238,2.238,0,0,0-.07,1.309,1.088,1.088,0,0,0,2.141-.018C477.16,470.232,477.171,470.06,477.189,469.917Z" transform="translate(-449.366 -443.42)" fill="#04190a"/>
      <path id="Path_4283" data-name="Path 4283" d="M294.665,472.559c0,.691-.005,1.383,0,2.074,0,.217-.066.313-.295.3a5.466,5.466,0,0,0-.691,0c-.213.012-.282-.072-.28-.281.007-1.015,0-2.031,0-3.047,0-.385,0-.385-.4-.385-.213,0-.427.01-.64,0s-.266.071-.267.268c0,.6.009,1.2-.042,1.79a3.938,3.938,0,0,1-.26,1.086,1.04,1.04,0,0,1-1.028.669h-.1c-.927-.029-.722-.042-.747-.787-.005-.15.051-.2.21-.21.479-.008.618-.106.651-.588.051-.731.048-1.465.064-2.2.006-.247.011-.5,0-.742-.012-.216.057-.3.288-.3q1.625.014,3.251,0c.213,0,.285.078.283.284C294.661,471.176,294.665,471.867,294.665,472.559Z" transform="translate(-275.068 -446.111)" fill="#04190a"/>
      <path id="Path_4284" data-name="Path 4284" d="M122.408,474.9c-.5,0-.933.011-1.366-.01-.08,0-.176-.12-.226-.2-.33-.577-.649-1.16-.99-1.776-.262.256-.56.434-.516.86.032.3,0,.615.007.922,0,.15-.058.218-.212.216-.264,0-.529-.009-.794,0-.192.008-.256-.076-.256-.256.005-.478,0-.956,0-1.434,0-.905.006-1.81,0-2.715,0-.244.077-.34.324-.322a7.117,7.117,0,0,0,.717,0c.167-.005.226.067.224.229-.006.4,0,.8,0,1.2,0,.082.009.163.018.317.134-.148.223-.244.31-.344.353-.405.71-.807,1.056-1.219a.484.484,0,0,1,.42-.189c.39.01.78,0,1.244,0-.1.123-.145.195-.2.259-.423.469-.843.941-1.275,1.4a.265.265,0,0,0-.039.378c.474.79.938,1.588,1.4,2.382C122.3,474.679,122.336,474.762,122.408,474.9Z" transform="translate(-112.002 -446.087)" fill="#04190a"/>
      <path id="Path_4285" data-name="Path 4285" d="M395.879,471.67c.364-.417.751-.816,1.085-1.255a.97.97,0,0,1,.973-.446,6.9,6.9,0,0,0,.855.007l.023.07c-.133.151-.265.3-.4.452-.338.374-.666.755-1.02,1.114a.3.3,0,0,0-.036.441c.461.768.913,1.542,1.367,2.316.051.086.094.176.175.33a8.7,8.7,0,0,0-.931.006.694.694,0,0,1-.811-.466c-.2-.451-.469-.871-.71-1.3-.04-.072-.088-.14-.133-.212a.988.988,0,0,0-.517.992,5.991,5.991,0,0,1,.008.768c0,.151-.057.219-.211.217-.273-.005-.547,0-.82,0-.154,0-.214-.065-.214-.216q0-2.152,0-4.3c0-.14.059-.2.2-.2.264,0,.53.007.794,0,.187-.008.256.063.253.253-.01.393,0,.786,0,1.178,0,.082.008.164.012.247Z" transform="translate(-374.347 -445.882)" fill="#04190a"/>
    </g>
  </g>
</svg>
