<svg xmlns="http://www.w3.org/2000/svg" width="157.483" height="129" viewBox="0 0 157.483 129">
  <path id="_01" data-name="01" d="M-54.593-31.936q-23.033,0-36.132-17.495t-13.1-46.505q0-29.011,13.1-46.505t36.132-17.495q23.209,0,36.22,17.495T-5.362-95.936q0,29.011-13.011,46.505T-54.593-31.936ZM-73.231-65.87q6.33,10.2,18.637,10.2t18.725-10.374q6.418-10.374,6.418-29.89,0-19.692-6.418-30.066t-18.725-10.374q-12.308,0-18.637,10.374t-6.33,30.066Q-79.56-76.244-73.231-65.87Zm104.791-91.6h21.1V-34.4H28.4V-131.8L5.187-125.3-.791-146.046Z" transform="translate(104.324 160.436)" fill="none" stroke="#fff" stroke-width="1" opacity="0.2"/>
</svg>
