<svg xmlns="http://www.w3.org/2000/svg" width="189.278" height="128.86" viewBox="0 0 189.278 128.86">
  <path id="_02" data-name="02" d="M-71-32.076q-23.008,0-36.092-17.475t-13.085-46.455q0-28.979,13.085-46.455T-71-159.936q23.183,0,36.18,17.475t13,46.455q0,28.979-13,46.455T-71-32.076Zm-18.617-33.9Q-83.293-55.786-71-55.786t18.7-10.362q6.411-10.362,6.411-29.858,0-19.671-6.411-30.033T-71-136.4q-12.294,0-18.617,10.362t-6.323,30.033Q-95.939-76.335-89.616-65.973Zm75.522,31.438v-18.09L27.882-95.83q14.051-14.753,14.051-24.589,0-7.2-4.479-11.592a15.742,15.742,0,0,0-11.5-4.391Q12.075-136.4,5.4-122l-20.373-11.943a42.946,42.946,0,0,1,16.685-19.32A44.839,44.839,0,0,1,25.6-159.936q16.685,0,28.628,10.45T66.17-121.3q0,19.144-20.2,39.342L21.911-57.894H68.1v23.359Z" transform="translate(120.676 160.436)" fill="none" stroke="#eaeaea" stroke-width="1"/>
</svg>
