<svg xmlns="http://www.w3.org/2000/svg" width="190.683" height="128.86" viewBox="0 0 190.683 128.86">
  <path id="_03" data-name="03" d="M-71.447-32.076q-23.008,0-36.092-17.475t-13.085-46.455q0-28.979,13.085-46.455t36.092-17.475q23.183,0,36.18,17.475t13,46.455q0,28.979-13,46.455T-71.447-32.076Zm-18.617-33.9q6.323,10.187,18.617,10.187t18.7-10.362q6.411-10.362,6.411-29.857,0-19.671-6.411-30.033t-18.7-10.362q-12.294,0-18.617,10.362t-6.323,30.033Q-96.387-76.335-90.064-65.973ZM40.958-107.6A41.219,41.219,0,0,1,61.243-94.689a33.219,33.219,0,0,1,7.816,22.217q0,18.968-12.733,29.682T25.151-32.076A50.243,50.243,0,0,1-.579-38.662,37.868,37.868,0,0,1-17-58.069L3.724-70.012Q8.29-55.786,25.151-55.786q9.309,0,14.49-4.479t5.181-12.206A15.36,15.36,0,0,0,39.64-84.59q-5.181-4.566-14.49-4.566H19.882l-9.309-14.051,24.237-31.614H-13.313v-22.657H63.966v20.022Z" transform="translate(121.124 160.436)" fill="none" stroke="#eaeaea" stroke-width="1"/>
</svg>
