<svg xmlns="http://www.w3.org/2000/svg" width="1084" height="396.973" viewBox="0 0 1084 396.973">
  <path id="Path_4269" data-name="Path 4269" d="M-247.267-129.511h-62.507v80.6h-86.632v-80.6H-603.118v-59.765l180.941-243.448h93.212L-496.746-201.888h103.081v-71.828h83.891v71.828h62.507ZM-67.423-36.331q-47.7,0-84.987-23.577T-210.8-128.172q-21.11-44.687-21.11-106.645t21.11-106.645q21.11-44.687,58.395-68.264T-67.423-433.3q47.7,0,84.987,23.577t58.395,68.264q21.11,44.687,21.11,106.645T75.959-128.172Q54.849-83.485,17.564-59.908T-67.423-36.331Zm0-75.118q35.092,0,55.1-30.157T7.695-234.817q0-63.055-20.013-93.212t-55.1-30.157q-34.543,0-54.556,30.157t-20.013,93.212q0,63.055,20.013,93.212T-67.423-111.449Zm548.306-18.063H418.376v80.6H331.743v-80.6H125.032v-59.765L305.973-432.724h93.212L231.4-201.888H334.485v-71.828h83.891v71.828h62.507Z" transform="translate(603.118 433.304)" fill="#fff"/>
</svg>
