<svg xmlns="http://www.w3.org/2000/svg" width="228" height="128.844" viewBox="0 0 228 128.844">
  <g id="Component_4_1" data-name="Component 4 – 1" transform="translate(0.5)">
    <path id="лет" d="M-39.652,60.023V43.159q8.168,1.186,12.252-3.294t4.084-17.522V-32.2H39.4V60.023H21.347V-14.809H-5.266V21.816q0,11.989-2.9,20.157t-7.971,12.121a27.506,27.506,0,0,1-10.8,5.27A39.931,39.931,0,0,1-39.652,60.023ZM74.7,42.632H113.57V60.023H56.523V-32.2h56.388v17.391H74.7V4.821h34.913V21.948H74.7ZM187.348-32.2v17.391h-24.9V60.023H144.267V-14.809H119.5V-32.2Z" transform="translate(39.652 68.101)" fill="none" stroke="#fff" stroke-width="1" opacity="0.2"/>
    <path id="_8" data-name="8" d="M2.642-133.421q17.045,10.192,17.045,29.7,0,17.045-11.861,26.885T-24.418-67q-20.559,0-32.332-9.84t-11.773-26.885q0-19.5,16.869-29.7-12.827-9.313-12.827-25.479,0-17.045,11.509-26.533t28.554-9.489q17.045,0,28.466,9.489T15.47-158.9Q15.47-142.558,2.642-133.421ZM-13-168.213q-4.393-3.866-11.422-3.866t-11.422,3.866q-4.393,3.866-4.393,10.543a13.593,13.593,0,0,0,4.393,10.631q4.393,3.954,11.422,3.954T-13-147.039A13.593,13.593,0,0,0-8.6-157.67Q-8.6-164.347-13-168.213ZM-39-94.236q5.623,4.393,14.585,4.393t14.5-4.481q5.535-4.481,5.535-12.564,0-7.907-5.535-12.388t-14.5-4.481q-8.962,0-14.5,4.481t-5.535,12.388Q-44.45-98.8-39-94.236Z" transform="translate(138.001 194.922)" fill="#fff"/>
  </g>
</svg>
