<svg xmlns="http://www.w3.org/2000/svg" xmlns:xlink="http://www.w3.org/1999/xlink" width="766" height="652" viewBox="0 0 766 652">
  <defs>
    <clipPath id="clip-path">
      <rect id="Rectangle_506" data-name="Rectangle 506" width="766" height="652" transform="translate(0 1252)" fill="#fff" stroke="#707070" stroke-width="1" opacity="0"/>
    </clipPath>
    <clipPath id="clip-path-2">
      <path id="Union_2" data-name="Union 2" d="M-3079.151,1518.911-2494.537,684l1.043.731-584.614,834.914Zm-13.567-9.5L-2508.1,674.5l1.044.731-584.614,834.914Zm-13.567-9.5L-2521.671,665l1.043.731-584.613,834.915Zm-13.568-9.5L-2535.239,655.5l1.044.731-584.614,834.914Zm-13.567-9.5L-2548.806,646l1.043.731-584.613,834.914Zm-13.568-9.5L-2562.374,636.5l1.044.731-584.614,834.915Zm-13.567-9.5L-2575.941,627l1.043.73-584.613,834.915Zm-13.568-9.5L-2589.509,617.5l1.044.731-584.614,834.914Zm-13.567-9.5L-2603.076,608l1.043.731-584.613,834.914Zm-13.568-9.5L-2616.644,598.5l1.044.731-584.614,834.915Zm-13.568-9.5L-2630.21,589l1.043.731-584.613,834.914Zm-13.567-9.5L-2643.778,579.5l1.044.731-584.614,834.914Zm-13.568-9.5L-2657.345,570l1.043.731-584.613,834.915Zm-13.567-9.5L-2670.913,560.5l1.044.731-584.614,834.914Zm-13.567-9.5L-2684.48,551l1.043.731-584.613,834.914Zm-13.568-9.5L-2698.048,541.5l1.044.731-584.614,834.915Zm-13.567-9.5L-2711.615,532l1.043.731-584.613,834.915Zm-13.568-9.5L-2725.182,522.5l1.044.731-584.614,834.914Zm-13.567-9.5L-2738.749,513l1.043.731-584.613,834.914Zm-13.568-9.5L-2752.316,503.5l1.043.731-584.614,834.915Zm-13.567-9.5L-2765.884,494l1.043.731-584.613,834.914Zm-13.568-9.5L-2779.451,484.5l1.043.731-584.614,834.914Zm-13.567-9.5L-2793.019,475l1.043.731-584.613,834.915Zm-13.568-9.5L-2806.587,465.5l1.044.73-584.614,834.915Zm-13.567-9.5L-2820.154,456l1.043.731-584.613,834.914Zm-13.568-9.5L-2833.72,446.5l1.043.731-584.613,834.915Zm-13.567-9.5L-2847.288,437l1.044.731-584.614,834.915Zm-13.568-9.5L-2860.855,427.5l1.043.731-584.613,834.914Zm-13.567-9.5L-2874.423,418l1.043.731-584.613,834.914Zm-13.568-9.5L-2887.99,408.5l1.043.731-584.613,834.915Zm-13.567-9.5L-2901.558,399l1.043.731-584.613,834.914Zm-13.568-9.5L-2915.125,389.5l1.043.731-584.613,834.914Zm-13.567-9.5L-2928.693,380l1.043.731-584.613,834.915Zm-13.568-9.5L-2942.259,370.5l1.043.73-584.613,834.915Zm-13.567-9.5L-2955.827,361l1.043.731L-3539.4,1196.643Zm-13.568-9.5L-2969.394,351.5l1.043.731-584.613,834.914Zm-13.567-9.5L-2982.962,342l1.043.731-584.613,834.915Zm-13.568-9.5L-2996.529,332.5l1.043.731L-3580.1,1168.144Zm-13.567-9.5L-3010.1,323l1.044.731-584.614,834.914Zm-13.568-9.5L-3023.664,313.5l1.043.731-584.613,834.915Zm-13.567-9.5L-3037.231,304l1.044.731L-3620.8,1139.644Zm-13.568-9.5L-3050.8,294.5l1.043.731-584.613,834.914Zm-13.567-9.5L-3064.366,285l1.044.731-584.614,834.915Zm-13.567-9.5L-3077.933,275.5l1.043.73L-3661.5,1111.144Zm-13.568-9.5L-3091.5,266l1.044.731-584.614,834.914Zm-13.567-9.5L-3105.068,256.5l1.043.731-584.613,834.914Zm-13.568-9.5L-3118.636,247l1.044.731-584.614,834.915Zm-13.567-9.5L-3132.2,237.5l1.043.731-584.613,834.914Zm-13.568-9.5L-3145.771,228l1.044.731-584.614,834.914Zm-13.567-9.5L-3159.337,218.5l1.043.731-584.613,834.915Zm-13.568-9.5L-3172.905,209l1.044.73-584.614,834.915Zm-13.567-9.5L-3186.472,199.5l1.043.731-584.613,834.914Zm-13.568-9.5L-3200.04,190l1.044.731-584.614,834.915Zm-13.568-9.5L-3213.607,180.5l1.043.731-584.613,834.915Zm-13.567-9.5L-3227.174,171l1.043.731-584.613,834.914Zm-13.567-9.5L-3240.741,161.5l1.043.731-584.613,834.914Zm-13.568-9.5L-3254.308,152l1.043.731-584.613,834.915Zm-13.567-9.5L-3267.876,142.5l1.043.731-584.613,834.914Zm-13.568-9.5L-3281.443,133l1.043.731-584.614,834.914Zm-13.567-9.5L-3295.011,123.5l1.043.731-584.613,834.915Zm-13.568-9.5L-3308.578,114l1.043.73-584.614,834.915Zm-13.567-9.5L-3322.146,104.5l1.044.731-584.614,834.914Zm-13.568-9.5L-3335.713,95l1.043.731-584.613,834.914Zm-13.567-9.5L-3349.281,85.5l1.044.731L-3932.85,921.145Zm-13.568-9.5L-3362.847,76l1.043.731-584.613,834.914Zm-13.567-9.5L-3376.415,66.5l1.044.731-584.614,834.914Zm-13.568-9.5L-3389.982,57l1.043.731-584.613,834.915Zm-13.567-9.5L-3403.55,47.5l1.044.731L-3987.12,883.145Zm-13.568-9.5L-3417.117,38l1.043.731-584.613,834.914Zm-13.567-9.5L-3430.685,28.5l1.043.731-584.613,834.914Zm-13.568-9.5L-3444.252,19l1.043.73-584.613,834.915Zm-13.567-9.5L-3457.82,9.5l1.044.731-584.614,834.914Zm-13.568-9.5L-3471.386,0l1.043.731-584.613,834.914Z" transform="translate(3579.546 542.819)"/>
    </clipPath>
    <linearGradient id="linear-gradient" y1="0.478" x2="1" y2="0.482" gradientUnits="objectBoundingBox">
      <stop offset="0" stop-color="#f5f5f5" stop-opacity="0"/>
      <stop offset="1" stop-color="#f5f5f5"/>
    </linearGradient>
  </defs>
  <g id="Mask_Group_37" data-name="Mask Group 37" transform="translate(0 -1252)" clip-path="url(#clip-path)">
    <g id="Component_6_1" data-name="Component 6 – 1" transform="translate(-481.454 60)">
      <g id="линии_диагональ" data-name="линии диагональ" transform="translate(476.454 115)" opacity="0.05">
        <g id="Mask_Group_5" data-name="Mask Group 5" clip-path="url(#clip-path-2)">
          <rect id="Rectangle_24" data-name="Rectangle 24" width="769" height="637" transform="translate(0 1080)"/>
        </g>
      </g>
      <g id="Component_5_1" data-name="Component 5 – 1" transform="translate(481.454)">
        <g id="меню" transform="translate(39 -60)">
          <path id="основа" d="M-785.376,142.454h-1113V118.387l25.934-25.934H-785.376v50Z" transform="translate(2456.376 -32.453)" fill="#fff"/>
          <text id="Производство" transform="translate(618 89)" fill="#04190a" font-size="14" font-family="SegoeUI-Semibold, Segoe UI" font-weight="600" letter-spacing="0.015em"><tspan x="0" y="0">Производство</tspan></text>
          <text id="Холодная_логистика" data-name="Холодная логистика" transform="translate(814 89)" fill="#04190a" font-size="14" font-family="SegoeUI-Semibold, Segoe UI" font-weight="600" letter-spacing="0.015em"><tspan x="0" y="0">Холодная логистика</tspan></text>
          <text id="Контакты" transform="translate(1052 89)" fill="#04190a" font-size="14" font-family="SegoeUI-Semibold, Segoe UI" font-weight="600" letter-spacing="0.015em"><tspan x="0" y="0">Контакты</tspan></text>
          <g id="почта" transform="translate(112.572)">
            <text id="info_rubitron.ru" data-name="info@rubitron.ru" transform="translate(1297 89)" fill="#04190a" font-size="14" font-family="SegoeUI-Semibold, Segoe UI" font-weight="600" letter-spacing="0.015em"><tspan x="0" y="0">info@rubitron.ru</tspan></text>
            <g id="email_6_" data-name="email (6)" transform="translate(1256.429 8.896)">
              <g id="Group_2" data-name="Group 2" transform="translate(0 68)">
                <g id="Group_1" data-name="Group 1" transform="translate(0 0)">
                  <path id="Path_713" data-name="Path 713" d="M18.156,68H2.41A2.413,2.413,0,0,0,0,70.41V80.693A2.413,2.413,0,0,0,2.41,83.1H18.156a2.413,2.413,0,0,0,2.41-2.41V70.41A2.413,2.413,0,0,0,18.156,68Zm.8,12.693a.8.8,0,0,1-.8.8H2.41a.8.8,0,0,1-.8-.8V70.41a.8.8,0,0,1,.8-.8H18.156a.8.8,0,0,1,.8.8Z" transform="translate(0 -68)" fill="#a0a0a0"/>
                </g>
              </g>
              <g id="Group_4" data-name="Group 4" transform="translate(0.784 69.001)" opacity="0.5">
                <g id="Group_3" data-name="Group 3" transform="translate(0 0)">
                  <path id="Path_714" data-name="Path 714" d="M37.562,92.937l-8.541,6.347-8.541-6.347-.959,1.288,9.5,7.06,9.5-7.06Z" transform="translate(-19.522 -92.937)" fill="#a0a0a0"/>
                </g>
              </g>
            </g>
          </g>
          <g id="язык" transform="translate(-101.092)">
            <text id="RU" transform="translate(1694 89)" fill="#4c8e2d" font-size="14" font-family="SegoeUI-Bold, Segoe UI" font-weight="700" letter-spacing="-0.015em"><tspan x="-19.054" y="0">RU</tspan></text>
            <path id="down-arrow" d="M7.138,48.907,4.046,52,.954,48.907,0,49.861l4.046,4.046,4.046-4.046Z" transform="translate(1704 32.093)" fill="#a0a0a0"/>
          </g>
          <g id="телефон" transform="translate(1291.752 50.902)">
            <g id="Path_757" data-name="Path 757" transform="translate(0)" fill="#a0a0a0">
              <path d="M 11.77338790893555 42.19801330566406 C 10.23329830169678 42.19801330566406 8.785408020019531 41.59827423095703 7.696437835693359 40.50927352905273 L 1.625198006629944 34.44983673095703 C -0.6230919361114502 32.20153427124023 -0.6232419610023499 28.54353523254395 1.624778032302856 26.29547500610352 L 2.432778120040894 25.48747444152832 C 2.748418092727661 25.17184448242188 3.168087959289551 24.99801445007324 3.614468097686768 24.99801445007324 C 4.06082820892334 24.99801445007324 4.480487823486328 25.17184448242188 4.796128273010254 25.48747444152832 L 7.018097877502441 27.70944404602051 C 7.333727836608887 28.02504539489746 7.50755786895752 28.44471549987793 7.50755786895752 28.89114570617676 C 7.50755786895752 29.33753395080566 7.333727836608887 29.75720405578613 7.018097877502441 30.07283401489258 L 6.008158206939697 31.08280563354492 C 5.802227973937988 31.28873443603516 5.688817977905273 31.56252479553223 5.688817977905273 31.85374450683594 C 5.688817977905273 32.14496612548828 5.802227973937988 32.41876602172852 6.008158206939697 32.62469482421875 L 9.520447731018066 36.12521362304688 C 9.727118492126465 36.33188629150391 10.00090789794922 36.44529342651367 10.29213809967041 36.44529342651367 C 10.58335781097412 36.44529342651367 10.85715770721436 36.33188629150391 11.06307792663574 36.1259651184082 L 12.07304763793945 35.11599349975586 C 12.38868808746338 34.80035400390625 12.80835819244385 34.62652587890625 13.25474834442139 34.62652587890625 C 13.70109844207764 34.62652587890625 14.12076759338379 34.80035400390625 14.43643760681152 35.11599349975586 L 16.65836715698242 37.33792495727539 C 17.30995750427246 37.9895133972168 17.30995750427246 39.04972457885742 16.65836715698242 39.70131301879883 L 15.85037803649902 40.50930404663086 C 14.76132774353027 41.59828567504883 13.31342792510986 42.19801330566406 11.77338790893555 42.19801330566406 Z M 3.614438056945801 26.24573516845703 C 3.501098155975342 26.24573516845703 3.394698143005371 26.28971481323242 3.31483793258667 26.36957550048828 L 2.506848096847534 27.17757415771484 C 1.654857993125916 28.02955436706543 1.185648083686829 29.16419410705566 1.185648083686829 30.37246513366699 C 1.185648083686829 31.58073425292969 1.654857993125916 32.71536636352539 2.506848096847534 33.56735610961914 L 8.578078269958496 39.62678527832031 C 9.431757926940918 40.48046493530273 10.56650829315186 40.9505729675293 11.77338790893555 40.9505729675293 C 12.98022842407227 40.9505729675293 14.11485767364502 40.48059463500977 14.96827793121338 39.62720489501953 L 15.77626800537109 38.8192138671875 C 15.85614776611328 38.73934555053711 15.90014839172363 38.6329460144043 15.90014839172363 38.51960372924805 C 15.90014839172363 38.40625381469727 15.85614776611328 38.29985427856445 15.77627849578857 38.21999359130859 L 13.55430793762207 35.99805450439453 C 13.47425842285156 35.91800308227539 13.36785793304443 35.87392425537109 13.2547082901001 35.87392425537109 C 13.1415376663208 35.87392425537109 13.03512763977051 35.91800308227539 12.955078125 35.99805450439453 L 11.94510841369629 37.00802612304688 C 11.50357818603516 37.44956588745117 10.91652774810791 37.69273376464844 10.29209804534912 37.69273376464844 C 9.667677879333496 37.69273376464844 9.080628395080566 37.44956588745117 8.639098167419434 37.00802612304688 L 5.126808166503906 33.50750350952148 C 4.684738159179688 33.06543350219727 4.441348075866699 32.47816467285156 4.441348075866699 31.85374450683594 C 4.441348075866699 31.22933578491211 4.684517860412598 30.64228439331055 5.126058101654053 30.20074462890625 L 6.136027812957764 29.19076538085938 C 6.216048240661621 29.11075401306152 6.260118007659912 29.00434494018555 6.260118007659912 28.89113426208496 C 6.260118007659912 28.7779541015625 6.216048240661621 28.67155456542969 6.136027812957764 28.59154510498047 L 3.914067983627319 26.36957550048828 C 3.834208011627197 26.28971481323242 3.727797985076904 26.24573516845703 3.614438056945801 26.24573516845703 Z" stroke="none"/>
              <path d="M 11.77338790893555 42.09801483154297 C 13.28672790527344 42.09801483154297 14.70949840545654 41.50869369506836 15.77966785430908 40.43859481811523 L 16.5876579284668 39.6306037902832 C 17.20026779174805 39.01799392700195 17.20026779174805 38.02124404907227 16.5876579284668 37.40863418579102 L 14.3657283782959 35.18670654296875 C 14.0689582824707 34.88996505737305 13.67441844940186 34.72652435302734 13.25474834442139 34.72652435302734 C 12.83506774902344 34.72652435302734 12.44049835205078 34.88996505737305 12.14375782012939 35.18670654296875 L 11.13378810882568 36.19667434692383 C 10.90896797180176 36.42149353027344 10.61006832122803 36.54529571533203 10.29213809967041 36.54529571533203 C 9.974207878112793 36.54529571533203 9.675297737121582 36.42149353027344 9.450488090515137 36.19667434692383 C 9.450278282165527 36.19646453857422 9.450068473815918 36.19625473022461 9.449857711791992 36.196044921875 L 5.937448024749756 32.69540405273438 C 5.71262788772583 32.47058486938477 5.588818073272705 32.17168426513672 5.588818073272705 31.85374450683594 C 5.588818073272705 31.53581428527832 5.71262788772583 31.23691558837891 5.937448024749756 31.01209449768066 L 6.947388172149658 30.00212478637695 C 7.244128227233887 29.70538520812988 7.407557964324951 29.31081390380859 7.407557964324951 28.89114570617676 C 7.407557964324951 28.47146415710449 7.244158267974854 28.07689476013184 6.947388172149658 27.78015518188477 L 4.725418090820313 25.55818557739258 C 4.428678035736084 25.26145553588867 4.034148216247559 25.09801483154297 3.614468097686768 25.09801483154297 C 3.194797992706299 25.09801483154297 2.800228118896484 25.26145553588867 2.503488063812256 25.55818557739258 L 1.695488095283508 26.36618423461914 C -0.5135519504547119 28.57526397705078 -0.5135519504547119 32.16965484619141 1.695838093757629 34.37905502319336 L 7.767148017883301 40.43856430053711 C 8.837247848510742 41.50869369506836 10.26001834869385 42.09801483154297 11.77338790893555 42.09801483154297 M 3.614438056945801 26.1457347869873 C 3.748538017272949 26.1457347869873 3.882688045501709 26.19677543640137 3.984777927398682 26.29886436462402 L 6.206737995147705 28.52083396911621 C 6.305657863616943 28.6197452545166 6.36011791229248 28.75123405456543 6.36011791229248 28.89113426208496 C 6.36011791229248 29.03104400634766 6.305657863616943 29.16256523132324 6.206737995147705 29.261474609375 L 5.196767807006836 30.27145576477051 C 4.774127960205078 30.69409561157227 4.541347980499268 31.25604438781738 4.541347980499268 31.85374450683594 C 4.541347980499268 32.45145416259766 4.774127960205078 33.01340484619141 5.19739818572998 33.43667602539063 L 8.709808349609375 36.93731307983398 C 9.132448196411133 37.35996627807617 9.694397926330566 37.59273529052734 10.29209804534912 37.59273529052734 C 10.88983821868896 37.59273529052734 11.45175838470459 37.35996627807617 11.87439823150635 36.93731307983398 L 12.88436794281006 35.92734527587891 C 12.98331832885742 35.82839584350586 13.11480808258057 35.77392578125 13.2547082901001 35.77392578125 C 13.3945779800415 35.77392578125 13.52609825134277 35.82842636108398 13.62501811981201 35.92734527587891 L 15.84697818756104 38.14927673339844 C 16.05119895935059 38.35345458984375 16.05119895935059 38.68574523925781 15.84697818756104 38.88992309570313 L 15.03898811340332 39.69791412353516 C 14.1666784286499 40.57019424438477 13.0069580078125 41.05057525634766 11.77338790893555 41.05057525634766 C 10.53981781005859 41.05057525634766 9.380058288574219 40.57019424438477 8.507437705993652 39.69756317138672 L 2.436138153076172 33.63806533813477 C 0.6354880332946777 31.83741569519043 0.6354880332946777 28.90750503540039 2.436138153076172 27.10686492919922 L 3.244127988815308 26.29886436462402 C 3.346218109130859 26.19677543640137 3.48032808303833 26.1457347869873 3.614438056945801 26.1457347869873 M 11.77338790893555 42.29801559448242 C 10.20658779144287 42.29801559448242 8.733577728271484 41.68787384033203 7.625728130340576 40.57998657226563 L 1.554558038711548 34.52061462402344 C -0.7327919602394104 32.23325347900391 -0.7329519391059875 28.51181411743164 1.554068088531494 26.22476577758789 L 2.362067937850952 25.4167652130127 C 2.696598052978516 25.08224487304688 3.141377925872803 24.89801406860352 3.614468097686768 24.89801406860352 C 4.087538242340088 24.89801406860352 4.532308101654053 25.08224487304688 4.866837978363037 25.4167652130127 L 7.088808059692383 27.63873481750488 C 7.423327922821045 27.97321510314941 7.607558250427246 28.41800498962402 7.607558250427246 28.89114570617676 C 7.607558250427246 29.36424446105957 7.423327922821045 29.80902481079102 7.088808059692383 30.14354515075684 L 6.07886791229248 31.15351486206055 C 5.891828060150146 31.34055519104004 5.788817882537842 31.58923530578613 5.788817882537842 31.85374450683594 C 5.788817882537842 32.11825561523438 5.891828060150146 32.366943359375 6.07886791229248 32.55398559570313 L 9.591037750244141 36.05438613891602 C 9.778938293457031 36.24229431152344 10.02761840820313 36.34529495239258 10.29213809967041 36.34529495239258 C 10.55664825439453 36.34529495239258 10.80532836914063 36.24228668212891 10.9923677444458 36.05525588989258 L 12.00233840942383 35.04528427124023 C 12.33686828613281 34.71075439453125 12.78164768218994 34.52652359008789 13.25474834442139 34.52652359008789 C 13.72780799865723 34.52652359008789 14.17258834838867 34.71075439453125 14.5071382522583 35.0452766418457 L 16.72907829284668 37.26721572875977 C 17.41965866088867 37.95779418945313 17.41965866088867 39.08144378662109 16.72907829284668 39.77202606201172 L 15.92108821868896 40.58001327514648 C 14.81314849853516 41.68788528442383 13.34013843536377 42.29801559448242 11.77338790893555 42.29801559448242 Z M 3.614438056945801 26.34573554992676 C 3.527807950973511 26.34573554992676 3.446517944335938 26.37931442260742 3.385548114776611 26.44028472900391 L 2.577558040618896 27.2482852935791 C 1.744458079338074 28.08138465881348 1.285647988319397 29.19090461730957 1.285647988319397 30.37246513366699 C 1.285647988319397 31.55402565002441 1.744458079338074 32.66354370117188 2.577558040618896 33.49664306640625 L 8.648717880249023 39.55600357055664 C 9.483577728271484 40.39087295532227 10.59321784973145 40.8505744934082 11.77338790893555 40.8505744934082 C 12.95351791381836 40.8505744934082 14.06303787231445 40.39099502563477 14.89756774902344 39.55649566650391 L 15.70555782318115 38.74850463867188 C 15.76655769348145 38.68751525878906 15.80014801025391 38.60622406005859 15.80014801025391 38.51960372924805 C 15.80014801025391 38.43297576904297 15.76655769348145 38.3516845703125 15.70556831359863 38.29071426391602 L 13.48359775543213 36.06876373291016 C 13.42243766784668 36.00760650634766 13.34114837646484 35.97392654418945 13.2547082901001 35.97392654418945 C 13.16824817657471 35.97392654418945 13.08694839477539 36.00760650634766 13.02578830718994 36.06876373291016 L 12.01581764221191 37.0787353515625 C 11.55539798736572 37.53916549682617 10.94323825836182 37.7927360534668 10.29209804534912 37.7927360534668 C 9.640968322753906 37.7927360534668 9.028807640075684 37.53916549682617 8.568387985229492 37.0787353515625 L 5.056218147277832 33.57833480834961 C 4.595138072967529 33.11726379394531 4.341348171234131 32.50487518310547 4.341348171234131 31.85374450683594 C 4.341348171234131 31.2026252746582 4.594918251037598 30.5904655456543 5.055347919464111 30.13003540039063 L 6.06531810760498 29.12005424499512 C 6.126448154449463 29.05892562866211 6.160118103027344 28.97762489318848 6.160118103027344 28.89113426208496 C 6.160118103027344 28.80466461181641 6.126448154449463 28.72338485717773 6.065328121185303 28.66226577758789 L 3.843358039855957 26.44028472900391 C 3.782387971878052 26.37931442260742 3.701087951660156 26.34573554992676 3.614438056945801 26.34573554992676 Z" stroke="none" fill="#a0a0a0"/>
            </g>
          </g>
        </g>
        <rect id="переход" width="766" height="652" transform="translate(0 1194)" fill="url(#linear-gradient)"/>
      </g>
    </g>
  </g>
</svg>
