<svg id="Слой_1" data-name="Слой 1" xmlns="http://www.w3.org/2000/svg" xmlns:xlink="http://www.w3.org/1999/xlink" width="165.158" height="36" viewBox="0 0 165.158 36">
  <defs>
    <linearGradient id="linear-gradient" x1="0.031" y1="0.147" x2="0.93" y2="0.688" gradientUnits="objectBoundingBox">
      <stop offset="0" stop-color="#0a9a40"/>
      <stop offset="1" stop-color="#89c737"/>
    </linearGradient>
    <linearGradient id="linear-gradient-2" x1="0.308" y1="0" x2="0.674" y2="0.771" xlink:href="#linear-gradient"/>
    <linearGradient id="linear-gradient-3" x1="0.966" y1="0.311" x2="0.413" y2="0.819" gradientUnits="objectBoundingBox">
      <stop offset="0" stop-color="#005594"/>
      <stop offset="1" stop-color="#11b5f4"/>
    </linearGradient>
  </defs>
  <path id="Path_749" data-name="Path 749" d="M177.843,15.883V30.758h-.14a3.16,3.16,0,0,1-1.775-.6l-8.663-6.538v7.138H163V15.883h.2a2.864,2.864,0,0,1,1.557.483l8.8,6.608V18.46a2.514,2.514,0,0,1,.817-1.821,2.7,2.7,0,0,1,1.891-.778ZM57.24,30.758V15.914h8.889a6.313,6.313,0,0,1,4.1,1.494,4.943,4.943,0,0,1,1.611,2.3,4.46,4.46,0,0,1,.218,1.417,4.585,4.585,0,0,1-1.113,3,5.612,5.612,0,0,1-1.759,1.44l3.573,5.192H67.772l-3.059-4.413H61.5v4.413ZM61.5,22.523h4.476a1.954,1.954,0,0,0,1.308-.467,1.238,1.238,0,0,0,.49-.973,1.214,1.214,0,0,0-.49-.957,1.962,1.962,0,0,0-1.183-.459H61.5ZM83.97,18.335a2.53,2.53,0,0,1,.778-1.689,2.7,2.7,0,0,1,1.891-.778H88.2v9.613a4.67,4.67,0,0,1-1.712,3.635,5.9,5.9,0,0,1-1.9,1.144,6.126,6.126,0,0,1-2.467.5h-2.6a6.04,6.04,0,0,1-2.475-.506,5.76,5.76,0,0,1-1.891-1.136,4.67,4.67,0,0,1-1.712-3.635v-9.59H77.7v8.414a2.234,2.234,0,0,0,.864,1.782,3.417,3.417,0,0,0,2.257.778,3.324,3.324,0,0,0,2.234-.778h0a2.179,2.179,0,0,0,.9-1.736Zm58.542,1.354a4.67,4.67,0,0,1,.21,1.417,4.585,4.585,0,0,1-1.113,3,5.612,5.612,0,0,1-1.759,1.44l3.6,5.215h-5l-3.051-4.413h-3.238v4.413h-4.281V15.914h8.889a6.313,6.313,0,0,1,4.1,1.495,4.966,4.966,0,0,1,1.635,2.3Zm2.678,0a8.048,8.048,0,0,1,1.51-1.65,9.068,9.068,0,0,1,5.9-2.148h.451a9.169,9.169,0,0,1,5.908,2.148,8.321,8.321,0,0,1,1.557,1.65,6.3,6.3,0,0,1,1.105,3.635,6.562,6.562,0,0,1-2.631,5.285,9.808,9.808,0,0,1-12.252,0,6.64,6.64,0,0,1-2.608-5.285,6.352,6.352,0,0,1,1.059-3.612Zm-8.562,0h-4.46v2.833h4.476a1.915,1.915,0,0,0,1.3-.467,1.238,1.238,0,0,0,.49-.973,1.214,1.214,0,0,0-.49-.957,1.961,1.961,0,0,0-1.191-.459Zm12.991,6.18a4.9,4.9,0,0,0,3.2,1.09,4.8,4.8,0,0,0,3.176-1.09,3.246,3.246,0,0,0,1.269-2.545,3.207,3.207,0,0,0-1.269-2.53A4.748,4.748,0,0,0,153,19.69h-.374a4.849,4.849,0,0,0-3.012,1.105,3.222,3.222,0,0,0-1.245,2.53,3.269,3.269,0,0,0,1.253,2.569Zm-48.532-9.6a5.581,5.581,0,0,1,1.736.981,4.624,4.624,0,0,1,1.183,1.479,4.281,4.281,0,0,1,.366.981,3.969,3.969,0,0,1,.086.864,4.094,4.094,0,0,1-1.051,2.771,4.071,4.071,0,0,1,1.051,2.779,3.892,3.892,0,0,1-.451,1.845,4.709,4.709,0,0,1-1.183,1.479,5.752,5.752,0,0,1-1.72.981,6.157,6.157,0,0,1-2.07.35h-9.4V15.914h9.527A6,6,0,0,1,101.086,16.273ZM99.864,20a1.144,1.144,0,0,0-.374-.21,1.331,1.331,0,0,0-.381-.078H93.879v1.759h5.137a1.4,1.4,0,0,0,.459-.086,1.355,1.355,0,0,0,.389-.218.864.864,0,0,0,.218-.272.662.662,0,0,0,.07-.319.631.631,0,0,0-.078-.3.662.662,0,0,0-.21-.272Zm-5.986,7.005h5.137a1.6,1.6,0,0,0,.475-.078,1.09,1.09,0,0,0,.374-.21.888.888,0,0,0,.218-.272.623.623,0,0,0,.07-.3.584.584,0,0,0-.078-.3.779.779,0,0,0-.21-.288,1.144,1.144,0,0,0-.374-.21,1.323,1.323,0,0,0-.475-.078H93.879ZM105.873,15.93h4.266V30.758h-4.266Zm20.549,3.8h-5.27v11.03h-4.289V19.713h-5.285v-1.2a2.53,2.53,0,0,1,.778-1.821,2.771,2.771,0,0,1,1.775-.778H126.4Z" transform="translate(-12.685 -3.515)" fill="#04190a" fill-rule="evenodd"/>
  <g id="Group_27" data-name="Group 27">
    <path id="Path_751" data-name="Path 751" d="M24.22,0h0V10.407h0a12.6,12.6,0,0,1,5.721,1.432h0a13.38,13.38,0,0,1,3.191,2.382A13.233,13.233,0,0,1,35.795,17.9a12.9,12.9,0,0,1,1.214,5.6,12.742,12.742,0,0,1-1.432,6.071,13.8,13.8,0,0,1-4.733,5.075h0a.07.07,0,0,0,0,.039h0a17.8,17.8,0,0,0,5.768-3.939,17.226,17.226,0,0,0,5.34-11.434h0c0-.42.054-.848.054-1.284h0a9.946,9.946,0,0,0-.054-1.277h0A17.272,17.272,0,0,0,36.69,5.277,17.241,17.241,0,0,0,25.216.047h0A6.843,6.843,0,0,1,24.243,0h0" transform="translate(-5.368)" fill="url(#linear-gradient)"/>
    <path id="Path_753" data-name="Path 753" d="M.047,22.7H0a6.681,6.681,0,0,0,.047.965,12.049,12.049,0,0,0,3.627,7.589A12.851,12.851,0,0,0,6.788,33.59a12.275,12.275,0,0,0,5.791,1.37,12.454,12.454,0,0,0,4.787-.9h0a13.1,13.1,0,0,1-3.051-2.335,13.116,13.116,0,0,1-2.4-3.207,12.711,12.711,0,0,1-1.432-5.729H.047Z" transform="translate(0 -5.031)" fill="url(#linear-gradient-2)"/>
    <path id="Path_754" data-name="Path 754" d="M24.767,16.52h0a12.929,12.929,0,0,1,1,5.122h0a12.711,12.711,0,0,1-1.432,6.032h0a13.77,13.77,0,0,1-6.017,5.807h0a13.079,13.079,0,0,1-11.684-.125,13.233,13.233,0,0,1-3.176-2.413,13.342,13.342,0,0,1-1.876-2.335H1.54a17.8,17.8,0,0,0,3.939,5.768,17.21,17.21,0,0,0,11.466,5.239h0q.63.047,1.284.047a11.522,11.522,0,0,0,1.277-.047,12.042,12.042,0,0,0,7.6-3.627,12.929,12.929,0,0,0,2.335-3.075A12.244,12.244,0,0,0,30.7,27.184a12.283,12.283,0,0,0-1.168-5.371,12.758,12.758,0,0,0-2.506-3.495,13.233,13.233,0,0,0-2.218-1.8h-.054" transform="translate(-0.341 -3.661)" fill="url(#linear-gradient-3)"/>
  </g>
</svg>
