<svg xmlns="http://www.w3.org/2000/svg" xmlns:xlink="http://www.w3.org/1999/xlink" width="212.18" height="47.316" viewBox="0 0 212.18 47.316">
  <defs>
    <linearGradient id="linear-gradient" x1="0.031" y1="0.147" x2="0.93" y2="0.688" gradientUnits="objectBoundingBox">
      <stop offset="0" stop-color="#0a9a40"/>
      <stop offset="1" stop-color="#89c737"/>
    </linearGradient>
    <linearGradient id="linear-gradient-2" x1="0.308" y1="0" x2="0.674" y2="0.771" xlink:href="#linear-gradient"/>
    <linearGradient id="linear-gradient-3" x1="0.966" y1="0.311" x2="0.413" y2="0.819" gradientUnits="objectBoundingBox">
      <stop offset="0" stop-color="#005594"/>
      <stop offset="1" stop-color="#11b5f4"/>
    </linearGradient>
  </defs>
  <g id="логотип" transform="translate(-7.44 -8.524)">
    <g id="Слой_1" data-name="Слой 1">
      <path id="Path_749" data-name="Path 749" d="M212.18,15.89V35H212a4.06,4.06,0,0,1-2.28-.77l-11.13-8.4V35h-5.48V15.89h.26a3.68,3.68,0,0,1,2,.62L206.67,25V19.2a3.23,3.23,0,0,1,1.05-2.34,3.47,3.47,0,0,1,2.43-1ZM57.24,35V15.93H68.66a8.11,8.11,0,0,1,5.27,1.92A6.35,6.35,0,0,1,76,20.81a5.73,5.73,0,0,1,.28,1.82,5.89,5.89,0,0,1-1.43,3.85,7.21,7.21,0,0,1-2.26,1.85L77.18,35H70.77l-3.93-5.67H62.71V35Zm5.47-10.58h5.75a2.51,2.51,0,0,0,1.68-.6,1.59,1.59,0,0,0,.63-1.25,1.56,1.56,0,0,0-.63-1.23,2.52,2.52,0,0,0-1.52-.59H62.71Zm28.87-5.38a3.25,3.25,0,0,1,1-2.17,3.47,3.47,0,0,1,2.43-1h2V28.22a6,6,0,0,1-2.2,4.67,7.58,7.58,0,0,1-2.44,1.47A7.87,7.87,0,0,1,89.2,35H85.86a7.76,7.76,0,0,1-3.18-.65,7.4,7.4,0,0,1-2.43-1.46,6,6,0,0,1-2.2-4.67V15.9h5.48V26.71A2.87,2.87,0,0,0,84.64,29a4.39,4.39,0,0,0,2.9,1,4.27,4.27,0,0,0,2.87-1h0a2.8,2.8,0,0,0,1.15-2.23Zm75.21,1.74a6,6,0,0,1,.27,1.82,5.89,5.89,0,0,1-1.43,3.85,7.21,7.21,0,0,1-2.26,1.85L168,35h-6.42l-3.92-5.67H153.5V35H148V15.93h11.42a8.11,8.11,0,0,1,5.27,1.92,6.38,6.38,0,0,1,2.1,2.96Zm3.44,0a10.34,10.34,0,0,1,1.94-2.12,11.65,11.65,0,0,1,7.58-2.76h.58a11.78,11.78,0,0,1,7.59,2.76,10.691,10.691,0,0,1,2,2.12,8.09,8.09,0,0,1,1.42,4.67,8.43,8.43,0,0,1-3.38,6.79,12.6,12.6,0,0,1-15.74,0,8.53,8.53,0,0,1-3.35-6.79,8.16,8.16,0,0,1,1.36-4.64Zm-11,0H153.5v3.64h5.75a2.46,2.46,0,0,0,1.67-.6,1.59,1.59,0,0,0,.63-1.25,1.56,1.56,0,0,0-.63-1.23,2.52,2.52,0,0,0-1.53-.59Zm16.69,7.94a6.3,6.3,0,0,0,4.11,1.4,6.16,6.16,0,0,0,4.08-1.4,4.17,4.17,0,0,0,1.63-3.27,4.12,4.12,0,0,0-1.63-3.25,6.1,6.1,0,0,0-3.84-1.42h-.48a6.23,6.23,0,0,0-3.87,1.42,4.14,4.14,0,0,0-1.6,3.25,4.2,4.2,0,0,0,1.61,3.3ZM113.57,16.39a7.17,7.17,0,0,1,2.23,1.26,5.94,5.94,0,0,1,1.52,1.9,5.5,5.5,0,0,1,.47,1.26,5.1,5.1,0,0,1,.11,1.11,5.26,5.26,0,0,1-1.35,3.56,5.23,5.23,0,0,1,1.35,3.57,5,5,0,0,1-.58,2.37,6.05,6.05,0,0,1-1.52,1.9,7.39,7.39,0,0,1-2.21,1.26,7.91,7.91,0,0,1-2.66.45H98.86V15.93H111.1A7.71,7.71,0,0,1,113.57,16.39ZM112,21.18a1.47,1.47,0,0,0-.48-.27,1.71,1.71,0,0,0-.49-.1h-6.72v2.26h6.6a1.8,1.8,0,0,0,.59-.11,1.74,1.74,0,0,0,.5-.28,1.11,1.11,0,0,0,.28-.35.85.85,0,0,0,.09-.41.81.81,0,0,0-.1-.39.85.85,0,0,0-.27-.35Zm-7.69,9h6.6a2.05,2.05,0,0,0,.61-.1,1.4,1.4,0,0,0,.48-.27,1.14,1.14,0,0,0,.28-.35.8.8,0,0,0,.09-.39.75.75,0,0,0-.1-.38,1,1,0,0,0-.27-.37,1.47,1.47,0,0,0-.48-.27,1.7,1.7,0,0,0-.61-.1h-6.6Zm15.41-14.23h5.48V35h-5.48Zm26.4,4.88h-6.77V35h-5.51V20.81h-6.79V19.27a3.25,3.25,0,0,1,1-2.34,3.56,3.56,0,0,1,2.28-1h15.76Z" transform="translate(7.44 9.09)" fill="#fff" fill-rule="evenodd"/>
      <g id="Group_27" data-name="Group 27">
        <path id="Path_751" data-name="Path 751" d="M24.22,0h0V13.37h0a16.19,16.19,0,0,1,7.35,1.84h0a17.19,17.19,0,0,1,4.1,3.06A17,17,0,0,1,39.09,23a16.57,16.57,0,0,1,1.56,7.2A16.37,16.37,0,0,1,38.81,38a17.732,17.732,0,0,1-6.08,6.52h0a.09.09,0,0,0,0,.05h0a22.87,22.87,0,0,0,7.41-5.06A22.13,22.13,0,0,0,47,24.82h0c0-.54.07-1.09.07-1.65h0A12.778,12.778,0,0,0,47,21.53h0A22.19,22.19,0,0,0,40.24,6.78,22.15,22.15,0,0,0,25.5.06h0A8.791,8.791,0,0,1,24.25,0h0" transform="translate(7.44 9.09)" stroke="#fff" stroke-linecap="round" stroke-linejoin="round" stroke-width="1" fill="url(#linear-gradient)"/>
        <g id="Path_753" data-name="Path 753" transform="translate(7.44 9.09)" stroke-linecap="round" stroke-linejoin="round" fill="url(#linear-gradient-2)">
          <path d="M 15.96198081970215 37.95123672485352 C 13.53360843658447 37.95123672485352 11.10976314544678 37.36200332641602 8.952337265014648 36.24724960327148 C 7.519005298614502 35.47947692871094 6.215177536010742 34.50136184692383 5.077110767364502 33.34004592895508 L 5.072370529174805 33.335205078125 L 5.067490577697754 33.33049774169922 C 2.480380773544312 30.82990646362305 0.8788806796073914 27.4791259765625 0.5580106973648071 23.89540672302246 L 0.5567606687545776 23.88145637512207 L 0.5547307133674622 23.86759567260742 C 0.5283010005950928 23.68699264526367 0.5146355032920837 23.49953460693359 0.5075686573982239 23.31000518798828 L 12.98264980316162 23.30999565124512 C 13.08224964141846 25.7725658416748 13.72961044311523 28.2139720916748 14.86637115478516 30.40063667297363 C 15.70236015319824 31.97290992736816 16.76794624328613 33.3988037109375 18.03558349609375 34.64274215698242 C 18.97361373901367 35.60866165161133 20.01805114746094 36.45963287353516 21.15050888061523 37.18158721923828 C 19.59387969970703 37.69247055053711 17.97579383850098 37.95086669921875 16.32673072814941 37.95086669921875 C 16.27295112609863 37.95086669921875 16.2190113067627 37.95058441162109 16.16521072387695 37.95002746582031 L 16.15947151184082 37.94996643066406 L 16.15372085571289 37.95003509521484 C 16.08967018127441 37.95083618164063 16.02599143981934 37.95123672485352 15.96198081970215 37.95123672485352 Z" stroke="none"/>
          <path d="M 1.051509857177734 23.80999755859375 C 1.053291320800781 23.82357406616211 1.05479621887207 23.83718490600586 1.056020736694336 23.85082626342773 C 1.366180419921875 27.31492614746094 2.914230346679688 30.55385589599609 5.414979934692383 32.97097778320313 C 5.421480178833008 32.97725677490234 5.427890777587891 32.98362731933594 5.434221267700195 32.99008560180664 C 6.536064147949219 34.11444854736328 7.798161506652832 35.06147003173828 9.185737609863281 35.80504608154297 C 11.27155590057373 36.88202285766602 13.61455917358398 37.45123672485352 15.96198081970215 37.45123672485352 C 16.02390098571777 37.45123672485352 16.08549118041992 37.45085525512695 16.14745140075684 37.45007705688477 C 16.15171241760254 37.45001983642578 16.15596961975098 37.44999313354492 16.16022682189941 37.44999313354492 C 16.16363143920898 37.44999313354492 16.16703605651855 37.45001220703125 16.17044067382813 37.45004653930664 C 16.22249984741211 37.45059585571289 16.27470016479492 37.45086669921875 16.32673072814941 37.45086669921875 C 17.57137298583984 37.45086669921875 18.79763603210449 37.29879760742188 19.99181938171387 36.99729919433594 C 19.16690444946289 36.39836883544922 18.39406204223633 35.72909545898438 17.68097305297852 34.99528503417969 C 16.37869262695313 33.71649169921875 15.28398132324219 32.25106811523438 14.42706108093262 30.63948631286621 C 14.42560005187988 30.63675689697266 14.42416000366211 30.63400650024414 14.42273139953613 30.63125610351563 C 13.32614898681641 28.52186965942383 12.67182159423828 26.18206405639648 12.50921154022217 23.80999755859375 L 1.051509857177734 23.80999755859375 M 0 22.69999694824219 L 0.06000137329101563 22.69999694824219 L 0.06000137329101563 22.80999755859375 L 13.47000026702881 22.80999755859375 L 13.47000026702881 22.81000518798828 C 13.49705028533936 25.3737678527832 14.12739086151123 27.89513778686523 15.31000137329102 30.17000579833984 C 16.1197509765625 31.6928768157959 17.15851974487305 33.0823974609375 18.39000129699707 34.28999328613281 C 19.5421199798584 35.47722625732422 20.86299133300781 36.48810577392578 22.31000137329102 37.28999328613281 C 20.40786361694336 38.05696487426758 18.37664985656738 38.45086669921875 16.32673263549805 38.45086669921875 C 16.27121734619141 38.45086669921875 16.21553993225098 38.45057678222656 16.15999984741211 38.44999694824219 C 16.09384536743164 38.45082855224609 16.0280876159668 38.45124053955078 15.96197891235352 38.45124053955078 C 13.44304752349854 38.45124053955078 10.95932960510254 37.84766387939453 8.720000267028809 36.69000625610352 C 7.242100715637207 35.89886474609375 5.893301010131836 34.88727569580078 4.720001220703125 33.69000625610352 C 2.045869827270508 31.10530662536621 0.3916702270507813 27.64426422119141 0.06000137329101563 23.94000625610352 C 0 23.52999496459961 0 23.1099967956543 0 22.69999694824219 Z" stroke="none" fill="#fff"/>
        </g>
        <path id="Path_754" data-name="Path 754" d="M31.38,16.52h0a16.61,16.61,0,0,1,1.28,6.58h0a16.33,16.33,0,0,1-1.84,7.75h0a17.69,17.69,0,0,1-7.73,7.46h0a16.8,16.8,0,0,1-15.01-.16A17,17,0,0,1,4,35.05a17.14,17.14,0,0,1-2.41-3H1.54A22.87,22.87,0,0,0,6.6,39.46a22.11,22.11,0,0,0,14.73,6.73h0q.81.06,1.65.06a14.8,14.8,0,0,0,1.64-.06,15.47,15.47,0,0,0,9.76-4.66,16.61,16.61,0,0,0,3-3.95A15.73,15.73,0,0,0,39,30.22a15.78,15.78,0,0,0-1.5-6.9,16.39,16.39,0,0,0-3.22-4.49,17,17,0,0,0-2.85-2.31h-.07" transform="translate(7.44 9.09)" stroke="#fff" stroke-linecap="round" stroke-linejoin="round" stroke-width="1" fill="url(#linear-gradient-3)"/>
      </g>
    </g>
  </g>
</svg>
