<svg xmlns="http://www.w3.org/2000/svg" width="138.591" height="161.176" viewBox="0 0 138.591 161.176">
  <path id="Контур_4078" data-name="Контур 4078" d="M225.854,156.061a11.445,11.445,0,0,0,17.579,0l57.206-68.648a11.451,11.451,0,0,0-8.79-18.766H268.967V11.441A11.442,11.442,0,0,0,257.525,0H211.761a11.442,11.442,0,0,0-11.441,11.441V68.647H177.437a11.45,11.45,0,0,0-8.789,18.766ZM211.76,91.53A11.442,11.442,0,0,0,223.2,80.089V22.883h22.882V80.089A11.442,11.442,0,0,0,257.525,91.53h9.9l-32.779,39.334L201.864,91.53Z" transform="translate(-165.347 0.5)" fill="rgba(0,0,0,0)" stroke="#70a557" stroke-width="1"/>
</svg>
